<svg width="71" height="82" viewBox="0 0 71 82" fill="none" xmlns="http://www.w3.org/2000/svg">
<g clip-path="url(#clip0_753_9600)">
<path d="M0 64.4628L35.5 82L71 64.4628V0H0V64.4628Z" fill="white"/>
<path d="M0 64.4628L35.5 82L71 64.4628V0H0V64.4628Z" fill="white"/>
<path d="M12.7026 9.83223V6.04167H15.1259V6.71469H13.4435V7.62752H14.8481V8.30827H13.4435V9.83223H12.7026ZM18.8534 9.83223L17.4025 6.04167H18.1434L19.6406 9.83223H18.8534ZM15.8668 9.83223L17.3562 6.04167H18.0971L16.6462 9.83223H15.8668ZM16.569 8.99676V8.34695H18.9383V8.99676H16.569ZM20.6284 9.83223V6.04167H21.3693V9.15922H23.0362V9.83223H20.6284ZM24.0704 9.83223V6.04167H24.8112V9.15922H26.4782V9.83223H24.0704ZM29.2101 9.83223V9.28299C29.2101 9.18242 29.241 9.06639 29.3105 8.94261C29.3722 8.8111 29.4648 8.68733 29.5806 8.56356C29.6963 8.43205 29.8275 8.31601 29.9819 8.20771L30.5607 7.79771C30.6379 7.74356 30.715 7.68167 30.7845 7.61205C30.8539 7.54242 30.908 7.4728 30.9543 7.38771C31.0006 7.30261 31.0237 7.22525 31.0237 7.15563C31.0237 7.05506 31.0006 6.96997 30.9543 6.90035C30.908 6.82299 30.8385 6.7611 30.7536 6.72242C30.6687 6.67601 30.5684 6.6528 30.4372 6.6528C30.3292 6.6528 30.2365 6.67601 30.1517 6.72242C30.0668 6.7611 29.9973 6.82299 29.9433 6.89261C29.8893 6.96223 29.8507 7.03959 29.8275 7.12469L29.0635 6.99318C29.1021 6.81525 29.1793 6.64507 29.295 6.49035C29.4185 6.33563 29.5729 6.21186 29.7658 6.11129C29.9587 6.01846 30.1748 5.97205 30.4218 5.97205C30.7073 5.97205 30.9466 6.0262 31.1472 6.12676C31.3479 6.22733 31.5022 6.35884 31.6102 6.53676C31.726 6.71469 31.78 6.91582 31.78 7.14789C31.78 7.37997 31.7183 7.58884 31.5871 7.7745C31.4559 7.95242 31.2861 8.12261 31.0623 8.28506L30.5452 8.65639C30.4449 8.72601 30.3523 8.8111 30.2751 8.8962C30.198 8.98129 30.1439 9.08186 30.1054 9.18242H31.8263V9.83223H29.2101ZM34.3576 9.89412C34.0489 9.89412 33.7788 9.80903 33.5473 9.64657C33.3081 9.47639 33.1229 9.24431 32.9917 8.95035C32.8605 8.65639 32.791 8.31601 32.791 7.93695C32.791 7.5579 32.8605 7.21752 32.9917 6.92356C33.1229 6.62959 33.3081 6.39752 33.5396 6.22733C33.7711 6.06488 34.0412 5.97978 34.3499 5.97978C34.6586 5.97978 34.921 6.06488 35.1602 6.22733C35.3995 6.39752 35.5847 6.62959 35.7159 6.92356C35.8471 7.21752 35.9166 7.5579 35.9166 7.93695C35.9166 8.31601 35.8471 8.65639 35.7159 8.95035C35.5847 9.24431 35.3995 9.47639 35.168 9.64657C34.9287 9.80903 34.6586 9.89412 34.3576 9.89412ZM34.3576 9.22884C34.5197 9.22884 34.6586 9.17469 34.7898 9.05865C34.921 8.95035 35.0213 8.79563 35.0908 8.60223C35.1602 8.40884 35.1988 8.19223 35.1988 7.93695C35.1988 7.68167 35.1602 7.45733 35.0908 7.26393C35.0213 7.07054 34.921 6.91582 34.7898 6.80752C34.6586 6.69922 34.512 6.64507 34.3499 6.64507C34.1879 6.64507 34.0412 6.69922 33.9177 6.80752C33.7866 6.91582 33.6939 7.07054 33.6245 7.26393C33.555 7.45733 33.5164 7.68167 33.5164 7.93695C33.5164 8.19223 33.555 8.40884 33.6245 8.60223C33.6939 8.79563 33.7866 8.95035 33.9177 9.05865C34.0489 9.17469 34.1956 9.22884 34.3576 9.22884ZM36.9198 9.83223V9.28299C36.9198 9.18242 36.9507 9.06639 37.0201 8.94261C37.0819 8.8111 37.1745 8.68733 37.2902 8.56356C37.406 8.43205 37.5372 8.31601 37.6916 8.20771L38.2626 7.79771C38.3475 7.74356 38.4247 7.68167 38.4942 7.61205C38.5636 7.54242 38.6176 7.4728 38.6639 7.38771C38.7102 7.30261 38.7334 7.22525 38.7334 7.15563C38.7334 7.05506 38.7102 6.96997 38.6639 6.90035C38.6176 6.82299 38.5482 6.7611 38.4633 6.72242C38.3784 6.67601 38.2781 6.6528 38.1469 6.6528C38.0388 6.6528 37.9462 6.67601 37.8613 6.72242C37.7764 6.7611 37.707 6.82299 37.653 6.89261C37.5989 6.96223 37.5604 7.03959 37.5372 7.12469L36.7732 6.99318C36.8118 6.81525 36.8889 6.64507 37.0047 6.49035C37.1205 6.33563 37.2825 6.21186 37.4755 6.11129C37.6684 6.01846 37.8845 5.97205 38.1314 5.97205C38.417 5.97205 38.6562 6.0262 38.8569 6.12676C39.0575 6.22733 39.2119 6.35884 39.3199 6.53676C39.4357 6.71469 39.4897 6.91582 39.4897 7.14789C39.4897 7.37997 39.428 7.58884 39.2968 7.7745C39.1656 7.95242 38.9958 8.12261 38.772 8.28506L38.2549 8.65639C38.1546 8.72601 38.062 8.8111 37.9848 8.8962C37.9076 8.98129 37.8536 9.08186 37.815 9.18242H39.536V9.83223H36.9198ZM41.8975 9.89412C41.72 9.89412 41.5425 9.86318 41.365 9.80903C41.1875 9.75488 41.0177 9.66978 40.8711 9.55374C40.7245 9.43771 40.6242 9.29073 40.5547 9.12054L41.2261 8.9194C41.3033 9.03544 41.3959 9.12054 41.5117 9.17469C41.6197 9.22884 41.7355 9.25978 41.8512 9.25978C42.0442 9.25978 42.1908 9.20563 42.3066 9.08959C42.4223 8.97356 42.484 8.82657 42.484 8.63318C42.484 8.45525 42.43 8.30054 42.3143 8.1845C42.1985 8.06846 42.0519 8.00657 41.8667 8.00657C41.7509 8.00657 41.6506 8.02978 41.558 8.08393C41.4654 8.13808 41.3959 8.19223 41.3419 8.26186L40.6782 8.11488L40.902 6.04167H43.0397V6.71469H41.5348L41.4268 7.61978C41.5271 7.56563 41.6351 7.52695 41.7509 7.48827C41.8667 7.45733 41.9979 7.44186 42.1368 7.44186C42.3451 7.44186 42.5304 7.49601 42.6924 7.59657C42.8622 7.69714 43.0011 7.82865 43.1014 7.99884C43.2018 8.16903 43.2481 8.37016 43.2481 8.5945C43.2481 8.84978 43.1863 9.08186 43.0706 9.27525C42.9548 9.46865 42.8005 9.62337 42.5998 9.73167C42.3992 9.83997 42.1676 9.89412 41.8975 9.89412Z" fill="black"/>
<path d="M17.3486 35.3606V27.238H22.6273V28.9553H19.2085V30.4406H22.0717V32.1038H19.2085V33.6432H22.6814V35.3606H17.3486ZM27.3812 35.3606L27.3349 34.1074V32.4751C27.3349 32.1657 27.3118 31.8949 27.2578 31.6629C27.2037 31.4308 27.1034 31.2451 26.9645 31.1136C26.8256 30.9821 26.6172 30.9125 26.3394 30.9125C26.1233 30.9125 25.9381 30.9666 25.776 31.0672C25.614 31.1678 25.475 31.307 25.3593 31.4849L23.7849 30.9666C23.9161 30.6804 24.0936 30.4174 24.3174 30.1853C24.549 29.9532 24.8268 29.7676 25.1586 29.6283C25.4905 29.4891 25.8763 29.4195 26.3162 29.4195C26.9182 29.4195 27.4275 29.5278 27.8443 29.7521C28.261 29.9764 28.5774 30.2936 28.7858 30.6959C28.9942 31.0981 29.0945 31.5778 29.0945 32.127L29.0713 35.3606H27.3812ZM25.8069 35.4998C25.12 35.4998 24.5875 35.3451 24.2094 35.0357C23.8312 34.7263 23.646 34.293 23.646 33.7283C23.646 33.1172 23.839 32.6608 24.2325 32.3591C24.6261 32.0574 25.1818 31.9027 25.8918 31.9027H27.4738V33.063H26.5709C26.185 33.063 25.9072 33.1172 25.7374 33.2255C25.5677 33.3338 25.4828 33.4885 25.4828 33.6819C25.4828 33.8212 25.5445 33.9295 25.6757 34.0068C25.8069 34.0919 25.9767 34.1306 26.2005 34.1306C26.4243 34.1306 26.6249 34.0842 26.7947 33.9836C26.9645 33.8908 27.0957 33.7593 27.196 33.5968C27.2886 33.4344 27.3349 33.2564 27.3349 33.063H27.7903C27.7903 33.8366 27.6282 34.44 27.3041 34.8655C26.9799 35.291 26.4783 35.4998 25.8069 35.4998ZM32.3744 35.4998C31.9962 35.4998 31.6412 35.4457 31.3094 35.3297C30.9853 35.2213 30.6997 35.0666 30.4605 34.8578C30.2212 34.6489 30.0437 34.4014 29.928 34.1074L31.4097 33.4808C31.51 33.6819 31.649 33.8289 31.8265 33.9295C32.004 34.03 32.1892 34.0764 32.3744 34.0764C32.5596 34.0764 32.714 34.0455 32.822 33.9759C32.93 33.9063 32.9841 33.8212 32.9841 33.7051C32.9841 33.5814 32.93 33.4808 32.822 33.4112C32.7062 33.3415 32.5442 33.2797 32.3358 33.2255L31.8419 33.1017C31.3017 32.9625 30.8849 32.7304 30.5917 32.4055C30.3061 32.0883 30.1595 31.717 30.1595 31.2915C30.1595 30.6959 30.3679 30.2317 30.7769 29.9068C31.1859 29.5819 31.7493 29.4195 32.4747 29.4195C32.8837 29.4195 33.2465 29.4736 33.5629 29.5819C33.8716 29.6902 34.134 29.8449 34.35 30.0383C34.5584 30.2317 34.7128 30.4638 34.8054 30.7346L33.3699 31.3225C33.3159 31.1678 33.2002 31.0517 33.0381 30.9666C32.876 30.8893 32.6908 30.8506 32.4902 30.8506C32.3204 30.8506 32.1892 30.8893 32.0966 30.9589C32.004 31.0285 31.9577 31.1291 31.9577 31.2529C31.9577 31.3457 32.0117 31.423 32.1274 31.4927C32.2355 31.5623 32.3975 31.6164 32.6136 31.6706L33.231 31.8253C33.5937 31.9181 33.8947 32.0574 34.1417 32.243C34.3886 32.4364 34.5739 32.653 34.6973 32.9083C34.8208 33.1636 34.8825 33.4266 34.8825 33.7129C34.8825 34.0764 34.7745 34.3936 34.5661 34.6566C34.3578 34.9274 34.0568 35.1363 33.6786 35.2832C33.3005 35.4302 32.8683 35.4998 32.3744 35.4998ZM35.8472 35.3606V29.5587H37.6531V35.3606H35.8472ZM36.7502 28.8161C36.48 28.8161 36.2408 28.7155 36.0402 28.5066C35.8318 28.3055 35.7315 28.0657 35.7315 27.7949C35.7315 27.5242 35.8318 27.2689 36.0402 27.0678C36.2408 26.8744 36.48 26.7738 36.7502 26.7738C37.0203 26.7738 37.2672 26.8744 37.4679 27.0678C37.6685 27.2689 37.7688 27.5087 37.7688 27.7949C37.7688 28.0812 37.6685 28.3055 37.4679 28.5066C37.2672 28.7155 37.028 28.8161 36.7502 28.8161ZM41.7124 35.4998C41.1105 35.4998 40.578 35.3683 40.1149 35.113C39.6519 34.8578 39.2892 34.4942 39.0268 34.0378C38.7644 33.5814 38.6332 33.0553 38.6332 32.4597C38.6332 31.8563 38.7644 31.3302 39.0345 30.8738C39.3046 30.4174 39.6673 30.0615 40.1304 29.8063C40.5934 29.551 41.1259 29.4195 41.7356 29.4195C42.2835 29.4195 42.7774 29.551 43.2173 29.814C43.6572 30.077 44.0122 30.4715 44.2669 30.9898C44.5216 31.5081 44.6528 32.1502 44.6528 32.9238H40.3002L40.5008 32.7072C40.5008 32.9702 40.5548 33.2023 40.6629 33.4034C40.7709 33.6046 40.9175 33.7593 41.1105 33.8598C41.3034 33.9604 41.5195 34.0146 41.7587 34.0146C42.0443 34.0146 42.2912 33.9527 42.4842 33.8212C42.6771 33.6974 42.816 33.5349 42.8932 33.3415L44.4907 33.8908C44.3364 34.2544 44.1203 34.5561 43.8424 34.7959C43.5569 35.0357 43.2328 35.2136 42.87 35.3297C42.5073 35.4457 42.1215 35.4998 41.7124 35.4998ZM40.5471 31.9491L40.3619 31.717H42.9549L42.7929 31.9491C42.7929 31.6629 42.7311 31.4385 42.6154 31.2683C42.4996 31.0981 42.3607 30.9744 42.1909 30.897C42.0211 30.8274 41.8513 30.7887 41.6816 30.7887C41.5118 30.7887 41.342 30.8274 41.1645 30.897C40.987 30.9744 40.8404 31.0981 40.7246 31.2683C40.6089 31.4385 40.5471 31.6629 40.5471 31.9491ZM47.5931 35.4998C47.2149 35.4998 46.8677 35.4457 46.5358 35.3297C46.204 35.2213 45.9261 35.0666 45.6869 34.8578C45.4477 34.6489 45.2702 34.4014 45.1544 34.1074L46.6361 33.4808C46.7365 33.6819 46.8754 33.8289 47.0529 33.9295C47.2304 34.03 47.4079 34.0764 47.5931 34.0764C47.786 34.0764 47.9404 34.0455 48.0484 33.9759C48.1565 33.9063 48.2105 33.8212 48.2105 33.7051C48.2105 33.5814 48.1565 33.4808 48.0407 33.4112C47.9249 33.3415 47.7706 33.2797 47.5622 33.2255L47.0606 33.1017C46.5204 32.9625 46.1036 32.7304 45.8181 32.4055C45.5325 32.0883 45.3859 31.717 45.3859 31.2915C45.3859 30.6959 45.5866 30.2317 45.9956 29.9068C46.4046 29.5819 46.9757 29.4195 47.7011 29.4195C48.1102 29.4195 48.4652 29.4736 48.7816 29.5819C49.098 29.6902 49.3604 29.8449 49.5687 30.0383C49.7771 30.2317 49.9315 30.4638 50.0241 30.7346L48.5886 31.3225C48.5346 31.1678 48.4266 31.0517 48.2645 30.9666C48.0947 30.8893 47.9095 30.8506 47.7089 30.8506C47.5391 30.8506 47.4079 30.8893 47.3153 30.9589C47.2227 31.0285 47.1764 31.1291 47.1764 31.2529C47.1764 31.3457 47.2304 31.423 47.3461 31.4927C47.4619 31.5623 47.624 31.6164 47.84 31.6706L48.4497 31.8253C48.8124 31.9181 49.1211 32.0574 49.3681 32.243C49.615 32.4364 49.8003 32.653 49.9237 32.9083C50.0472 33.1636 50.109 33.4266 50.109 33.7129C50.109 34.0764 50.0009 34.3936 49.7925 34.6566C49.5765 34.9274 49.2832 35.1363 48.905 35.2832C48.5269 35.4302 48.087 35.4998 47.5931 35.4998ZM53.4506 35.4998C52.7637 35.4998 52.2544 35.3374 51.9225 35.0047C51.583 34.6798 51.4132 34.208 51.4132 33.5968V27.7485H53.2191V33.1481C53.2191 33.3802 53.2654 33.5504 53.3503 33.6587C53.4352 33.767 53.5663 33.8212 53.7439 33.8212C53.8133 33.8212 53.8905 33.8057 53.9831 33.767C54.0757 33.7283 54.1606 33.6897 54.2378 33.6355L54.8629 34.9583C54.6777 35.113 54.4539 35.2446 54.1992 35.3451C53.9445 35.4457 53.6898 35.4998 53.4506 35.4998ZM50.5103 31.0827V29.5587H54.5387V31.0749H50.5103V31.0827ZM23.4762 47.1036C23.0827 47.1036 22.7045 47.0495 22.3418 46.9489C21.9868 46.8483 21.6627 46.7014 21.3771 46.5157C21.0839 46.3378 20.8446 46.1289 20.6594 45.9046C20.4742 45.6802 20.3584 45.4327 20.3121 45.1697L22.1566 44.6436C22.2415 44.868 22.3881 45.0691 22.6042 45.2315C22.8125 45.394 23.0827 45.4868 23.4068 45.4946C23.7232 45.4946 23.9856 45.4249 24.2017 45.2702C24.41 45.1155 24.5181 44.9144 24.5181 44.6668C24.5181 44.4734 24.4409 44.3032 24.2866 44.1563C24.1399 44.0093 23.9239 43.901 23.646 43.8236L22.5039 43.5297C22.1025 43.4291 21.7553 43.2744 21.4543 43.0578C21.1533 42.8412 20.9218 42.5781 20.7597 42.261C20.5977 41.9438 20.5128 41.588 20.5128 41.1857C20.5128 40.4044 20.7674 39.801 21.2845 39.36C21.8016 38.9191 22.5347 38.7025 23.4762 38.7025C23.9933 38.7025 24.4409 38.7721 24.8268 38.9191C25.2127 39.0661 25.5445 39.2749 25.8146 39.5534C26.0924 39.8319 26.3085 40.18 26.4706 40.5978L24.6416 41.1393C24.5798 40.9304 24.4486 40.7447 24.248 40.5746C24.0396 40.4044 23.7772 40.3193 23.4531 40.3193C23.129 40.3193 22.8743 40.3889 22.6891 40.5359C22.5116 40.6829 22.419 40.8995 22.419 41.178C22.419 41.3714 22.4961 41.5261 22.6428 41.6576C22.7894 41.7891 22.99 41.8819 23.2447 41.9438L24.3869 42.23C25.0429 42.3925 25.5599 42.7019 25.9227 43.1429C26.2854 43.5838 26.4706 44.0944 26.4706 44.6591C26.4706 45.1697 26.3548 45.6029 26.1233 45.9664C25.8841 46.33 25.5445 46.6163 25.0969 46.8097C24.6493 47.003 24.1091 47.1036 23.4762 47.1036ZM30.2598 47.1036C29.6579 47.1036 29.1254 46.9721 28.6623 46.7168C28.1993 46.4615 27.8366 46.098 27.5742 45.6415C27.3118 45.1851 27.1806 44.6591 27.1806 44.0634C27.1806 43.4678 27.3118 42.934 27.5819 42.4776C27.8443 42.0212 28.207 41.6653 28.67 41.41C29.1331 41.1547 29.6733 41.0232 30.283 41.0232C30.8309 41.0232 31.3248 41.1547 31.7647 41.4178C32.2046 41.6808 32.5519 42.0753 32.8143 42.5936C33.069 43.1119 33.2002 43.754 33.2002 44.5276H28.8475L29.0405 44.311C29.0405 44.574 29.0945 44.8061 29.2025 45.0072C29.3106 45.2083 29.4649 45.363 29.6579 45.4636C29.8508 45.5642 30.0669 45.6183 30.3061 45.6183C30.5917 45.6183 30.8309 45.5564 31.0239 45.4249C31.2245 45.3012 31.3634 45.1387 31.4406 44.9453L33.0381 45.4946C32.8837 45.8581 32.6677 46.1598 32.3821 46.3997C32.0966 46.6395 31.7802 46.8174 31.4174 46.9334C31.0547 47.0495 30.6688 47.1036 30.2598 47.1036ZM29.0868 43.5529L28.9016 43.3208H31.4946L31.3325 43.5529C31.3325 43.2666 31.2785 43.0423 31.1628 42.8721C31.047 42.7019 30.9004 42.5781 30.7306 42.5008C30.5608 42.4312 30.391 42.3925 30.2212 42.3925C30.0515 42.3925 29.8817 42.4312 29.7042 42.5008C29.5344 42.5781 29.3878 42.7019 29.272 42.8721C29.1485 43.0423 29.0868 43.2666 29.0868 43.5529ZM36.4569 47.1036C35.77 47.1036 35.2607 46.9412 34.9288 46.6085C34.5893 46.2836 34.4195 45.8117 34.4195 45.2006V39.3523H36.2254V44.7519C36.2254 44.984 36.2717 45.1542 36.3566 45.2625C36.4415 45.3708 36.5727 45.4249 36.7502 45.4249C36.8196 45.4249 36.8968 45.4095 36.9894 45.3708C37.082 45.3321 37.1669 45.2934 37.2441 45.2393L37.8692 46.5621C37.684 46.7168 37.4602 46.8483 37.2055 46.9489C36.9508 47.0495 36.6961 47.1036 36.4569 47.1036ZM33.5088 42.6864V41.1625H37.5373V42.6864H33.5088ZM42.5073 46.9644L42.3993 45.8968V41.1625H44.2052V46.9644H42.5073ZM38.6718 44.133V41.1625H40.4777V44.133H38.6718ZM40.4777 44.133C40.4777 44.4347 40.5162 44.6823 40.5857 44.868C40.6552 45.0536 40.7555 45.1851 40.8867 45.2702C41.0179 45.3553 41.1722 45.4017 41.3497 45.4095C41.697 45.4095 41.9594 45.3089 42.1369 45.1155C42.3144 44.9221 42.3993 44.6204 42.3993 44.2259H42.9472C42.9472 44.837 42.8546 45.363 42.6694 45.7885C42.4842 46.214 42.2295 46.5466 41.9131 46.771C41.589 46.9953 41.2185 47.1036 40.7941 47.1036C40.331 47.1036 39.9374 47.0108 39.621 46.8174C39.3046 46.6317 39.0731 46.3455 38.911 45.9587C38.749 45.5719 38.6718 45.0768 38.6718 44.4734V44.133H40.4777ZM45.4477 49.2851V41.1625H47.1455L47.2535 42.23V49.2851H45.4477ZM48.8973 47.1036C48.4188 47.1036 48.0175 46.9798 47.6934 46.74C47.3693 46.5002 47.1223 46.1444 46.9603 45.688C46.7982 45.2315 46.721 44.69 46.721 44.0634C46.721 43.4291 46.7982 42.8876 46.9603 42.4312C47.1223 41.9825 47.3693 41.6344 47.6934 41.3868C48.0175 41.147 48.4188 41.0232 48.8973 41.0232C49.4375 41.0232 49.9006 41.147 50.2942 41.3868C50.6878 41.6344 50.9887 41.9825 51.1971 42.4312C51.4055 42.8876 51.5135 43.4291 51.5135 44.0634C51.5135 44.6978 51.4055 45.2315 51.1971 45.688C50.9887 46.1444 50.6878 46.5002 50.2942 46.74C49.9006 46.9798 49.4375 47.1036 48.8973 47.1036ZM48.4343 45.4327C48.6658 45.4327 48.8665 45.3785 49.044 45.2625C49.2215 45.1464 49.3681 44.984 49.4761 44.7751C49.5842 44.574 49.6382 44.3342 49.6382 44.0634C49.6382 43.7927 49.5842 43.5606 49.4839 43.3517C49.3835 43.1429 49.2446 42.9881 49.0594 42.8721C48.8819 42.7561 48.6735 42.6942 48.442 42.6942C48.2105 42.6942 48.0021 42.7561 47.8246 42.8721C47.6471 42.9881 47.5005 43.1506 47.4002 43.3595C47.2998 43.5683 47.2535 43.8004 47.2535 44.0634C47.2535 44.3264 47.2998 44.574 47.4002 44.7751C47.5005 44.984 47.6394 45.1464 47.8169 45.2625C47.9944 45.3785 48.2028 45.4327 48.4343 45.4327Z" fill="black"/>
<path d="M21.5083 55.5743V52.596H23.3836V53.1221H22.0871V53.8028H23.2061V54.3211H22.0871V55.0406H23.4068V55.5743H21.5083ZM24.4409 55.5743V52.596H25.0429L26.4937 54.5919V52.596H27.0725V55.5743H26.4937L25.0197 53.5321V55.5743H24.4409ZM28.7704 55.5743V53.1221H27.8829V52.596H30.2444V53.1221H29.3569V55.5743H28.7704ZM31.047 55.5743V52.596H32.93V53.1221H31.6258V53.8028H32.7525V54.3211H31.6258V55.0406H32.9455V55.5743H31.047ZM33.9719 55.5743V52.596H35.0755C35.2838 52.596 35.4691 52.6347 35.6311 52.7121C35.7932 52.7972 35.9167 52.9055 36.0093 53.0524C36.1019 53.1994 36.1482 53.3619 36.1482 53.5553C36.1482 53.7487 36.1019 53.9034 36.0016 54.0504C35.909 54.1973 35.7778 54.3134 35.6157 54.3907C35.4536 54.4758 35.2607 54.5145 35.0523 54.5145H34.5507V55.5743H33.9719ZM35.608 55.5743L34.9211 54.3753L35.361 54.0581L36.264 55.5743H35.608ZM34.5507 53.9807H35.0832C35.1681 53.9807 35.2453 53.9653 35.3147 53.9266C35.3842 53.8879 35.4459 53.8415 35.4845 53.7719C35.5231 53.71 35.5385 53.6404 35.5385 53.5553C35.5385 53.4238 35.4922 53.3232 35.4073 53.2458C35.3147 53.1607 35.199 53.1221 35.0523 53.1221H34.5507V53.9807ZM37.136 55.5743V52.596H38.2396C38.448 52.596 38.6332 52.6347 38.7953 52.7198C38.9573 52.8049 39.0808 52.9209 39.1734 53.0679C39.2583 53.2149 39.3046 53.3928 39.3046 53.5862C39.3046 53.7796 39.2583 53.9498 39.1734 54.0968C39.0885 54.2438 38.965 54.3675 38.8184 54.4526C38.6641 54.5377 38.4866 54.5841 38.2859 54.5841H37.7148V55.5743H37.136ZM37.7148 54.0504H38.2705C38.4017 54.0504 38.5097 54.0039 38.5946 53.9189C38.6795 53.8338 38.7181 53.7177 38.7181 53.5862C38.7181 53.4547 38.6718 53.3387 38.5792 53.2536C38.4866 53.1685 38.3708 53.1221 38.2242 53.1221H37.7148V54.0504ZM40.1149 55.5743V52.596H41.2185C41.4269 52.596 41.6121 52.6347 41.7742 52.7121C41.9362 52.7972 42.0674 52.9055 42.1523 53.0524C42.2449 53.1994 42.2912 53.3619 42.2912 53.5553C42.2912 53.7487 42.2449 53.9034 42.1523 54.0504C42.052 54.1973 41.9208 54.3134 41.7587 54.3907C41.5967 54.4758 41.4115 54.5145 41.2031 54.5145H40.7015V55.5743H40.1149ZM41.751 55.5743L41.0642 54.3753L41.5118 54.0581L42.407 55.5743H41.751ZM40.7015 53.9807H41.2262C41.3111 53.9807 41.3883 53.9653 41.4578 53.9266C41.5272 53.8879 41.589 53.8415 41.6275 53.7719C41.6661 53.71 41.6893 53.6404 41.6893 53.5553C41.6893 53.4238 41.643 53.3232 41.5504 53.2458C41.4578 53.1607 41.342 53.1221 41.1954 53.1221H40.7015V53.9807ZM43.2791 55.5743V52.596H43.8579V55.5743H43.2791ZM45.9261 55.6207C45.7795 55.6207 45.6406 55.6053 45.5094 55.5666C45.3782 55.5279 45.2624 55.4815 45.1621 55.4119C45.0618 55.3422 44.9769 55.2726 44.9074 55.1875C44.838 55.1024 44.7994 55.0173 44.7762 54.9245L45.3473 54.7543C45.3859 54.8549 45.4476 54.94 45.5403 55.0096C45.6329 55.0792 45.7486 55.1102 45.8953 55.1179C46.0419 55.1179 46.1654 55.087 46.258 55.0173C46.3583 54.9477 46.4046 54.8626 46.4046 54.7543C46.4046 54.6615 46.366 54.5841 46.2888 54.5145C46.2194 54.4526 46.1113 54.4062 45.9801 54.3675L45.5943 54.267C45.4476 54.2283 45.3242 54.1741 45.2161 54.0968C45.1004 54.0272 45.0155 53.9343 44.9537 53.8183C44.892 53.71 44.8611 53.5785 44.8611 53.4315C44.8611 53.153 44.9537 52.9364 45.139 52.7739C45.3242 52.6192 45.5866 52.5419 45.9261 52.5419C46.1191 52.5419 46.2811 52.5728 46.4278 52.627C46.5744 52.6811 46.6901 52.7585 46.7828 52.859C46.8831 52.9596 46.9525 53.0834 47.0066 53.2226L46.4432 53.3928C46.4046 53.3 46.3429 53.2226 46.258 53.153C46.1654 53.0834 46.0496 53.0447 45.9107 53.0447C45.7718 53.0447 45.6637 53.0756 45.5788 53.1453C45.494 53.2149 45.4554 53.3077 45.4554 53.4238C45.4554 53.5166 45.4862 53.5862 45.5557 53.6404C45.6174 53.6945 45.7023 53.7409 45.8104 53.7641L46.204 53.8647C46.4586 53.9266 46.6593 54.0349 46.7982 54.1973C46.9448 54.3598 47.0143 54.5455 47.0143 54.7389C47.0143 54.9168 46.968 55.0715 46.8831 55.203C46.7982 55.3345 46.6747 55.4428 46.5126 55.5124C46.3506 55.5821 46.1576 55.6207 45.9261 55.6207ZM47.9249 55.5743V52.596H49.808V53.1221H48.5037V53.8028H49.6228V54.3211H48.5037V55.0406H49.8234V55.5743H47.9249Z" fill="black"/>
<path d="M54.7935 0H71V16.2453H54.7935V0Z" fill="#FF492C"/>
<mask id="mask0_753_9600" style="mask-type:luminance" maskUnits="userSpaceOnUse" x="54" y="0" width="17" height="17">
<path d="M71 0H54.7935V16.2453H71V0Z" fill="white"/>
</mask>
<g mask="url(#mask0_753_9600)">
<path fill-rule="evenodd" clip-rule="evenodd" d="M66.408 6.21961H65.0266C65.0652 6.00301 65.1964 5.87924 65.4665 5.73999L65.7212 5.60848C66.1765 5.37641 66.4235 5.11339 66.4235 4.68018C66.4312 4.4249 66.3154 4.18509 66.1071 4.03811C65.8987 3.88339 65.6517 3.80603 65.3662 3.80603C65.1424 3.80603 64.9263 3.86792 64.7334 3.98395C64.5559 4.09226 64.4092 4.24697 64.3166 4.44037L64.7179 4.84263C64.8723 4.52546 65.0961 4.37075 65.3971 4.37075C65.644 4.37075 65.8061 4.50226 65.8061 4.68018C65.8061 4.8349 65.7289 4.95867 65.4434 5.10565L65.2813 5.18301C64.9263 5.36094 64.6793 5.5698 64.5404 5.80188C64.4015 6.03395 64.3243 6.32792 64.3243 6.68377V6.7766H66.4235V6.20414L66.408 6.21961ZM66.2228 7.45735H63.9307L62.7886 9.44546H65.0806L66.2228 11.4336L67.365 9.44546L66.2228 7.45735Z" fill="white"/>
<path fill-rule="evenodd" clip-rule="evenodd" d="M62.9814 10.776C61.5228 10.776 60.3344 9.58469 60.3344 8.12261C60.3344 6.66053 61.5228 5.46921 62.9814 5.46921L63.8843 3.5662C61.3762 3.06336 58.9375 4.69563 58.4359 7.20978C58.3741 7.51148 58.3433 7.81318 58.3433 8.12261C58.3433 10.6832 60.4192 12.7641 62.9737 12.7641C63.9538 12.7641 64.9108 12.4547 65.7057 11.8745L64.7024 10.1339C64.2239 10.5517 63.6142 10.776 62.9737 10.776H62.9814Z" fill="white"/>
<path d="M55.1714 0.518311V15.8894" stroke="black" stroke-width="1.09"/>
</g>
<path d="M0 64.6098V59.5815L35.5 77.4049L71 59.5815V64.6098L35.5 82L0 64.6098Z" fill="#288DFF"/>
<path d="M0 60.0069V54.9786L35.5 72.802L71 54.9786V60.0069L35.5 77.3971L0 60.0069Z" fill="white"/>
<path d="M0 55.4118V50.3835L35.5 68.2069L71 50.3835V55.4118L35.5 72.802L0 55.4118Z" fill="white"/>
<path d="M70.6679 15.8817H0.48596M70.583 64.2075L35.4998 81.5358L0.416504 64.2075V0.417725H70.5753V64.1998L70.583 64.2075Z" stroke="black" stroke-width="1.09"/>
</g>
<defs>
<clipPath id="clip0_753_9600">
<rect width="71" height="82" fill="white"/>
</clipPath>
</defs>
</svg>
