<svg width="71" height="82" viewBox="0 0 71 82" fill="none" xmlns="http://www.w3.org/2000/svg">
<g clip-path="url(#clip0_754_9758)">
<path d="M0 64.4628L35.5 82L71 64.4628V0H0V64.4628Z" fill="white"/>
<path d="M0 64.4628L35.5 82L71 64.4628V0H0V64.4628Z" fill="white"/>
<path d="M12.703 7.12471V3.33415H15.1263V4.00717H13.4439V4.92H14.8485V5.60075H13.4439V7.12471H12.703ZM18.8538 7.12471L17.4029 3.33415H18.1438L19.641 7.12471H18.8538ZM15.8671 7.12471L17.3566 3.33415H18.0975L16.6466 7.12471H15.8671ZM16.5694 6.28924V5.6317H18.9387V6.28924H16.5694ZM20.6288 7.12471V3.33415H21.3696V6.4517H23.0366V7.12471H20.6288ZM24.0707 7.12471V3.33415H24.8116V6.4517H26.4786V7.12471H24.0707ZM29.2105 7.12471V6.57547C29.2105 6.4749 29.2414 6.35887 29.3108 6.23509C29.3726 6.10358 29.4652 5.97981 29.581 5.85604C29.6967 5.72453 29.8279 5.60849 29.9823 5.50019L30.5611 5.09019C30.6382 5.03604 30.7154 4.97415 30.7849 4.90453C30.8543 4.8349 30.9083 4.76528 30.9546 4.68019C31.001 4.59509 31.0241 4.51773 31.0241 4.44811C31.0241 4.34755 31.001 4.26245 30.9546 4.19283C30.9083 4.11547 30.8389 4.05358 30.754 4.0149C30.6691 3.96849 30.5688 3.94528 30.4376 3.94528C30.3295 3.94528 30.2369 3.96849 30.152 4.0149C30.0671 4.05358 29.9977 4.11547 29.9437 4.18509C29.8896 4.25472 29.8511 4.33207 29.8279 4.41717L29.0639 4.28566C29.1025 4.10773 29.1796 3.93755 29.2954 3.78283C29.4189 3.62811 29.5732 3.50434 29.7662 3.40377C29.9591 3.31094 30.1752 3.26453 30.4221 3.26453C30.7077 3.26453 30.9469 3.31868 31.1476 3.41924C31.3482 3.51981 31.5026 3.65132 31.6106 3.82924C31.7264 4.00717 31.7804 4.2083 31.7804 4.44038C31.7804 4.67245 31.7187 4.88132 31.5875 5.06698C31.4563 5.2449 31.2865 5.41509 31.0627 5.57755L30.5456 5.94887C30.4453 6.01849 30.3527 6.10358 30.2755 6.18868C30.1983 6.27377 30.1443 6.37434 30.1057 6.4749H31.8267V7.12471H29.2105ZM34.358 7.1866C34.0493 7.1866 33.7792 7.10151 33.5477 6.93905C33.3085 6.76887 33.1232 6.53679 32.992 6.24283C32.8608 5.94887 32.7914 5.60849 32.7914 5.22943C32.7914 4.85038 32.8608 4.51 32.992 4.21604C33.1232 3.92207 33.3085 3.69 33.54 3.51981C33.7715 3.35736 34.0416 3.27226 34.3503 3.27226C34.659 3.27226 34.9214 3.35736 35.1606 3.51981C35.3999 3.69 35.5851 3.92207 35.7163 4.21604C35.8475 4.51 35.9169 4.85038 35.9169 5.22943C35.9169 5.60849 35.8475 5.94887 35.7163 6.24283C35.5851 6.53679 35.3999 6.76887 35.1683 6.93905C34.9291 7.10151 34.659 7.1866 34.358 7.1866ZM34.358 6.52132C34.5201 6.52132 34.659 6.46717 34.7902 6.35113C34.9214 6.24283 35.0217 6.08811 35.0912 5.89471C35.1606 5.70132 35.1992 5.48472 35.1992 5.22943C35.1992 4.97415 35.1606 4.74981 35.0912 4.55641C35.0217 4.36302 34.9214 4.2083 34.7902 4.1C34.659 3.9917 34.5124 3.93755 34.3503 3.93755C34.1882 3.93755 34.0416 3.9917 33.9181 4.1C33.7869 4.2083 33.6943 4.36302 33.6249 4.55641C33.5554 4.74981 33.5168 4.97415 33.5168 5.22943C33.5168 5.48472 33.5554 5.70132 33.6249 5.89471C33.6943 6.08811 33.7869 6.24283 33.9181 6.35113C34.0493 6.46717 34.196 6.52132 34.358 6.52132ZM36.9202 7.12471V6.57547C36.9202 6.4749 36.9511 6.35887 37.0205 6.23509C37.0823 6.10358 37.1749 5.97981 37.2906 5.85604C37.4064 5.72453 37.5376 5.60849 37.6919 5.50019L38.263 5.09019C38.3479 5.03604 38.4251 4.97415 38.4945 4.90453C38.564 4.8349 38.618 4.76528 38.6643 4.68019C38.7106 4.59509 38.7338 4.51773 38.7338 4.44811C38.7338 4.34755 38.7106 4.26245 38.6643 4.19283C38.618 4.11547 38.5486 4.05358 38.4637 4.0149C38.3788 3.96849 38.2785 3.94528 38.1473 3.94528C38.0392 3.94528 37.9466 3.96849 37.8617 4.0149C37.7768 4.05358 37.7074 4.11547 37.6533 4.18509C37.5993 4.25472 37.5607 4.33207 37.5376 4.41717L36.7736 4.28566C36.8121 4.10773 36.8893 3.93755 37.0051 3.78283C37.1208 3.62811 37.2829 3.50434 37.4758 3.40377C37.6688 3.31094 37.8849 3.26453 38.1318 3.26453C38.4174 3.26453 38.6566 3.31868 38.8573 3.41924C39.0579 3.51981 39.2123 3.65132 39.3203 3.82924C39.4361 4.00717 39.4901 4.2083 39.4901 4.44038C39.4901 4.67245 39.4283 4.88132 39.2971 5.06698C39.166 5.2449 38.9962 5.41509 38.7724 5.57755L38.2553 5.94887C38.155 6.01849 38.0624 6.10358 37.9852 6.18868C37.908 6.27377 37.854 6.37434 37.8154 6.4749H39.5364V7.12471H36.9202ZM41.8979 7.1866C41.7204 7.1866 41.5429 7.15566 41.3654 7.10151C41.1879 7.04736 41.0181 6.96226 40.8715 6.84622C40.7249 6.73019 40.6245 6.58321 40.5551 6.41302L41.2265 6.21188C41.3037 6.32792 41.3963 6.41302 41.512 6.46717C41.6201 6.52132 41.7358 6.55226 41.8516 6.55226C42.0445 6.55226 42.1912 6.49811 42.3069 6.38207C42.4227 6.26604 42.4844 6.11905 42.4844 5.92566C42.4844 5.74773 42.4304 5.59302 42.3146 5.47698C42.1989 5.36094 42.0523 5.29905 41.867 5.29905C41.7513 5.29905 41.651 5.32226 41.5583 5.37641C41.4657 5.43056 41.3963 5.48471 41.3423 5.55434L40.6786 5.40736L40.9024 3.33415H43.0401V4.00717H41.5352L41.4271 4.91226C41.5275 4.85811 41.6355 4.81943 41.7513 4.78075C41.867 4.74981 41.9982 4.73434 42.1371 4.73434C42.3455 4.73434 42.5307 4.78849 42.6928 4.88905C42.8626 4.98962 43.0015 5.12113 43.1018 5.29132C43.2021 5.46151 43.2485 5.66264 43.2485 5.88698C43.2485 6.14226 43.1867 6.37434 43.071 6.56773C42.9552 6.76113 42.8008 6.91585 42.6002 7.02415C42.3995 7.13245 42.168 7.1866 41.8979 7.1866ZM15.1263 12.5398L13.6754 8.74924H14.4163L15.9057 12.5398H15.1263ZM12.1396 12.5398L13.6291 8.74924H14.37L12.9191 12.5398H12.1396ZM12.8496 11.7043V11.0545H15.2189V11.7043H12.8496ZM16.909 12.5398V8.74924H17.7116L18.8152 10.3815L19.9188 8.74924H20.7214V12.5398H19.9805V9.90962L18.8152 11.627L17.6499 9.91736V12.5398H16.909ZM22.0719 12.5398V8.74924H24.4643V9.42226H22.8128V10.2887H24.2405V10.9462H22.8128V11.8668H24.4875V12.5398H22.0719ZM25.7917 12.5398V8.74924H27.1963C27.4664 8.74924 27.6979 8.80339 27.9063 8.90396C28.1146 9.01226 28.269 9.15924 28.3848 9.33717C28.5005 9.51509 28.5623 9.7317 28.5623 9.97151C28.5623 10.2113 28.5005 10.4202 28.377 10.6058C28.2613 10.7915 28.0915 10.9385 27.8831 11.0391C27.6748 11.1396 27.4432 11.1938 27.1731 11.1938H26.5326V12.5398H25.7917ZM27.8754 12.5398L26.9956 11.0158L27.5667 10.6136L28.7089 12.5398H27.8754ZM26.5326 10.5208H27.204C27.3198 10.5208 27.4201 10.4975 27.505 10.4511C27.5899 10.4047 27.6593 10.3428 27.7133 10.2577C27.7674 10.1726 27.7905 10.0798 27.7905 9.97151C27.7905 9.80905 27.7288 9.67754 27.613 9.57698C27.4973 9.47641 27.3506 9.43 27.1654 9.43H26.5326V10.5208ZM29.8279 12.5398V8.74924H30.5688V12.5398H29.8279ZM33.594 12.6017C33.2313 12.6017 32.9071 12.5166 32.6216 12.3541C32.3361 12.184 32.1123 11.9519 31.9502 11.6579C31.7881 11.364 31.7032 11.0236 31.7032 10.6445C31.7032 10.2655 31.7881 9.92509 31.9502 9.63113C32.1123 9.33717 32.3283 9.10509 32.6139 8.9349C32.8994 8.77245 33.2236 8.68736 33.594 8.68736C33.8487 8.68736 34.0879 8.73377 34.3117 8.81887C34.5355 8.9117 34.7362 9.0432 34.8982 9.20566C35.068 9.36811 35.1992 9.56151 35.2841 9.77037L34.605 10.0257C34.5432 9.89415 34.4583 9.77811 34.358 9.67755C34.2577 9.57698 34.1419 9.49962 34.0107 9.44547C33.8795 9.39132 33.7406 9.36038 33.594 9.36038C33.3702 9.36038 33.1773 9.41453 33.0075 9.52283C32.83 9.63887 32.6988 9.78585 32.6062 9.97924C32.5058 10.1726 32.4595 10.3892 32.4595 10.6445C32.4595 10.8998 32.5058 11.1164 32.6062 11.3098C32.7065 11.5032 32.8377 11.6579 33.0152 11.7662C33.185 11.8823 33.3856 11.9364 33.6094 11.9364C33.7638 11.9364 33.9027 11.9055 34.0339 11.8436C34.1651 11.7894 34.2731 11.7043 34.3735 11.596C34.4738 11.4955 34.551 11.3717 34.6127 11.2325L35.2995 11.4877C35.2069 11.7043 35.0757 11.8977 34.9137 12.0679C34.7439 12.2381 34.551 12.3696 34.3271 12.4625C34.1033 12.5553 33.8564 12.6017 33.594 12.6017ZM38.9962 12.5398L37.5453 8.74924H38.2862L39.7833 12.5398H38.9962ZM36.0173 12.5398L37.5067 8.74924H38.2476L36.7967 12.5398H36.0173ZM36.7195 11.7043V11.0545H39.0888V11.7043H36.7195ZM42.0523 12.6017C41.8593 12.6017 41.6818 12.5785 41.5198 12.5321C41.35 12.4857 41.2033 12.4238 41.0721 12.3387C40.941 12.2536 40.8329 12.153 40.748 12.0525C40.6631 11.9519 40.6091 11.8358 40.586 11.7198L41.3114 11.5032C41.3577 11.627 41.4426 11.7353 41.5583 11.8204C41.6741 11.9055 41.8285 11.9519 42.006 11.9596C42.1989 11.9596 42.3532 11.9209 42.4767 11.8358C42.5925 11.7508 42.6542 11.6347 42.6542 11.5032C42.6542 11.3872 42.6079 11.2866 42.5153 11.2015C42.415 11.1164 42.2838 11.0545 42.1217 11.0158L41.6278 10.8843C41.4503 10.8379 41.2882 10.7683 41.1416 10.6677C41.0027 10.5749 40.8946 10.4589 40.8175 10.3119C40.7326 10.1726 40.694 10.0102 40.694 9.82453C40.694 9.46094 40.8098 9.18245 41.049 8.98132C41.2882 8.78792 41.6201 8.68736 42.0523 8.68736C42.2915 8.68736 42.5076 8.7183 42.6851 8.78792C42.8626 8.85754 43.0169 8.95811 43.1404 9.08962C43.2639 9.22113 43.3565 9.37585 43.426 9.55377L42.7082 9.77037C42.6619 9.6466 42.5848 9.54604 42.469 9.46094C42.3532 9.37585 42.2066 9.32943 42.0291 9.32943C41.8516 9.32943 41.705 9.36811 41.6046 9.45321C41.5043 9.5383 41.4503 9.65434 41.4503 9.80905C41.4503 9.92509 41.4889 10.0179 41.5738 10.0875C41.6587 10.1572 41.7667 10.2036 41.9056 10.2423L42.3995 10.366C42.7237 10.4511 42.9783 10.5904 43.1558 10.7992C43.3333 11.0081 43.426 11.2325 43.426 11.4877C43.426 11.7121 43.3719 11.9055 43.2639 12.0679C43.1558 12.2381 43.0015 12.3696 42.7931 12.4625C42.5925 12.5553 42.3455 12.6017 42.0523 12.6017Z" fill="black"/>
<path d="M28.647 35.1672V26.503H30.6304V35.1672H28.647ZM23.0673 35.1672V26.4876H25.0584V35.1672H23.0673ZM24.4719 31.6628V29.8294H29.7043V31.6628H24.4719ZM32.2124 35.1672V28.9785H34.1418V35.1672H32.2124ZM33.1771 28.1894C32.8916 28.1894 32.6369 28.0811 32.4131 27.8568C32.1893 27.6325 32.089 27.3849 32.089 27.0987C32.089 26.797 32.197 26.534 32.4131 26.3251C32.6369 26.1162 32.8916 26.0079 33.1771 26.0079C33.4627 26.0079 33.725 26.1162 33.9411 26.3251C34.1572 26.534 34.2653 26.797 34.2653 27.0987C34.2653 27.4004 34.1572 27.6402 33.9411 27.8568C33.725 28.0811 33.4704 28.1894 33.1771 28.1894ZM38.4249 37.8128C37.9233 37.8128 37.4834 37.7819 37.1053 37.72C36.7348 37.6504 36.4184 37.5653 36.1483 37.457C35.8859 37.3487 35.6698 37.2327 35.5 37.1011L36.2486 35.5617C36.3798 35.6159 36.5419 35.6932 36.7194 35.7783C36.8969 35.8634 37.1207 35.9408 37.3831 36.0104C37.6532 36.08 37.9696 36.111 38.34 36.111C38.6256 36.111 38.888 36.0568 39.1118 35.9408C39.3356 35.8247 39.5131 35.6545 39.6366 35.4225C39.7678 35.1827 39.8295 34.8887 39.8295 34.5328V28.9785H41.7589V34.4632C41.7589 35.1517 41.6277 35.7551 41.3653 36.2579C41.0952 36.7608 40.717 37.1398 40.2231 37.4106C39.7292 37.6813 39.1272 37.8128 38.4249 37.8128ZM37.9773 34.9351C37.3985 34.9351 36.9046 34.8191 36.4879 34.5793C36.0788 34.3394 35.7547 34.0068 35.5309 33.5736C35.3071 33.1327 35.1913 32.6144 35.1913 32.011C35.1913 31.3534 35.3071 30.7887 35.5309 30.3168C35.7547 29.8449 36.0788 29.4813 36.4879 29.2183C36.9046 28.963 37.3985 28.8315 37.9773 28.8315C38.4558 28.8315 38.8725 28.963 39.2198 29.2183C39.5671 29.4813 39.8372 29.8527 40.0302 30.3245C40.2231 30.8042 40.3157 31.3766 40.3157 32.0496C40.3157 32.6453 40.2231 33.1559 40.0302 33.5813C39.8372 34.0068 39.5671 34.3394 39.2198 34.5793C38.8725 34.8191 38.4558 34.9351 37.9773 34.9351ZM38.5484 33.326C38.7954 33.326 39.0037 33.2642 39.1812 33.1404C39.3587 33.0244 39.4977 32.8619 39.5903 32.653C39.6829 32.4442 39.7292 32.2121 39.7292 31.9491C39.7292 31.6706 39.6829 31.4308 39.5825 31.2219C39.4822 31.013 39.351 30.8506 39.1735 30.7345C38.996 30.6185 38.7799 30.5643 38.533 30.5643C38.286 30.5643 38.0854 30.6185 37.9002 30.7345C37.7149 30.8506 37.5683 31.013 37.468 31.2219C37.3677 31.4308 37.3059 31.6706 37.2982 31.9491C37.3059 32.2121 37.3677 32.4442 37.468 32.653C37.5683 32.8619 37.7149 33.0244 37.9079 33.1404C38.0931 33.2642 38.3092 33.326 38.5484 33.326ZM43.0477 35.1672V26.503H44.977V35.1672H43.0477ZM47.0221 35.1672V31.9955H48.9515V35.1672H47.0221ZM47.0221 31.9955C47.0221 31.6628 46.9835 31.4076 46.9141 31.2142C46.8446 31.0208 46.7366 30.8738 46.5899 30.7887C46.451 30.6959 46.289 30.6417 46.096 30.634C45.7256 30.634 45.4478 30.7345 45.2625 30.9434C45.0696 31.1523 44.977 31.4694 44.977 31.9027H44.3982C44.3982 31.2451 44.4985 30.6881 44.6915 30.2317C44.8844 29.7753 45.1545 29.4272 45.5018 29.1874C45.8414 28.9476 46.2349 28.8315 46.6825 28.8315C47.1842 28.8315 47.6009 28.9321 47.9405 29.1332C48.2723 29.3344 48.527 29.6438 48.6968 30.0538C48.8666 30.4638 48.9515 30.9976 48.9515 31.6396V31.9955H47.0221ZM7.25439 47.5445V38.8804H10.65C11.2752 38.8804 11.8308 39.0042 12.317 39.2594C12.8032 39.5147 13.1814 39.8551 13.4592 40.296C13.7293 40.737 13.8682 41.2553 13.8682 41.8355C13.8682 42.4157 13.737 42.9185 13.4669 43.3672C13.1968 43.8159 12.8264 44.1717 12.3479 44.427C11.8771 44.6823 11.3292 44.806 10.7118 44.806H9.23776V47.5445H7.25439ZM9.23776 42.9804H10.6578C11.0128 42.9804 11.2983 42.8721 11.5144 42.6632C11.7228 42.4544 11.8308 42.1759 11.8308 41.8355C11.8308 41.4951 11.715 41.2244 11.4912 41.0155C11.2674 40.8066 10.9665 40.6983 10.596 40.6983H9.23776V42.9804ZM17.4645 47.6915C16.824 47.6915 16.2529 47.5523 15.759 47.2815C15.265 47.003 14.8792 46.624 14.6014 46.1366C14.3158 45.6493 14.1769 45.0845 14.1769 44.4502C14.1769 43.8159 14.3158 43.2434 14.6014 42.756C14.8869 42.2687 15.2805 41.8896 15.7744 41.6189C16.2683 41.3481 16.8394 41.2089 17.4877 41.2089C18.0742 41.2089 18.599 41.3481 19.0697 41.6266C19.5405 41.9128 19.9109 42.3306 20.1887 42.8798C20.4589 43.4291 20.5978 44.1176 20.5978 44.9453H15.9596L16.168 44.7132C16.168 44.9917 16.222 45.2393 16.3378 45.4559C16.4535 45.6647 16.6156 45.8272 16.824 45.9432C17.0323 46.0515 17.2561 46.1057 17.5108 46.1057C17.8118 46.1057 18.0742 46.036 18.2825 45.9045C18.4909 45.773 18.6375 45.6028 18.7224 45.394L20.428 45.9742C20.2659 46.361 20.0267 46.6859 19.7257 46.9411C19.4247 47.1964 19.0852 47.3821 18.6993 47.5059C18.3134 47.6296 17.9044 47.6915 17.4645 47.6915ZM16.2143 43.9087L16.0214 43.6611H18.7842L18.6144 43.9087C18.6144 43.5993 18.5527 43.3517 18.4292 43.1738C18.3057 42.9959 18.1514 42.8644 17.9661 42.787C17.7886 42.7096 17.6034 42.671 17.4259 42.671C17.2484 42.671 17.0632 42.7096 16.878 42.787C16.6928 42.8644 16.5384 42.9959 16.4072 43.1738C16.276 43.3517 16.2143 43.5993 16.2143 43.9087ZM22.8358 44.3419C22.8358 43.6689 22.967 43.1119 23.2371 42.671C23.5072 42.2223 23.8391 41.8896 24.2481 41.6653C24.6571 41.441 25.0816 41.3327 25.5292 41.3327V43.2125C25.151 43.2125 24.7883 43.2511 24.4565 43.3362C24.1246 43.4213 23.8545 43.5451 23.6461 43.7153C23.4378 43.8855 23.3374 44.1021 23.3374 44.3651L22.8358 44.3419ZM21.4235 47.5445V41.3559H23.3452V47.5445H21.4235ZM26.9492 47.5445V40.7834C26.9492 40.1104 27.1267 39.5766 27.474 39.1898C27.829 38.803 28.3769 38.6096 29.11 38.6096C29.3802 38.6096 29.658 38.656 29.959 38.7489C30.2599 38.8494 30.5146 38.9577 30.723 39.0815L30.0053 40.443C29.9049 40.3734 29.8123 40.327 29.712 40.296C29.6117 40.2728 29.5268 40.2574 29.4419 40.2574C29.2412 40.2574 29.0946 40.327 29.0097 40.4585C28.9171 40.59 28.8708 40.8143 28.8708 41.1315V47.5445H26.9492ZM25.9691 42.8798V41.3559H30.2677V42.8798H25.9691ZM34.1109 47.6915C33.4549 47.6915 32.8839 47.5523 32.3899 47.2815C31.896 47.003 31.5102 46.624 31.2246 46.1366C30.9391 45.6493 30.8002 45.0845 30.8002 44.4502C30.8002 43.8159 30.9391 43.2511 31.2092 42.7638C31.487 42.2764 31.8729 41.8974 32.3745 41.6189C32.8761 41.3481 33.4395 41.2089 34.0723 41.2089C34.7206 41.2089 35.2917 41.3481 35.7933 41.6189C36.2949 41.8974 36.6808 42.2764 36.9509 42.7638C37.2287 43.2511 37.3677 43.8159 37.3677 44.4502C37.3677 45.0845 37.2287 45.6493 36.9509 46.1366C36.6808 46.624 36.2949 47.003 35.801 47.2815C35.3071 47.5523 34.7437 47.6915 34.1109 47.6915ZM34.1109 45.9123C34.3579 45.9123 34.574 45.8504 34.7669 45.7266C34.9598 45.6028 35.1142 45.4327 35.2222 45.2083C35.338 44.9917 35.392 44.7364 35.392 44.4502C35.392 44.164 35.338 43.9087 35.2222 43.6921C35.1142 43.4677 34.9598 43.2976 34.7592 43.1738C34.5662 43.05 34.3347 42.9881 34.08 42.9881C33.8254 42.9881 33.6016 43.05 33.4009 43.1738C33.208 43.2976 33.0536 43.4677 32.9379 43.6921C32.8298 43.9087 32.7758 44.164 32.7758 44.4502C32.7758 44.7364 32.8298 44.9917 32.9379 45.2083C33.0536 45.4327 33.208 45.6028 33.4086 45.7266C33.6093 45.8504 33.8408 45.9123 34.1109 45.9123ZM39.7292 44.3419C39.7292 43.6689 39.8604 43.1119 40.1305 42.671C40.4006 42.2223 40.7324 41.8896 41.1415 41.6653C41.5505 41.441 41.9749 41.3327 42.4148 41.3327V43.2125C42.0367 43.2125 41.6817 43.2511 41.3498 43.3362C41.018 43.4213 40.7479 43.5451 40.5395 43.7153C40.3311 43.8855 40.2308 44.1021 40.2308 44.3651L39.7292 44.3419ZM38.3169 47.5445V41.3559H40.2385V47.5445H38.3169ZM43.2252 47.5445V41.3559H45.0465L45.1159 42.1372C45.3166 41.8355 45.5635 41.6034 45.8491 41.441C46.1423 41.2862 46.4665 41.2089 46.8215 41.2089C47.3308 41.2089 47.7553 41.3172 48.0871 41.526C48.419 41.7349 48.6659 42.0521 48.8203 42.4853C49.0132 42.0753 49.2679 41.7581 49.5997 41.5338C49.9316 41.3172 50.302 41.2089 50.711 41.2089C51.4519 41.2089 52.0075 41.4332 52.3857 41.8896C52.7638 42.3461 52.9413 43.05 52.9336 44.0015V47.5445H51.0043V44.3728C51.0043 44.0402 50.9734 43.7849 50.904 43.5915C50.8345 43.3981 50.7342 43.2511 50.603 43.166C50.4718 43.0732 50.3097 43.0191 50.1322 43.0113C49.7772 43.0113 49.5071 43.1119 49.3219 43.3208C49.1367 43.5296 49.0441 43.8468 49.0441 44.28V47.5445H47.1147V44.3728C47.1147 44.0402 47.0838 43.7849 47.0144 43.5915C46.9449 43.3981 46.8446 43.2511 46.7134 43.166C46.5822 43.0732 46.4202 43.0191 46.2427 43.0113C45.8877 43.0113 45.6175 43.1119 45.4323 43.3208C45.2471 43.5296 45.1545 43.8468 45.1545 44.28V47.5445H43.2252ZM57.0702 47.6915C56.4296 47.6915 55.8585 47.5523 55.3646 47.2815C54.8707 47.003 54.4848 46.624 54.207 46.1366C53.9215 45.6493 53.7825 45.0845 53.7825 44.4502C53.7825 43.8159 53.9292 43.2434 54.2147 42.756C54.5003 42.2687 54.8861 41.8896 55.38 41.6189C55.874 41.3481 56.445 41.2089 57.0933 41.2089C57.6798 41.2089 58.2046 41.3481 58.6754 41.6266C59.1461 41.9128 59.5166 42.3306 59.7944 42.8798C60.0645 43.4291 60.2034 44.1176 60.2034 44.9453H55.5653L55.7736 44.7132C55.7736 44.9917 55.8277 45.2393 55.9434 45.4559C56.0592 45.6647 56.2212 45.8272 56.4296 45.9432C56.638 46.0515 56.8618 46.1057 57.1165 46.1057C57.4252 46.1057 57.6798 46.036 57.8882 45.9045C58.0966 45.773 58.2432 45.6028 58.3281 45.394L60.0336 45.9742C59.8716 46.361 59.64 46.6859 59.3391 46.9411C59.0381 47.1964 58.6908 47.3821 58.3049 47.5059C57.9191 47.6296 57.51 47.6915 57.0702 47.6915ZM55.8199 43.9087L55.627 43.6611H58.3898L58.22 43.9087C58.22 43.5993 58.1583 43.3517 58.0348 43.1738C57.9113 42.9959 57.757 42.8644 57.5795 42.787C57.3943 42.7096 57.2091 42.671 57.0316 42.671C56.8541 42.671 56.6688 42.7096 56.4836 42.787C56.2984 42.8644 56.1441 42.9959 56.0129 43.1738C55.8817 43.3517 55.8199 43.5993 55.8199 43.9087ZM62.4415 44.3419C62.4415 43.6689 62.5727 43.1119 62.8428 42.671C63.1129 42.2223 63.4447 41.8896 63.8537 41.6653C64.2628 41.441 64.6872 41.3327 65.1348 41.3327V43.2125C64.7567 43.2125 64.394 43.2511 64.0621 43.3362C63.7303 43.4213 63.4679 43.5451 63.2595 43.7153C63.0511 43.8855 62.9508 44.1021 62.9508 44.3651L62.4415 44.3419ZM61.0137 47.5445V41.3559H62.9431V47.5445H61.0137Z" fill="black"/>
<path d="M21.5083 55.5743V52.596H23.3836V53.1221H22.0871V53.8028H23.2061V54.3211H22.0871V55.0406H23.4068V55.5743H21.5083ZM24.4409 55.5743V52.596H25.0429L26.4937 54.5919V52.596H27.0725V55.5743H26.4937L25.0197 53.5321V55.5743H24.4409ZM28.7704 55.5743V53.1221H27.8829V52.596H30.2444V53.1221H29.3569V55.5743H28.7704ZM31.047 55.5743V52.596H32.93V53.1221H31.6258V53.8028H32.7525V54.3211H31.6258V55.0406H32.9455V55.5743H31.047ZM33.9719 55.5743V52.596H35.0755C35.2838 52.596 35.4691 52.6347 35.6311 52.7121C35.7932 52.7972 35.9167 52.9055 36.0093 53.0524C36.1019 53.1994 36.1482 53.3619 36.1482 53.5553C36.1482 53.7487 36.1019 53.9034 36.0016 54.0504C35.909 54.1973 35.7778 54.3134 35.6157 54.3907C35.4536 54.4758 35.2607 54.5145 35.0523 54.5145H34.5507V55.5743H33.9719ZM35.608 55.5743L34.9211 54.3753L35.361 54.0581L36.264 55.5743H35.608ZM34.5507 53.9807H35.0832C35.1681 53.9807 35.2453 53.9653 35.3147 53.9266C35.3842 53.8879 35.4459 53.8415 35.4845 53.7719C35.5231 53.71 35.5385 53.6404 35.5385 53.5553C35.5385 53.4238 35.4922 53.3232 35.4073 53.2458C35.3147 53.1607 35.199 53.1221 35.0523 53.1221H34.5507V53.9807ZM37.136 55.5743V52.596H38.2396C38.448 52.596 38.6332 52.6347 38.7953 52.7198C38.9573 52.8049 39.0808 52.9209 39.1734 53.0679C39.2583 53.2149 39.3046 53.3928 39.3046 53.5862C39.3046 53.7796 39.2583 53.9498 39.1734 54.0968C39.0885 54.2438 38.965 54.3675 38.8184 54.4526C38.6641 54.5377 38.4866 54.5841 38.2859 54.5841H37.7148V55.5743H37.136ZM37.7148 54.0504H38.2705C38.4017 54.0504 38.5097 54.0039 38.5946 53.9189C38.6795 53.8338 38.7181 53.7177 38.7181 53.5862C38.7181 53.4547 38.6718 53.3387 38.5792 53.2536C38.4866 53.1685 38.3708 53.1221 38.2242 53.1221H37.7148V54.0504ZM40.1149 55.5743V52.596H41.2185C41.4269 52.596 41.6121 52.6347 41.7742 52.7121C41.9362 52.7972 42.0674 52.9055 42.1523 53.0524C42.2449 53.1994 42.2912 53.3619 42.2912 53.5553C42.2912 53.7487 42.2449 53.9034 42.1523 54.0504C42.052 54.1973 41.9208 54.3134 41.7587 54.3907C41.5967 54.4758 41.4115 54.5145 41.2031 54.5145H40.7015V55.5743H40.1149ZM41.751 55.5743L41.0642 54.3753L41.5118 54.0581L42.407 55.5743H41.751ZM40.7015 53.9807H41.2262C41.3111 53.9807 41.3883 53.9653 41.4578 53.9266C41.5272 53.8879 41.589 53.8415 41.6275 53.7719C41.6661 53.71 41.6893 53.6404 41.6893 53.5553C41.6893 53.4238 41.643 53.3232 41.5504 53.2458C41.4578 53.1607 41.342 53.1221 41.1954 53.1221H40.7015V53.9807ZM43.2791 55.5743V52.596H43.8579V55.5743H43.2791ZM45.9261 55.6207C45.7795 55.6207 45.6406 55.6053 45.5094 55.5666C45.3782 55.5279 45.2624 55.4815 45.1621 55.4119C45.0618 55.3422 44.9769 55.2726 44.9074 55.1875C44.838 55.1024 44.7994 55.0173 44.7762 54.9245L45.3473 54.7543C45.3859 54.8549 45.4476 54.94 45.5403 55.0096C45.6329 55.0792 45.7486 55.1102 45.8953 55.1179C46.0419 55.1179 46.1654 55.087 46.258 55.0173C46.3583 54.9477 46.4046 54.8626 46.4046 54.7543C46.4046 54.6615 46.366 54.5841 46.2888 54.5145C46.2194 54.4526 46.1113 54.4062 45.9801 54.3675L45.5943 54.267C45.4476 54.2283 45.3242 54.1741 45.2161 54.0968C45.1004 54.0272 45.0155 53.9343 44.9537 53.8183C44.892 53.71 44.8611 53.5785 44.8611 53.4315C44.8611 53.153 44.9537 52.9364 45.139 52.7739C45.3242 52.6192 45.5866 52.5419 45.9261 52.5419C46.1191 52.5419 46.2811 52.5728 46.4278 52.627C46.5744 52.6811 46.6901 52.7585 46.7828 52.859C46.8831 52.9596 46.9525 53.0834 47.0066 53.2226L46.4432 53.3928C46.4046 53.3 46.3429 53.2226 46.258 53.153C46.1654 53.0834 46.0496 53.0447 45.9107 53.0447C45.7718 53.0447 45.6637 53.0756 45.5788 53.1453C45.494 53.2149 45.4554 53.3077 45.4554 53.4238C45.4554 53.5166 45.4862 53.5862 45.5557 53.6404C45.6174 53.6945 45.7023 53.7409 45.8104 53.7641L46.204 53.8647C46.4586 53.9266 46.6593 54.0349 46.7982 54.1973C46.9448 54.3598 47.0143 54.5455 47.0143 54.7389C47.0143 54.9168 46.968 55.0715 46.8831 55.203C46.7982 55.3345 46.6747 55.4428 46.5126 55.5124C46.3506 55.5821 46.1576 55.6207 45.9261 55.6207ZM47.9249 55.5743V52.596H49.808V53.1221H48.5037V53.8028H49.6228V54.3211H48.5037V55.0406H49.8234V55.5743H47.9249Z" fill="black"/>
<path d="M54.7935 0H71V16.2453H54.7935V0Z" fill="#FF492C"/>
<mask id="mask0_754_9758" style="mask-type:luminance" maskUnits="userSpaceOnUse" x="54" y="0" width="17" height="17">
<path d="M71 0H54.7935V16.2453H71V0Z" fill="white"/>
</mask>
<g mask="url(#mask0_754_9758)">
<path fill-rule="evenodd" clip-rule="evenodd" d="M66.408 6.21961H65.0266C65.0652 6.00301 65.1964 5.87924 65.4665 5.73999L65.7212 5.60848C66.1765 5.37641 66.4235 5.11339 66.4235 4.68018C66.4312 4.4249 66.3154 4.18509 66.1071 4.03811C65.8987 3.88339 65.6517 3.80603 65.3662 3.80603C65.1424 3.80603 64.9263 3.86792 64.7334 3.98395C64.5559 4.09226 64.4092 4.24697 64.3166 4.44037L64.7179 4.84263C64.8723 4.52546 65.0961 4.37075 65.3971 4.37075C65.644 4.37075 65.8061 4.50226 65.8061 4.68018C65.8061 4.8349 65.7289 4.95867 65.4434 5.10565L65.2813 5.18301C64.9263 5.36094 64.6793 5.5698 64.5404 5.80188C64.4015 6.03395 64.3243 6.32792 64.3243 6.68377V6.7766H66.4235V6.20414L66.408 6.21961ZM66.2228 7.45735H63.9307L62.7886 9.44546H65.0806L66.2228 11.4336L67.365 9.44546L66.2228 7.45735Z" fill="white"/>
<path fill-rule="evenodd" clip-rule="evenodd" d="M62.9814 10.776C61.5228 10.776 60.3344 9.58469 60.3344 8.12261C60.3344 6.66053 61.5228 5.46921 62.9814 5.46921L63.8843 3.5662C61.3762 3.06336 58.9375 4.69563 58.4359 7.20978C58.3741 7.51148 58.3433 7.81318 58.3433 8.12261C58.3433 10.6832 60.4192 12.7641 62.9737 12.7641C63.9538 12.7641 64.9108 12.4547 65.7057 11.8745L64.7024 10.1339C64.2239 10.5517 63.6142 10.776 62.9737 10.776H62.9814Z" fill="white"/>
<path d="M55.1714 0.518311V15.8894" stroke="black" stroke-width="1.09"/>
</g>
<path d="M0 64.6098V59.5815L35.5 77.4049L71 59.5815V64.6098L35.5 82L0 64.6098Z" fill="#EE4288"/>
<path d="M0 60.0069V54.9786L35.5 72.802L71 54.9786V60.0069L35.5 77.3971L0 60.0069Z" fill="white"/>
<path d="M0 55.4118V50.3835L35.5 68.2069L71 50.3835V55.4118L35.5 72.802L0 55.4118Z" fill="white"/>
<path d="M70.6679 15.8817H0.48596M70.583 64.2075L35.4998 81.5358L0.416504 64.2075V0.417725H70.5753V64.1998L70.583 64.2075Z" stroke="black" stroke-width="1.09"/>
</g>
<defs>
<clipPath id="clip0_754_9758">
<rect width="71" height="82" fill="white"/>
</clipPath>
</defs>
</svg>
