<svg width="71" height="82" viewBox="0 0 71 82" fill="none" xmlns="http://www.w3.org/2000/svg">
<g clip-path="url(#clip0_754_9778)">
<path d="M0 64.4628L35.5 82L71 64.4628V0H0V64.4628Z" fill="white"/>
<path d="M0 64.4628L35.5 82L71 64.4628V0H0V64.4628Z" fill="white"/>
<path d="M12.7026 7.12472V3.33415H15.1259V4.00717H13.4435V4.92H14.8481V5.60075H13.4435V7.12472H12.7026ZM18.8534 7.12472L17.4025 3.33415H18.1434L19.6406 7.12472H18.8534ZM15.8668 7.12472L17.3562 3.33415H18.0971L16.6462 7.12472H15.8668ZM16.569 6.28924V5.6317H18.9383V6.28924H16.569ZM20.6284 7.12472V3.33415H21.3693V6.4517H23.0362V7.12472H20.6284ZM24.0704 7.12472V3.33415H24.8112V6.4517H26.4782V7.12472H24.0704ZM29.2101 7.12472V6.57547C29.2101 6.4749 29.241 6.35887 29.3105 6.23509C29.3722 6.10358 29.4648 5.97981 29.5806 5.85604C29.6963 5.72453 29.8275 5.60849 29.9819 5.50019L30.5607 5.09019C30.6379 5.03604 30.715 4.97415 30.7845 4.90453C30.8539 4.8349 30.908 4.76528 30.9543 4.68019C31.0006 4.59509 31.0237 4.51773 31.0237 4.44811C31.0237 4.34755 31.0006 4.26245 30.9543 4.19283C30.908 4.11547 30.8385 4.05358 30.7536 4.0149C30.6687 3.96849 30.5684 3.94528 30.4372 3.94528C30.3292 3.94528 30.2365 3.96849 30.1517 4.0149C30.0668 4.05358 29.9973 4.11547 29.9433 4.18509C29.8893 4.25472 29.8507 4.33207 29.8275 4.41717L29.0635 4.28566C29.1021 4.10773 29.1793 3.93755 29.295 3.78283C29.4185 3.62811 29.5729 3.50434 29.7658 3.40377C29.9587 3.31094 30.1748 3.26453 30.4218 3.26453C30.7073 3.26453 30.9466 3.31868 31.1472 3.41924C31.3479 3.51981 31.5022 3.65132 31.6102 3.82924C31.726 4.00717 31.78 4.2083 31.78 4.44038C31.78 4.67245 31.7183 4.88132 31.5871 5.06698C31.4559 5.2449 31.2861 5.41509 31.0623 5.57755L30.5452 5.94887C30.4449 6.01849 30.3523 6.10358 30.2751 6.18868C30.198 6.27377 30.1439 6.37434 30.1054 6.4749H31.8263V7.12472H29.2101ZM34.3576 7.1866C34.0489 7.1866 33.7788 7.10151 33.5473 6.93905C33.3081 6.76887 33.1229 6.53679 32.9917 6.24283C32.8605 5.94887 32.791 5.60849 32.791 5.22943C32.791 4.85038 32.8605 4.51 32.9917 4.21604C33.1229 3.92207 33.3081 3.69 33.5396 3.51981C33.7711 3.35736 34.0412 3.27226 34.3499 3.27226C34.6586 3.27226 34.921 3.35736 35.1602 3.51981C35.3995 3.69 35.5847 3.92207 35.7159 4.21604C35.8471 4.51 35.9166 4.85038 35.9166 5.22943C35.9166 5.60849 35.8471 5.94887 35.7159 6.24283C35.5847 6.53679 35.3995 6.76887 35.168 6.93905C34.9287 7.10151 34.6586 7.1866 34.3576 7.1866ZM34.3576 6.52132C34.5197 6.52132 34.6586 6.46717 34.7898 6.35113C34.921 6.24283 35.0213 6.08811 35.0908 5.89472C35.1602 5.70132 35.1988 5.48472 35.1988 5.22943C35.1988 4.97415 35.1602 4.74981 35.0908 4.55641C35.0213 4.36302 34.921 4.2083 34.7898 4.1C34.6586 3.9917 34.512 3.93755 34.3499 3.93755C34.1879 3.93755 34.0412 3.9917 33.9177 4.1C33.7866 4.2083 33.6939 4.36302 33.6245 4.55641C33.555 4.74981 33.5164 4.97415 33.5164 5.22943C33.5164 5.48472 33.555 5.70132 33.6245 5.89472C33.6939 6.08811 33.7866 6.24283 33.9177 6.35113C34.0489 6.46717 34.1956 6.52132 34.3576 6.52132ZM36.9198 7.12472V6.57547C36.9198 6.4749 36.9507 6.35887 37.0201 6.23509C37.0819 6.10358 37.1745 5.97981 37.2902 5.85604C37.406 5.72453 37.5372 5.60849 37.6916 5.50019L38.2626 5.09019C38.3475 5.03604 38.4247 4.97415 38.4942 4.90453C38.5636 4.8349 38.6176 4.76528 38.6639 4.68019C38.7102 4.59509 38.7334 4.51773 38.7334 4.44811C38.7334 4.34755 38.7102 4.26245 38.6639 4.19283C38.6176 4.11547 38.5482 4.05358 38.4633 4.0149C38.3784 3.96849 38.2781 3.94528 38.1469 3.94528C38.0388 3.94528 37.9462 3.96849 37.8613 4.0149C37.7764 4.05358 37.707 4.11547 37.653 4.18509C37.5989 4.25472 37.5604 4.33207 37.5372 4.41717L36.7732 4.28566C36.8118 4.10773 36.8889 3.93755 37.0047 3.78283C37.1205 3.62811 37.2825 3.50434 37.4755 3.40377C37.6684 3.31094 37.8845 3.26453 38.1314 3.26453C38.417 3.26453 38.6562 3.31868 38.8569 3.41924C39.0575 3.51981 39.2119 3.65132 39.3199 3.82924C39.4357 4.00717 39.4897 4.2083 39.4897 4.44038C39.4897 4.67245 39.428 4.88132 39.2968 5.06698C39.1656 5.2449 38.9958 5.41509 38.772 5.57755L38.2549 5.94887C38.1546 6.01849 38.062 6.10358 37.9848 6.18868C37.9076 6.27377 37.8536 6.37434 37.815 6.4749H39.536V7.12472H36.9198ZM41.8975 7.1866C41.72 7.1866 41.5425 7.15566 41.365 7.10151C41.1875 7.04736 41.0177 6.96226 40.8711 6.84623C40.7245 6.73019 40.6242 6.58321 40.5547 6.41302L41.2261 6.21188C41.3033 6.32792 41.3959 6.41302 41.5117 6.46717C41.6197 6.52132 41.7355 6.55226 41.8512 6.55226C42.0442 6.55226 42.1908 6.49811 42.3066 6.38207C42.4223 6.26604 42.484 6.11905 42.484 5.92566C42.484 5.74773 42.43 5.59302 42.3143 5.47698C42.1985 5.36094 42.0519 5.29905 41.8667 5.29905C41.7509 5.29905 41.6506 5.32226 41.558 5.37641C41.4654 5.43056 41.3959 5.48471 41.3419 5.55434L40.6782 5.40736L40.902 3.33415H43.0397V4.00717H41.5348L41.4268 4.91226C41.5271 4.85811 41.6351 4.81943 41.7509 4.78075C41.8667 4.74981 41.9979 4.73434 42.1368 4.73434C42.3451 4.73434 42.5304 4.78849 42.6924 4.88906C42.8622 4.98962 43.0011 5.12113 43.1014 5.29132C43.2018 5.46151 43.2481 5.66264 43.2481 5.88698C43.2481 6.14226 43.1863 6.37434 43.0706 6.56773C42.9548 6.76113 42.8005 6.91585 42.5998 7.02415C42.3992 7.13245 42.1676 7.1866 41.8975 7.1866ZM20.0496 12.5398V8.74924H22.442V9.42226H20.7905V10.2887H22.2182V10.9462H20.7905V11.8668H22.4651V12.5398H20.0496ZM23.7617 12.5398V8.74924H24.572L25.6679 10.3815L26.7714 8.74924H27.574V12.5398H26.8409V9.90962L25.6679 11.627L24.5025 9.91736V12.5398H23.7617ZM28.9323 12.5398V8.74924H31.3247V9.42226H29.6732V10.2887H31.1009V10.9462H29.6732V11.8668H31.3479V12.5398H28.9323ZM35.276 12.5398L33.8251 8.74924H34.566L36.0632 12.5398H35.276ZM32.2971 12.5398L33.7865 8.74924H34.5274L33.0766 12.5398H32.2971ZM32.9994 11.7043V11.0545H35.3686V11.7043H32.9994Z" fill="black"/>
<path d="M11.6919 35.1672V26.503H15.0875C15.7127 26.503 16.2683 26.6268 16.7545 26.8666C17.2407 27.1064 17.6189 27.4468 17.8967 27.88C18.1745 28.3132 18.3134 28.8083 18.3134 29.373C18.3134 29.9377 18.1745 30.4328 17.889 30.8738C17.6111 31.3147 17.2253 31.6551 16.7391 31.8949C16.2452 32.1347 15.6818 32.2585 15.049 32.2585H13.683V35.1672H11.6919ZM16.3841 35.1672L14.4316 31.7247L15.9287 30.6262L18.653 35.1672H16.3841ZM13.683 30.4251H15.0258C15.2573 30.4251 15.4657 30.3787 15.6432 30.2936C15.8207 30.2008 15.9673 30.077 16.0677 29.9145C16.168 29.7521 16.222 29.5742 16.222 29.373C16.222 29.0713 16.1062 28.816 15.8824 28.6227C15.6586 28.4215 15.3577 28.321 14.9872 28.321H13.683V30.4251ZM22.5117 35.3142C21.8711 35.3142 21.3 35.1749 20.8061 34.9042C20.3122 34.6257 19.9264 34.2466 19.6485 33.7593C19.3707 33.2719 19.2318 32.7072 19.2318 32.0728C19.2318 31.4385 19.3707 30.866 19.6562 30.3787C19.9418 29.8913 20.3277 29.5123 20.8216 29.2415C21.3155 28.9708 21.8866 28.8315 22.5348 28.8315C23.1214 28.8315 23.6461 28.9708 24.1169 29.2493C24.5877 29.5355 24.9581 29.9532 25.2359 30.5025C25.5137 31.0517 25.6527 31.7402 25.6527 32.5679H21.0068L21.2152 32.3359C21.2152 32.6143 21.2769 32.8619 21.3927 33.0785C21.5084 33.2874 21.6628 33.4498 21.8711 33.5659C22.0795 33.6742 22.311 33.7283 22.5657 33.7283C22.8667 33.7283 23.1291 33.6587 23.3374 33.5272C23.5458 33.3957 23.6847 33.2255 23.7696 33.0166L25.4752 33.5968C25.3131 33.9836 25.0816 34.3085 24.7806 34.5638C24.4796 34.8191 24.1323 35.0047 23.7465 35.1285C23.3606 35.2523 22.9516 35.3142 22.5117 35.3142ZM21.2769 31.5313L21.0762 31.2838H23.8391L23.6693 31.5313C23.6693 31.2219 23.6075 30.9744 23.4841 30.7964C23.3606 30.6185 23.2062 30.487 23.0287 30.4096C22.8512 30.3323 22.666 30.2936 22.4808 30.2936C22.2956 30.2936 22.1181 30.3323 21.9329 30.4096C21.7477 30.487 21.5933 30.6185 21.4621 30.7964C21.3386 30.9744 21.2769 31.2219 21.2769 31.5313ZM29.3879 37.8128C28.8862 37.8128 28.4464 37.7819 28.0682 37.72C27.6978 37.6504 27.3814 37.5653 27.1112 37.457C26.8489 37.3487 26.6328 37.2327 26.463 37.1011L27.2116 35.5617C27.3428 35.6159 27.5048 35.6932 27.6823 35.7783C27.8598 35.8634 28.0836 35.9408 28.346 36.0104C28.6161 36.08 28.9325 36.111 29.303 36.111C29.5885 36.111 29.8509 36.0568 30.0747 35.9408C30.2985 35.8247 30.476 35.6545 30.5995 35.4225C30.7307 35.1827 30.7924 34.8887 30.7924 34.5328V28.9785H32.7218V34.4632C32.7218 35.1517 32.5906 35.7551 32.3282 36.2579C32.0581 36.7608 31.6799 37.1398 31.186 37.4106C30.6921 37.6813 30.0902 37.8128 29.3879 37.8128ZM28.9325 34.9351C28.3537 34.9351 27.8598 34.8191 27.4431 34.5793C27.0341 34.3394 26.7099 34.0068 26.4861 33.5736C26.2623 33.1327 26.1466 32.6144 26.1466 32.011C26.1466 31.3534 26.2623 30.7887 26.4861 30.3168C26.7099 29.8449 27.0341 29.4813 27.4431 29.2183C27.8598 28.963 28.3537 28.8315 28.9325 28.8315C29.411 28.8315 29.8278 28.963 30.175 29.2183C30.5223 29.4813 30.7924 29.8527 30.9854 30.3245C31.1783 30.8042 31.2709 31.3766 31.2709 32.0496C31.2709 32.6453 31.1783 33.1559 30.9854 33.5813C30.7924 34.0068 30.5223 34.3394 30.175 34.5793C29.8278 34.8191 29.411 34.9351 28.9325 34.9351ZM29.5114 33.326C29.7583 33.326 29.9667 33.2642 30.1442 33.1404C30.3217 33.0244 30.4606 32.8619 30.5532 32.653C30.6458 32.4442 30.6921 32.2121 30.6921 31.9491C30.6921 31.6706 30.6458 31.4308 30.5455 31.2219C30.4452 31.013 30.314 30.8506 30.1365 30.7345C29.959 30.6185 29.7429 30.5643 29.4959 30.5643C29.249 30.5643 29.0483 30.6185 28.8631 30.7345C28.6779 30.8506 28.5312 31.013 28.4309 31.2219C28.3306 31.4308 28.2689 31.6706 28.2611 31.9491C28.2689 32.2121 28.3306 32.4442 28.4309 32.653C28.5312 32.8619 28.6779 33.0244 28.8708 33.1404C29.056 33.2642 29.2721 33.326 29.5114 33.326ZM34.0878 35.1672V28.9785H36.0171V35.1672H34.0878ZM35.0524 28.1894C34.7669 28.1894 34.5122 28.0811 34.2961 27.8568C34.0723 27.6402 33.9643 27.3849 33.9643 27.0987C33.9643 26.797 34.0723 26.534 34.2961 26.3251C34.5122 26.1162 34.7669 26.0079 35.0524 26.0079C35.338 26.0079 35.6081 26.1162 35.8165 26.3251C36.0325 26.534 36.1406 26.797 36.1406 27.0987C36.1406 27.4004 36.0325 27.6402 35.8165 27.8568C35.6081 28.0811 35.3534 28.1894 35.0524 28.1894ZM40.3774 35.3142C39.7215 35.3142 39.1504 35.1749 38.6565 34.9042C38.1625 34.6257 37.7767 34.2466 37.4911 33.7593C37.2056 33.2719 37.0667 32.7072 37.0667 32.0728C37.0667 31.4385 37.2056 30.8738 37.4834 30.3864C37.7535 29.8991 38.1394 29.52 38.641 29.2415C39.1427 28.9708 39.706 28.8315 40.3389 28.8315C40.9717 28.8315 41.5582 28.9708 42.0598 29.2415C42.5615 29.52 42.9473 29.8991 43.2252 30.3864C43.4953 30.8738 43.6342 31.4385 43.6342 32.0728C43.6342 32.7072 43.4953 33.2719 43.2252 33.7593C42.9473 34.2466 42.5615 34.6257 42.0675 34.9042C41.5736 35.1749 41.0103 35.3142 40.3774 35.3142ZM40.3774 33.5349C40.6244 33.5349 40.8405 33.473 41.0334 33.3493C41.2263 33.2255 41.3807 33.0553 41.4965 32.831C41.6045 32.6143 41.6585 32.3591 41.6585 32.0728C41.6585 31.7866 41.6045 31.5313 41.4965 31.3147C41.3807 31.0904 41.2263 30.9202 41.0334 30.7964C40.8328 30.6727 40.609 30.6108 40.3543 30.6108C40.0996 30.6108 39.8681 30.6727 39.6752 30.7964C39.4745 30.9202 39.3202 31.0904 39.2121 31.3147C39.0964 31.5313 39.0423 31.7866 39.0423 32.0728C39.0423 32.3591 39.0964 32.6143 39.2121 32.831C39.3202 33.0553 39.4745 33.2255 39.6752 33.3493C39.8835 33.473 40.115 33.5349 40.3774 33.5349ZM44.5757 35.1672V28.9785H46.3893L46.4973 30.1157V35.1672H44.5757ZM48.5502 35.1672V31.9955H50.4795V35.1672H48.5502ZM48.5502 31.9955C48.5502 31.6628 48.5116 31.4076 48.4421 31.2142C48.3649 31.0208 48.2569 30.8738 48.1257 30.7887C47.9868 30.6959 47.817 30.6417 47.6241 30.634C47.2536 30.634 46.9758 30.7345 46.7829 30.9434C46.5899 31.1523 46.4973 31.4694 46.4973 31.9027H45.9185C45.9185 31.2451 46.0188 30.6881 46.2195 30.2317C46.4124 29.7753 46.6825 29.4272 47.0221 29.1874C47.3694 28.9476 47.763 28.8315 48.2183 28.8315C48.7122 28.8315 49.129 28.9321 49.4608 29.1332C49.8004 29.3344 50.055 29.6438 50.2248 30.0538C50.3946 30.4638 50.4795 30.9976 50.4795 31.6396V31.9955H48.5502ZM55.3183 35.1672L55.2643 33.8289V32.0883C55.2643 31.7557 55.2334 31.4694 55.1794 31.2219C55.1254 30.9744 55.0173 30.781 54.8707 30.634C54.7241 30.4947 54.5003 30.4251 54.207 30.4251C53.9755 30.4251 53.7748 30.4793 53.5973 30.5876C53.4275 30.6959 53.2809 30.8428 53.1574 31.0362L51.475 30.4793C51.614 30.1698 51.8069 29.8913 52.0538 29.6438C52.2931 29.3962 52.5941 29.2028 52.9491 29.0559C53.2963 28.9089 53.7131 28.8315 54.1838 28.8315C54.8244 28.8315 55.3646 28.9476 55.8122 29.1874C56.2521 29.4272 56.584 29.7676 56.8078 30.193C57.0316 30.6185 57.1473 31.1291 57.1473 31.717L57.1165 35.1672H55.3183ZM53.6359 35.3142C52.9028 35.3142 52.3394 35.1517 51.9304 34.8191C51.5291 34.4864 51.3284 34.0223 51.3284 33.4189C51.3284 32.7691 51.5368 32.2817 51.9612 31.9645C52.378 31.6396 52.9645 31.4772 53.7208 31.4772H55.4186V32.7149H54.454C54.0449 32.7149 53.744 32.7768 53.5665 32.8928C53.3812 33.0089 53.2886 33.1636 53.2886 33.3725C53.2886 33.5194 53.3581 33.6432 53.497 33.7283C53.6282 33.8134 53.8211 33.8521 54.0604 33.8521C54.2996 33.8521 54.508 33.7979 54.6855 33.6974C54.863 33.5968 55.0096 33.4576 55.1099 33.2874C55.2103 33.1094 55.2643 32.9238 55.2643 32.7149H55.7505C55.7505 33.5427 55.5807 34.177 55.2334 34.6334C54.8861 35.0898 54.3536 35.3142 53.6359 35.3142ZM58.3127 35.1672V26.503H60.2343V35.1672H58.3127ZM16.9166 47.5445V38.8804H18.9077V45.7111H22.5889V47.5445H16.9166ZM26.4012 47.6915C25.7607 47.6915 25.1896 47.5523 24.6957 47.2815C24.2018 47.003 23.8159 46.624 23.5381 46.1366C23.2603 45.6493 23.1214 45.0845 23.1214 44.4502C23.1214 43.8159 23.2603 43.2434 23.5458 42.756C23.8314 42.2687 24.2172 41.8896 24.7111 41.6189C25.205 41.3481 25.7761 41.2089 26.4244 41.2089C27.0109 41.2089 27.5357 41.3481 28.0065 41.6266C28.4772 41.9128 28.8477 42.3306 29.1255 42.8798C29.4033 43.4291 29.5422 44.1176 29.5422 44.9453H24.8963L25.1047 44.7132C25.1047 44.9917 25.1665 45.2393 25.2822 45.4559C25.398 45.6647 25.5523 45.8272 25.7607 45.9432C25.9691 46.0515 26.2006 46.1057 26.4553 46.1057C26.7562 46.1057 27.0186 46.036 27.227 45.9045C27.4354 45.773 27.5743 45.6028 27.6592 45.394L29.3647 45.9742C29.2027 46.361 28.9711 46.6859 28.6702 46.9411C28.3692 47.1964 28.0219 47.3821 27.636 47.5059C27.2502 47.6296 26.8411 47.6915 26.4012 47.6915ZM25.1587 43.9087L24.9581 43.6611H27.7209L27.5511 43.9087C27.5511 43.5993 27.4894 43.3517 27.3659 43.1738C27.2424 42.9959 27.0881 42.8644 26.9106 42.787C26.7331 42.7096 26.5479 42.671 26.3627 42.671C26.1774 42.671 25.9999 42.7096 25.8147 42.787C25.6295 42.8644 25.4752 42.9959 25.344 43.1738C25.2205 43.3517 25.1587 43.5993 25.1587 43.9087ZM34.0183 47.5445L33.972 46.2062V44.4657C33.972 44.133 33.9411 43.8468 33.8871 43.5993C33.8331 43.3517 33.725 43.1583 33.5784 43.0113C33.4318 42.8721 33.208 42.8025 32.907 42.8025C32.6832 42.8025 32.4825 42.8566 32.305 42.9649C32.1275 43.0732 31.9809 43.2202 31.8574 43.4136L30.1828 42.8566C30.3217 42.5472 30.5146 42.2687 30.7539 42.0211C30.9931 41.7736 31.2941 41.5802 31.6491 41.4332C32.0041 41.2862 32.4131 41.2089 32.8839 41.2089C33.5244 41.2089 34.0723 41.3249 34.5122 41.5647C34.9598 41.8045 35.2917 42.1449 35.5155 42.5704C35.7393 42.9959 35.8473 43.5064 35.8473 44.0944L35.8242 47.5445H34.0183ZM32.3436 47.6915C31.6105 47.6915 31.0394 47.5291 30.6381 47.1964C30.2368 46.8638 30.0361 46.3996 30.0361 45.7962C30.0361 45.1464 30.2445 44.6591 30.6612 44.3419C31.0857 44.017 31.6722 43.8545 32.4285 43.8545H34.1186V45.0923H33.154C32.7449 45.0923 32.444 45.1542 32.2665 45.2702C32.089 45.3862 31.9964 45.541 31.9964 45.7498C31.9964 45.8968 32.0658 46.0206 32.197 46.1057C32.3359 46.1908 32.5211 46.2294 32.7604 46.2294C32.9996 46.2294 33.2157 46.1753 33.3932 46.0747C33.5707 45.9742 33.7173 45.8349 33.8177 45.6647C33.918 45.4868 33.972 45.3011 33.972 45.0923H34.4505C34.4505 45.92 34.2807 46.5543 33.9334 47.0108C33.5861 47.4672 33.0614 47.6915 32.3436 47.6915ZM41.3344 47.5445L41.2418 46.3919V38.8804H43.1711V47.5445H41.3344ZM39.4899 47.6915C38.9111 47.6915 38.4172 47.56 38.0005 47.3047C37.5915 47.0417 37.2673 46.6704 37.0435 46.183C36.8197 45.6957 36.704 45.1232 36.704 44.4502C36.704 43.7772 36.8197 43.197 37.0435 42.7096C37.2673 42.23 37.5915 41.8587 38.0005 41.5957C38.4172 41.3404 38.9111 41.2089 39.4899 41.2089C39.9993 41.2089 40.4315 41.3404 40.7787 41.5957C41.126 41.8587 41.3884 42.23 41.5659 42.7096C41.7434 43.197 41.8283 43.7772 41.8283 44.4502C41.8283 45.1232 41.7434 45.6957 41.5659 46.183C41.3884 46.6704 41.126 47.0417 40.7787 47.3047C40.4315 47.56 39.9993 47.6915 39.4899 47.6915ZM39.9993 45.9123C40.2385 45.9123 40.4469 45.8504 40.6398 45.7266C40.8328 45.6028 40.9794 45.4327 41.0874 45.2083C41.1878 44.9917 41.2418 44.7364 41.2418 44.4502C41.2418 44.164 41.1878 43.9087 41.0874 43.6921C40.9794 43.4677 40.8328 43.2976 40.6398 43.1738C40.4469 43.05 40.2308 42.9881 39.9839 42.9881C39.7369 42.9881 39.5208 43.05 39.3279 43.1738C39.1427 43.2976 38.996 43.4677 38.8803 43.6921C38.7645 43.9087 38.7105 44.164 38.7028 44.4502C38.7028 44.7364 38.7645 44.9917 38.8803 45.2083C38.996 45.4327 39.1427 45.6028 39.3356 45.7266C39.5285 45.8504 39.7523 45.9123 39.9993 45.9123ZM47.3925 47.6915C46.752 47.6915 46.1809 47.5523 45.687 47.2815C45.1931 47.003 44.8072 46.624 44.5294 46.1366C44.2516 45.6493 44.1127 45.0845 44.1127 44.4502C44.1127 43.8159 44.2516 43.2434 44.5371 42.756C44.8227 42.2687 45.2085 41.8896 45.7024 41.6189C46.1964 41.3481 46.7674 41.2089 47.4157 41.2089C48.0022 41.2089 48.527 41.3481 48.9978 41.6266C49.4685 41.9128 49.839 42.3306 50.1168 42.8798C50.3946 43.4291 50.5335 44.1176 50.5335 44.9453H45.8877L46.096 44.7132C46.096 44.9917 46.1578 45.2393 46.2735 45.4559C46.3893 45.6647 46.5436 45.8272 46.752 45.9432C46.9604 46.0515 47.1919 46.1057 47.4466 46.1057C47.7475 46.1057 48.0099 46.036 48.2183 45.9045C48.4267 45.773 48.5656 45.6028 48.6505 45.394L50.356 45.9742C50.194 46.361 49.9624 46.6859 49.6615 46.9411C49.3605 47.1964 49.0132 47.3821 48.6273 47.5059C48.2415 47.6296 47.8324 47.6915 47.3925 47.6915ZM46.15 43.9087L45.9494 43.6611H48.7122L48.5424 43.9087C48.5424 43.5993 48.4807 43.3517 48.3572 43.1738C48.2337 42.9959 48.0794 42.8644 47.9019 42.787C47.7244 42.7096 47.5392 42.671 47.354 42.671C47.1687 42.671 46.9912 42.7096 46.806 42.787C46.6208 42.8644 46.4665 42.9959 46.3353 43.1738C46.2118 43.3517 46.15 43.5993 46.15 43.9087ZM52.7639 44.3419C52.7639 43.6689 52.895 43.1119 53.1652 42.671C53.4353 42.2223 53.7671 41.8896 54.1761 41.6653C54.5852 41.441 55.0173 41.3327 55.4572 41.3327V43.2125C55.0791 43.2125 54.7241 43.2511 54.3922 43.3362C54.0604 43.4213 53.7903 43.5451 53.5819 43.7153C53.3735 43.8855 53.2732 44.1021 53.2732 44.3651L52.7639 44.3419ZM51.3438 47.5445V41.3559H53.2732V47.5445H51.3438Z" fill="black"/>
<path d="M54.7935 0H71V16.2453H54.7935V0Z" fill="#FF492C"/>
<mask id="mask0_754_9778" style="mask-type:luminance" maskUnits="userSpaceOnUse" x="54" y="0" width="17" height="17">
<path d="M71 0H54.7935V16.2453H71V0Z" fill="white"/>
</mask>
<g mask="url(#mask0_754_9778)">
<path fill-rule="evenodd" clip-rule="evenodd" d="M66.408 6.21961H65.0266C65.0652 6.00301 65.1964 5.87924 65.4665 5.73999L65.7212 5.60848C66.1765 5.37641 66.4235 5.11339 66.4235 4.68018C66.4312 4.4249 66.3154 4.18509 66.1071 4.03811C65.8987 3.88339 65.6517 3.80603 65.3662 3.80603C65.1424 3.80603 64.9263 3.86792 64.7334 3.98395C64.5559 4.09226 64.4092 4.24697 64.3166 4.44037L64.7179 4.84263C64.8723 4.52546 65.0961 4.37075 65.3971 4.37075C65.644 4.37075 65.8061 4.50226 65.8061 4.68018C65.8061 4.8349 65.7289 4.95867 65.4434 5.10565L65.2813 5.18301C64.9263 5.36094 64.6793 5.5698 64.5404 5.80188C64.4015 6.03395 64.3243 6.32792 64.3243 6.68377V6.7766H66.4235V6.20414L66.408 6.21961ZM66.2228 7.45735H63.9307L62.7886 9.44546H65.0806L66.2228 11.4336L67.365 9.44546L66.2228 7.45735Z" fill="white"/>
<path fill-rule="evenodd" clip-rule="evenodd" d="M62.9814 10.776C61.5228 10.776 60.3344 9.58469 60.3344 8.12261C60.3344 6.66053 61.5228 5.46921 62.9814 5.46921L63.8843 3.5662C61.3762 3.06336 58.9375 4.69563 58.4359 7.20978C58.3741 7.51148 58.3433 7.81318 58.3433 8.12261C58.3433 10.6832 60.4192 12.7641 62.9737 12.7641C63.9538 12.7641 64.9108 12.4547 65.7057 11.8745L64.7024 10.1339C64.2239 10.5517 63.6142 10.776 62.9737 10.776H62.9814Z" fill="white"/>
<path d="M55.1714 0.518311V15.8894" stroke="black" stroke-width="1.09"/>
</g>
<path d="M0 64.6098V59.5815L35.5 77.4049L71 59.5815V64.6098L35.5 82L0 64.6098Z" fill="#EE4288"/>
<path d="M0 60.0069V54.9786L35.5 72.802L71 54.9786V60.0069L35.5 77.3971L0 60.0069Z" fill="white"/>
<path d="M0 55.4118V50.3835L35.5 68.2069L71 50.3835V55.4118L35.5 72.802L0 55.4118Z" fill="white"/>
<path d="M70.6679 15.8817H0.48596M70.583 64.2075L35.4998 81.5358L0.416504 64.2075V0.417725H70.5753V64.1998L70.583 64.2075Z" stroke="black" stroke-width="1.09"/>
</g>
<defs>
<clipPath id="clip0_754_9778">
<rect width="71" height="82" fill="white"/>
</clipPath>
</defs>
</svg>
