<svg width="73" height="82" viewBox="0 0 73 82" fill="none" xmlns="http://www.w3.org/2000/svg">
<path d="M5.58984 63.381L36.0742 78.8934L65.401 63.381V2.72095H5.58984V63.381Z" fill="white"/>
<path d="M66.0181 2.95227L4.97217 64.4613L36.6142 80.128L66.0181 65.0787V2.95227Z" fill="#F2F3F2"/>
<path d="M3.58301 22.9408V64.6929L4.66347 65.2331L35.1479 80.7454L36.074 81.2085L37.0001 80.7454L66.404 65.2331L67.4845 64.6929V0.714233H3.58301V22.9408ZM5.58958 63.5353V2.7208H65.4779V63.5353L36.074 79.0476L5.58958 63.5353Z" fill="#DCDEDC"/>
<path d="M35.5339 3.72409C35.8426 3.72409 36.1513 3.72409 36.46 3.80126L35.5339 5.5763C34.1447 5.49913 32.9099 6.57959 32.8327 7.96875C32.7555 9.35791 33.836 10.5927 35.2252 10.6699H35.5339C36.1513 10.6699 36.7687 10.4384 37.2317 10.0525L38.235 11.7504C37.4633 12.2906 36.5372 12.5993 35.5339 12.5993C33.0642 12.6765 30.9805 10.8243 30.9033 8.35463C30.8262 5.88501 32.6784 3.80126 35.148 3.72409H35.5339ZM38.6981 7.50569L39.8557 9.43509L38.6981 11.2873L37.6176 9.43509H35.3795L36.5372 7.50569H38.6981ZM36.8459 6.81111C36.8459 6.50241 36.923 6.19371 37.0774 5.96218C37.2317 5.73065 37.5404 5.49913 37.772 5.34478L37.9263 5.2676C38.235 5.11325 38.3122 5.03607 38.3122 4.88172C38.3122 4.72737 38.0807 4.57302 37.9263 4.57302C37.6176 4.57302 37.3861 4.72737 37.2317 5.03607L36.8459 4.65019C36.923 4.49584 37.0774 4.34149 37.2317 4.18714C37.4633 4.03279 37.6948 4.03279 37.9263 4.03279C38.1578 4.03279 38.4665 4.10996 38.6209 4.26432C38.7752 4.41867 38.9296 4.65019 38.9296 4.88172C38.9296 5.2676 38.6981 5.5763 38.235 5.73065L38.0035 5.885C37.772 6.03936 37.6176 6.11653 37.5404 6.34806H38.9296V6.88829L36.8459 6.81111ZM35.5339 16.4581L42.8656 12.2906V0.714233H28.125V12.2134L35.5339 16.4581Z" fill="#FF492C"/>
<path d="M17.3202 31.8932V25.1017C17.3202 25.0246 17.3974 24.9474 17.4746 24.9474H19.2496C19.3268 24.9474 19.404 25.0246 19.404 25.1017V31.8932C19.404 32.8965 20.0986 33.6682 21.179 33.6682C22.2595 33.6682 22.9541 32.9737 22.9541 31.8932V25.1017C22.9541 25.0246 23.0312 24.9474 23.1084 24.9474H24.8835C24.9606 24.9474 25.0378 25.0246 25.0378 25.1017V31.8932C25.0378 34.0541 23.4943 35.4433 21.179 35.4433C18.8638 35.4433 17.3202 33.9769 17.3202 31.8932ZM26.3498 33.2052V33.0508C26.3498 32.9737 26.427 32.8965 26.5042 32.8965H28.1248C28.202 32.8965 28.2792 32.9737 28.2792 33.0508C28.2792 33.5139 28.8194 33.8226 29.5912 33.8226C30.2858 33.8226 30.7488 33.5139 30.7488 33.128C30.7488 32.5106 29.5912 32.5106 28.5107 32.1247C27.5074 31.816 26.427 31.2758 26.427 29.9638C26.427 28.4975 27.6618 27.5714 29.5912 27.5714C31.5206 27.5714 32.7554 28.5746 32.7554 29.9638C32.7554 30.041 32.6782 30.1182 32.601 30.1182H30.9803C30.9032 30.1182 30.826 30.041 30.826 29.9638C30.826 29.5008 30.3629 29.1921 29.5912 29.1921C28.9738 29.1921 28.5107 29.4236 28.5107 29.8866C28.5107 30.504 29.514 30.504 30.6716 30.8899C31.8293 31.1986 32.9869 31.7389 32.9869 33.128C32.9869 34.5944 31.6749 35.4433 29.7455 35.4433C27.6618 35.4433 26.3498 34.5172 26.3498 33.2052ZM40.936 31.9704C40.936 32.1247 40.8588 32.1247 40.7045 32.1247H36.0739C35.9968 32.1247 35.9968 32.1247 35.9968 32.2019C35.9968 32.4334 36.0739 32.5878 36.1511 32.8193C36.3826 33.3595 36.8457 33.6682 37.6946 33.6682C38.3892 33.6682 38.8523 33.3595 39.2381 32.8965C39.3153 32.8193 39.3925 32.7421 39.4697 32.8965L40.5501 33.9769C40.6273 34.0541 40.6273 34.1313 40.5501 34.2085C39.8555 35.0574 38.7751 35.5205 37.5403 35.5205C35.8424 35.5205 34.6848 34.6715 34.1445 33.2824C33.913 32.7421 33.8358 32.2019 33.8358 31.4301C33.8358 30.8899 33.913 30.3497 34.0674 29.8866C34.5304 28.4975 35.6881 27.5714 37.3087 27.5714C39.3153 27.5714 40.5501 28.8833 40.7817 30.7356C40.936 31.1214 40.936 31.5073 40.936 31.9704ZM36.1511 30.1953C36.0739 30.3497 36.0739 30.504 36.0739 30.6584C36.0739 30.7356 36.0739 30.7356 36.1511 30.7356H38.6979C38.7751 30.7356 38.7751 30.7356 38.7751 30.6584C38.7751 30.504 38.6979 30.3497 38.6979 30.2725C38.5436 29.6551 38.0805 29.3464 37.3859 29.3464C36.7685 29.3464 36.3826 29.6551 36.1511 30.1953ZM46.9557 27.8029C47.0329 27.8801 47.0329 27.9572 47.0329 28.0344L46.7242 29.7323C46.7242 29.8866 46.647 29.8866 46.4927 29.8095C46.2611 29.7323 45.9524 29.7323 45.6437 29.7323C44.9491 29.8095 44.3317 30.2725 44.3317 31.0443V35.1346C44.3317 35.2118 44.2546 35.2889 44.1774 35.2889H42.4023C42.3252 35.2889 42.248 35.2118 42.248 35.1346V27.8801C42.248 27.8029 42.3252 27.7257 42.4023 27.7257H44.1774C44.2546 27.7257 44.3317 27.8029 44.3317 27.8801V28.4203C44.3317 28.4975 44.4089 28.4975 44.4089 28.4975C44.7948 27.9572 45.335 27.5714 46.0296 27.5714C46.4927 27.5714 46.7242 27.6485 46.9557 27.8029ZM47.5731 33.2052V33.0508C47.5731 32.9737 47.6503 32.8965 47.7275 32.8965H49.3482C49.4253 32.8965 49.5025 32.9737 49.5025 33.0508C49.5025 33.5139 50.0427 33.8226 50.8145 33.8226C51.5091 33.8226 51.9721 33.5139 51.9721 33.128C51.9721 32.5106 50.8145 32.5106 49.734 32.1247C48.7308 31.816 47.6503 31.2758 47.6503 29.9638C47.6503 28.4975 48.8851 27.5714 50.8145 27.5714C52.7439 27.5714 53.9787 28.5746 53.9787 29.9638C53.9787 30.041 53.9015 30.1182 53.8243 30.1182H52.2037C52.1265 30.1182 52.0493 30.041 52.0493 29.9638C52.0493 29.5008 51.5863 29.1921 50.8145 29.1921C50.1971 29.1921 49.734 29.4236 49.734 29.8866C49.734 30.504 50.7373 30.504 51.895 30.8899C53.0526 31.1986 54.2102 31.7389 54.2102 33.128C54.2102 34.5944 52.8982 35.4433 50.9688 35.4433C48.8851 35.4433 47.5731 34.5172 47.5731 33.2052ZM10.606 47.637V37.6042C10.606 37.527 10.6831 37.4499 10.7603 37.4499H12.5353C12.6125 37.4499 12.6897 37.527 12.6897 37.6042V45.9392C12.6897 46.0164 12.6897 46.0164 12.7669 46.0164H17.6289C17.7061 46.0164 17.7833 46.0935 17.7833 46.1707V47.637C17.7833 47.7142 17.7061 47.7914 17.6289 47.7914H10.7603C10.6831 47.7914 10.606 47.7142 10.606 47.637ZM19.0181 45.4761C18.8638 45.0131 18.7866 44.4728 18.7866 43.9326C18.7866 43.3924 18.8638 42.775 19.0181 42.3891C19.4812 40.9228 20.716 40.0738 22.4138 40.0738C24.0345 40.0738 25.2693 40.9999 25.7324 42.3891C25.8867 42.8521 25.9639 43.3924 25.9639 43.9326C25.9639 44.4728 25.8867 45.0131 25.7324 45.3989C25.2693 46.9425 24.0345 47.8686 22.4138 47.8686C20.716 47.9457 19.404 47.0196 19.0181 45.4761ZM23.7258 45.0131C23.803 44.7044 23.8802 44.3185 23.8802 44.0098C23.8802 43.6239 23.803 43.238 23.7258 42.9293C23.4943 42.2347 23.0312 41.8489 22.4138 41.8489C21.7193 41.8489 21.2562 42.2347 21.1019 42.9293C20.9475 43.1609 20.9475 43.5467 20.9475 44.0098C20.9475 44.3957 20.9475 44.7815 21.0247 45.0131C21.2562 45.7076 21.7193 46.0935 22.4138 46.0935C23.0312 46.1707 23.4943 45.7076 23.7258 45.0131ZM28.8194 47.637L26.427 40.3054C26.3498 40.151 26.427 40.0738 26.5813 40.0738H28.5107C28.5879 40.0738 28.6651 40.151 28.7422 40.2282L29.9771 44.7044C29.9771 44.7815 30.0542 44.7815 30.0542 44.7044L31.289 40.2282C31.289 40.151 31.3662 40.0738 31.5206 40.0738H33.45C33.6043 40.0738 33.6815 40.151 33.6043 40.3054L31.2119 47.5599C31.2119 47.637 31.1347 47.7142 30.9803 47.7142H29.0509C28.8966 47.7914 28.8194 47.7914 28.8194 47.637ZM41.0132 44.4728C41.0132 44.6272 40.936 44.6272 40.7817 44.6272H36.1511C36.0739 44.6272 36.0739 44.6272 36.0739 44.7044C36.0739 44.9359 36.1511 45.0902 36.2283 45.3218C36.4598 45.862 36.9229 46.1707 37.7718 46.1707C38.4664 46.1707 38.9294 45.862 39.3153 45.3989C39.3925 45.3218 39.4697 45.2446 39.5468 45.3989L40.6273 46.4794C40.7045 46.5566 40.7045 46.6338 40.6273 46.7109C39.9327 47.5599 38.8523 48.0229 37.6175 48.0229C35.9196 48.0229 34.7619 47.174 34.2217 45.7848C33.9902 45.2446 33.913 44.7044 33.913 43.9326C33.913 43.3924 33.9902 42.8521 34.1445 42.3891C34.6076 40.9999 35.7652 40.0738 37.3859 40.0738C39.3925 40.0738 40.6273 41.3858 40.8588 43.238C41.0132 43.6239 41.0132 44.0098 41.0132 44.4728ZM36.2283 42.6978C36.1511 42.8521 36.1511 43.0065 36.1511 43.1609C36.1511 43.238 36.1511 43.238 36.2283 43.238H38.7751C38.8523 43.238 38.8523 43.238 38.8523 43.1609C38.8523 43.0065 38.7751 42.8521 38.7751 42.775C38.6207 42.1576 38.1577 41.8489 37.4631 41.8489C36.7685 41.8489 36.3826 42.1576 36.2283 42.6978ZM45.335 44.3957V37.6042C45.335 37.527 45.4122 37.4499 45.4894 37.4499H47.2644C47.3416 37.4499 47.4188 37.527 47.4188 37.6042V44.3957C47.4188 45.3989 48.1133 46.1707 49.1938 46.1707C50.2743 46.1707 50.9688 45.4761 50.9688 44.3957V37.6042C50.9688 37.527 51.046 37.4499 51.1232 37.4499H52.8982C52.9754 37.4499 53.0526 37.527 53.0526 37.6042V44.3957C53.0526 46.5566 51.5091 47.9457 49.1938 47.9457C46.8785 47.9457 45.335 46.4794 45.335 44.3957ZM54.3646 45.7076V45.5533C54.3646 45.4761 54.4418 45.3989 54.5189 45.3989H56.1396C56.2168 45.3989 56.294 45.4761 56.294 45.5533C56.294 46.0164 56.8342 46.3251 57.606 46.3251C58.3005 46.3251 58.7636 46.0164 58.7636 45.6305C58.7636 45.0131 57.606 45.0131 56.5255 44.6272C55.5222 44.3185 54.4418 43.7783 54.4418 42.4663C54.4418 40.9999 55.6766 40.0738 57.606 40.0738C59.5353 40.0738 60.7702 41.0771 60.7702 42.4663C60.7702 42.5434 60.693 42.6206 60.6158 42.6206H58.9951C58.9179 42.6206 58.8408 42.5434 58.8408 42.4663C58.8408 42.0032 58.3777 41.6945 57.606 41.6945C56.9886 41.6945 56.5255 41.926 56.5255 42.3891C56.5255 43.0065 57.5288 43.0065 58.6864 43.3924C59.8441 43.7011 61.0017 44.2413 61.0017 45.6305C61.0017 47.0968 59.6897 47.9457 57.7603 47.9457C55.6766 47.9457 54.3646 47.0196 54.3646 45.7076Z" fill="#252530"/>
<path d="M14.2334 56.6666H29.6685V57.284H14.2334V56.6666ZM41.8623 56.6666H57.2974V57.284H41.8623V56.6666Z" fill="#DCDEDC"/>
<path d="M32.061 55.9721L34.4535 55.5862L35.6883 53.1937L36.8459 55.509L39.3927 55.9721L37.6177 57.7471L38.0036 60.2939L35.6883 59.2134L33.373 60.2939L33.6817 57.7471L32.061 55.9721Z" fill="#DCDEDC"/>
</svg>
