<svg width="71" height="82" viewBox="0 0 71 82" fill="none" xmlns="http://www.w3.org/2000/svg">
<g clip-path="url(#clip0_760_9537)">
<path d="M0 64.4628L35.5 82L71 64.4628V0H0V64.4628Z" fill="white"/>
<path d="M0 64.4628L35.5 82L71 64.4628V0H0V64.4628Z" fill="white"/>
<path d="M12.7026 9.83223V6.04167H15.1259V6.71469H13.4435V7.62752H14.8481V8.30827H13.4435V9.83223H12.7026ZM18.8534 9.83223L17.4025 6.04167H18.1434L19.6406 9.83223H18.8534ZM15.8668 9.83223L17.3562 6.04167H18.0971L16.6462 9.83223H15.8668ZM16.569 8.99676V8.34695H18.9383V8.99676H16.569ZM20.6284 9.83223V6.04167H21.3693V9.15922H23.0362V9.83223H20.6284ZM24.0704 9.83223V6.04167H24.8112V9.15922H26.4782V9.83223H24.0704ZM29.2101 9.83223V9.28299C29.2101 9.18242 29.241 9.06639 29.3105 8.94261C29.3722 8.8111 29.4648 8.68733 29.5806 8.56356C29.6963 8.43205 29.8275 8.31601 29.9819 8.20771L30.5607 7.79771C30.6379 7.74356 30.715 7.68167 30.7845 7.61205C30.8539 7.54242 30.908 7.4728 30.9543 7.38771C31.0006 7.30261 31.0237 7.22525 31.0237 7.15563C31.0237 7.05506 31.0006 6.96997 30.9543 6.90035C30.908 6.82299 30.8385 6.7611 30.7536 6.72242C30.6687 6.67601 30.5684 6.6528 30.4372 6.6528C30.3292 6.6528 30.2365 6.67601 30.1517 6.72242C30.0668 6.7611 29.9973 6.82299 29.9433 6.89261C29.8893 6.96223 29.8507 7.03959 29.8275 7.12469L29.0635 6.99318C29.1021 6.81525 29.1793 6.64507 29.295 6.49035C29.4185 6.33563 29.5729 6.21186 29.7658 6.11129C29.9587 6.01846 30.1748 5.97205 30.4218 5.97205C30.7073 5.97205 30.9466 6.0262 31.1472 6.12676C31.3479 6.22733 31.5022 6.35884 31.6102 6.53676C31.726 6.71469 31.78 6.91582 31.78 7.14789C31.78 7.37997 31.7183 7.58884 31.5871 7.7745C31.4559 7.95242 31.2861 8.12261 31.0623 8.28506L30.5452 8.65639C30.4449 8.72601 30.3523 8.8111 30.2751 8.8962C30.198 8.98129 30.1439 9.08186 30.1054 9.18242H31.8263V9.83223H29.2101ZM34.3576 9.89412C34.0489 9.89412 33.7788 9.80903 33.5473 9.64657C33.3081 9.47639 33.1229 9.24431 32.9917 8.95035C32.8605 8.65639 32.791 8.31601 32.791 7.93695C32.791 7.5579 32.8605 7.21752 32.9917 6.92356C33.1229 6.62959 33.3081 6.39752 33.5396 6.22733C33.7711 6.06488 34.0412 5.97978 34.3499 5.97978C34.6586 5.97978 34.921 6.06488 35.1602 6.22733C35.3995 6.39752 35.5847 6.62959 35.7159 6.92356C35.8471 7.21752 35.9166 7.5579 35.9166 7.93695C35.9166 8.31601 35.8471 8.65639 35.7159 8.95035C35.5847 9.24431 35.3995 9.47639 35.168 9.64657C34.9287 9.80903 34.6586 9.89412 34.3576 9.89412ZM34.3576 9.22884C34.5197 9.22884 34.6586 9.17469 34.7898 9.05865C34.921 8.95035 35.0213 8.79563 35.0908 8.60223C35.1602 8.40884 35.1988 8.19223 35.1988 7.93695C35.1988 7.68167 35.1602 7.45733 35.0908 7.26393C35.0213 7.07054 34.921 6.91582 34.7898 6.80752C34.6586 6.69922 34.512 6.64507 34.3499 6.64507C34.1879 6.64507 34.0412 6.69922 33.9177 6.80752C33.7866 6.91582 33.6939 7.07054 33.6245 7.26393C33.555 7.45733 33.5164 7.68167 33.5164 7.93695C33.5164 8.19223 33.555 8.40884 33.6245 8.60223C33.6939 8.79563 33.7866 8.95035 33.9177 9.05865C34.0489 9.17469 34.1956 9.22884 34.3576 9.22884ZM36.9198 9.83223V9.28299C36.9198 9.18242 36.9507 9.06639 37.0201 8.94261C37.0819 8.8111 37.1745 8.68733 37.2902 8.56356C37.406 8.43205 37.5372 8.31601 37.6916 8.20771L38.2626 7.79771C38.3475 7.74356 38.4247 7.68167 38.4942 7.61205C38.5636 7.54242 38.6176 7.4728 38.6639 7.38771C38.7102 7.30261 38.7334 7.22525 38.7334 7.15563C38.7334 7.05506 38.7102 6.96997 38.6639 6.90035C38.6176 6.82299 38.5482 6.7611 38.4633 6.72242C38.3784 6.67601 38.2781 6.6528 38.1469 6.6528C38.0388 6.6528 37.9462 6.67601 37.8613 6.72242C37.7764 6.7611 37.707 6.82299 37.653 6.89261C37.5989 6.96223 37.5604 7.03959 37.5372 7.12469L36.7732 6.99318C36.8118 6.81525 36.8889 6.64507 37.0047 6.49035C37.1205 6.33563 37.2825 6.21186 37.4755 6.11129C37.6684 6.01846 37.8845 5.97205 38.1314 5.97205C38.417 5.97205 38.6562 6.0262 38.8569 6.12676C39.0575 6.22733 39.2119 6.35884 39.3199 6.53676C39.4357 6.71469 39.4897 6.91582 39.4897 7.14789C39.4897 7.37997 39.428 7.58884 39.2968 7.7745C39.1656 7.95242 38.9958 8.12261 38.772 8.28506L38.2549 8.65639C38.1546 8.72601 38.062 8.8111 37.9848 8.8962C37.9076 8.98129 37.8536 9.08186 37.815 9.18242H39.536V9.83223H36.9198ZM41.8975 9.89412C41.72 9.89412 41.5425 9.86318 41.365 9.80903C41.1875 9.75488 41.0177 9.66978 40.8711 9.55374C40.7245 9.43771 40.6242 9.29073 40.5547 9.12054L41.2261 8.9194C41.3033 9.03544 41.3959 9.12054 41.5117 9.17469C41.6197 9.22884 41.7355 9.25978 41.8512 9.25978C42.0442 9.25978 42.1908 9.20563 42.3066 9.08959C42.4223 8.97356 42.484 8.82657 42.484 8.63318C42.484 8.45525 42.43 8.30054 42.3143 8.1845C42.1985 8.06846 42.0519 8.00657 41.8667 8.00657C41.7509 8.00657 41.6506 8.02978 41.558 8.08393C41.4654 8.13808 41.3959 8.19223 41.3419 8.26186L40.6782 8.11488L40.902 6.04167H43.0397V6.71469H41.5348L41.4268 7.61978C41.5271 7.56563 41.6351 7.52695 41.7509 7.48827C41.8667 7.45733 41.9979 7.44186 42.1368 7.44186C42.3451 7.44186 42.5304 7.49601 42.6924 7.59657C42.8622 7.69714 43.0011 7.82865 43.1014 7.99884C43.2018 8.16903 43.2481 8.37016 43.2481 8.5945C43.2481 8.84978 43.1863 9.08186 43.0706 9.27525C42.9548 9.46865 42.8005 9.62337 42.5998 9.73167C42.3992 9.83997 42.1676 9.89412 41.8975 9.89412Z" fill="black"/>
<path d="M23.9393 35.1672V26.5031H26.9645C27.5588 26.5031 28.0758 26.5959 28.5312 26.7738C28.9865 26.9517 29.3415 27.2302 29.5962 27.6015C29.8508 27.9729 29.9743 28.4447 29.9743 29.0172C29.9743 29.3189 29.8971 29.6051 29.7351 29.8759C29.573 30.1466 29.3569 30.3865 29.0791 30.6031C29.4727 30.8119 29.7737 31.0749 29.982 31.4076C30.1904 31.7402 30.2984 32.158 30.2984 32.6453C30.2984 33.1868 30.175 33.6432 29.928 34.0223C29.6811 34.4014 29.3415 34.6798 28.9016 34.8732C28.4617 35.0666 27.9524 35.1672 27.3736 35.1672H23.9393ZM25.8764 33.4112H27.1498C27.4893 33.4112 27.7594 33.3183 27.9524 33.1404C28.1453 32.9625 28.2456 32.7381 28.2456 32.4597C28.2456 32.158 28.1453 31.9259 27.9369 31.7557C27.7286 31.5855 27.4507 31.5004 27.088 31.5004H25.8764V33.4112ZM25.8764 29.9068H26.9028C27.2192 29.9068 27.4662 29.8295 27.6591 29.667C27.8443 29.5046 27.9369 29.2802 27.9369 28.994C27.9369 28.7078 27.8366 28.468 27.6359 28.3055C27.4353 28.1431 27.1652 28.0657 26.8256 28.0657H25.8764V29.9068ZM34.2652 35.3142C33.6246 35.3142 33.0536 35.1749 32.5596 34.9042C32.0657 34.6257 31.6799 34.2466 31.3943 33.7593C31.1165 33.2719 30.9776 32.7072 30.9776 32.0729C30.9776 31.4385 31.1165 30.8661 31.402 30.3787C31.6876 29.8914 32.0734 29.5123 32.5674 29.2415C33.0613 28.9708 33.6324 28.8315 34.2883 28.8315C34.8671 28.8315 35.3996 28.9708 35.8704 29.2493C36.3412 29.5355 36.7116 29.9532 36.9817 30.5025C37.2595 31.0517 37.3984 31.7402 37.3984 32.568H32.7526L32.9687 32.3359C32.9687 32.6144 33.0227 32.8619 33.1384 33.0785C33.2542 33.2874 33.4086 33.4498 33.6169 33.5659C33.8253 33.6742 34.0568 33.7283 34.3115 33.7283C34.6125 33.7283 34.8749 33.6587 35.0832 33.5272C35.2916 33.3957 35.4382 33.2255 35.5231 33.0166L37.2287 33.5968C37.0666 33.9836 36.8274 34.3085 36.5264 34.5638C36.2254 34.8191 35.8858 35.0048 35.5 35.1285C35.1064 35.2523 34.6974 35.3142 34.2652 35.3142ZM33.015 31.5314L32.8143 31.2838H35.5849L35.4074 31.5314C35.4074 31.2219 35.3456 30.9744 35.2221 30.7965C35.0987 30.6185 34.9443 30.487 34.7668 30.4097C34.5893 30.3323 34.4041 30.2936 34.2266 30.2936C34.0491 30.2936 33.8639 30.3323 33.6787 30.4097C33.4934 30.487 33.3391 30.6185 33.2079 30.7965C33.0767 30.9744 33.015 31.2219 33.015 31.5314ZM40.5317 35.3142C40.1304 35.3142 39.7523 35.2523 39.405 35.1363C39.0577 35.0202 38.749 34.85 38.4943 34.6257C38.2396 34.4091 38.0544 34.1461 37.9309 33.8289L39.513 33.1636C39.6133 33.3725 39.76 33.5349 39.9529 33.6355C40.1458 33.7361 40.3388 33.7902 40.5317 33.7902C40.7401 33.7902 40.9021 33.7593 41.0179 33.6897C41.1337 33.62 41.1877 33.5195 41.1877 33.3957C41.1877 33.2719 41.1259 33.1636 41.0102 33.0863C40.8944 33.0166 40.7246 32.947 40.5008 32.8929L39.9683 32.7536C39.3895 32.6066 38.9496 32.3591 38.6409 32.0187C38.3322 31.6706 38.1779 31.2761 38.1779 30.8197C38.1779 30.1853 38.394 29.698 38.8339 29.3498C39.2661 29.0017 39.868 28.8315 40.6475 28.8315C41.0874 28.8315 41.4655 28.8857 41.7974 29.0017C42.1292 29.1178 42.4147 29.2802 42.6386 29.4891C42.8624 29.698 43.0244 29.9455 43.1248 30.2317L41.5967 30.8583C41.5427 30.6959 41.4192 30.5644 41.2417 30.4793C41.0642 30.3942 40.8713 30.3555 40.6552 30.3555C40.4777 30.3555 40.3388 30.3942 40.2384 30.4715C40.1381 30.5489 40.0918 30.6572 40.0918 30.7887C40.0918 30.8893 40.1536 30.9666 40.2693 31.0363C40.3851 31.1059 40.5626 31.1755 40.7941 31.2297L41.4501 31.3921C41.8359 31.4927 42.1601 31.6397 42.4225 31.8408C42.6849 32.0497 42.8855 32.2817 43.0167 32.5525C43.1479 32.8232 43.2174 33.1095 43.2174 33.4112C43.2174 33.798 43.1016 34.1306 42.8778 34.4168C42.654 34.7031 42.3376 34.9197 41.9286 35.0821C41.5273 35.2368 41.0642 35.3142 40.5317 35.3142ZM46.7828 35.3142C46.0496 35.3142 45.5094 35.1363 45.1467 34.7881C44.784 34.44 44.6065 33.9372 44.6065 33.2874V27.0446H46.5358V32.8C46.5358 33.0476 46.5821 33.2332 46.6748 33.3493C46.7596 33.4653 46.8986 33.5195 47.0915 33.5195C47.1609 33.5195 47.2536 33.504 47.3539 33.4653C47.4542 33.4266 47.5391 33.3802 47.624 33.3261L48.2877 34.734C48.0947 34.8965 47.8555 35.0357 47.5777 35.1517C47.3076 35.26 47.0375 35.3142 46.7828 35.3142ZM43.6495 30.6031V28.9785H47.9404V30.6031H43.6495ZM13.7061 47.5446V38.8804H19.332V40.7138H15.6894V42.2997H18.7378V44.0634H15.6894V45.7112H19.3938V47.5446H13.7061ZM23.0595 47.6915C22.6582 47.6915 22.2801 47.6297 21.9328 47.5136C21.5855 47.3976 21.2768 47.2274 21.0221 47.0031C20.7675 46.7864 20.5823 46.5234 20.4588 46.2063L22.0408 45.541C22.1412 45.7498 22.2878 45.9123 22.4807 46.0129C22.6737 46.1134 22.8666 46.1676 23.0595 46.1676C23.2679 46.1676 23.43 46.1366 23.5457 46.067C23.6615 45.9974 23.7155 45.8968 23.7155 45.7731C23.7155 45.6493 23.6538 45.541 23.538 45.4636C23.4222 45.394 23.2525 45.3244 23.0287 45.2702L22.4962 45.131C21.9174 44.984 21.4775 44.7364 21.1688 44.3961C20.8601 44.048 20.7057 43.6534 20.7057 43.197C20.7057 42.5627 20.9218 42.0753 21.3617 41.7272C21.7939 41.3791 22.3958 41.2089 23.1753 41.2089C23.6152 41.2089 23.9933 41.2631 24.3252 41.3791C24.657 41.4951 24.9426 41.6576 25.1664 41.8664C25.3902 42.0753 25.5523 42.3229 25.6526 42.6091L24.1245 43.2357C24.0705 43.0732 23.947 42.9417 23.7695 42.8566C23.592 42.7715 23.3991 42.7329 23.183 42.7329C23.0055 42.7329 22.8666 42.7715 22.7663 42.8489C22.6659 42.9263 22.6196 43.0346 22.6196 43.1661C22.6196 43.2666 22.6814 43.344 22.7971 43.4136C22.9129 43.4832 23.0904 43.5529 23.3219 43.607L23.9779 43.7695C24.3638 43.87 24.6879 44.017 24.9503 44.2181C25.2127 44.427 25.4133 44.6591 25.5445 44.9298C25.6757 45.2006 25.7452 45.4868 25.7452 45.7885C25.7452 46.1753 25.6294 46.508 25.4056 46.7942C25.1818 47.0804 24.8654 47.297 24.4564 47.4595C24.0551 47.6142 23.592 47.6915 23.0595 47.6915ZM29.3106 47.6915C28.5775 47.6915 28.0373 47.5136 27.6745 47.1655C27.3118 46.8174 27.1343 46.3146 27.1343 45.6648V39.4219H29.0637V45.1774C29.0637 45.4249 29.11 45.6106 29.2026 45.7266C29.2875 45.8427 29.4264 45.8968 29.6193 45.8968C29.6888 45.8968 29.7814 45.8814 29.8817 45.8427C29.982 45.804 30.0669 45.7576 30.1518 45.7034L30.8155 47.1114C30.6226 47.2738 30.3833 47.4131 30.1055 47.5291C29.8354 47.6374 29.5653 47.6915 29.3106 47.6915ZM26.1774 42.9804V41.3559H30.4682V42.9804H26.1774ZM32.7912 47.7302C32.4748 47.7302 32.2124 47.6219 31.9886 47.3976C31.7648 47.1732 31.6567 46.9102 31.6567 46.5931C31.6567 46.2759 31.7648 46.0206 31.9886 45.7963C32.2124 45.5719 32.4748 45.4636 32.7912 45.4636C33.1076 45.4636 33.3623 45.5719 33.5861 45.7963C33.8099 46.0206 33.9179 46.2914 33.9179 46.5931C33.9179 46.8948 33.8099 47.1732 33.5861 47.3976C33.3623 47.6219 33.0921 47.7302 32.7912 47.7302ZM38.1625 47.5446V38.8804H41.5581C42.1832 38.8804 42.7389 39.0042 43.2251 39.244C43.7113 39.4838 44.0971 39.8242 44.3673 40.2574C44.6451 40.6906 44.784 41.1857 44.784 41.7504C44.784 42.3151 44.6451 42.8102 44.3595 43.2512C44.0817 43.6921 43.6958 44.0325 43.2096 44.2723C42.7234 44.5121 42.1601 44.6359 41.5195 44.6359H40.1536V47.5446H38.1625ZM42.8546 47.5446L40.9021 44.1021L42.3993 43.0036L45.1313 47.5446H42.8546ZM40.1536 42.8025H41.4964C41.7279 42.8025 41.9363 42.7561 42.1138 42.671C42.2913 42.5781 42.4379 42.4544 42.5382 42.2919C42.6386 42.1295 42.6926 41.9515 42.6926 41.7504C42.6926 41.4487 42.5768 41.1934 42.353 41C42.1292 40.7989 41.8282 40.6983 41.4578 40.6983H40.1536V42.8025ZM50.3174 47.6915C49.4299 47.6915 48.6427 47.4981 47.9558 47.1191C47.269 46.7323 46.7365 46.2063 46.3506 45.5332C45.9648 44.8602 45.7718 44.0944 45.7718 43.228C45.7718 42.3615 45.9648 41.5802 46.3506 40.9072C46.7365 40.2342 47.269 39.7004 47.9481 39.3214C48.6273 38.9346 49.4067 38.7412 50.2865 38.7412C51.1663 38.7412 51.9534 38.9346 52.6326 39.3214C53.3117 39.7004 53.8442 40.2342 54.2301 40.9072C54.6159 41.5802 54.8089 42.3538 54.8089 43.228C54.8089 44.1021 54.6159 44.8602 54.2378 45.5332C53.8519 46.2063 53.3194 46.7323 52.648 47.1191C51.9766 47.4981 51.1971 47.6915 50.3174 47.6915ZM50.3174 45.8581C50.8036 45.8581 51.228 45.7498 51.5984 45.5255C51.9689 45.3012 52.2544 44.9917 52.4628 44.5895C52.6712 44.1949 52.7715 43.7385 52.7715 43.228C52.7715 42.7174 52.6634 42.2455 52.4474 41.8432C52.239 41.4487 51.9457 41.1315 51.5753 40.9072C51.2049 40.6829 50.7727 40.5668 50.2865 40.5668C49.8003 40.5668 49.3758 40.6829 49.0054 40.9072C48.635 41.1315 48.3417 41.4487 48.1256 41.8432C47.9172 42.2455 47.8092 42.7097 47.8092 43.228C47.8092 43.7463 47.9172 44.1949 48.1256 44.5895C48.3417 44.9917 48.6427 45.3012 49.0208 45.5255C49.399 45.7498 49.8312 45.8581 50.3174 45.8581ZM56.0205 47.5446V38.8804H58.0039V47.5446H56.0205Z" fill="black"/>
<path d="M20.667 55.5744V52.5961H21.2998L22.1642 53.8802L23.0285 52.5961H23.6613V55.5744H23.0825V53.5012L22.1642 54.8549L21.2458 53.5089V55.5744H20.667ZM24.7341 55.5744V52.5961H25.3206V55.5744H24.7341ZM26.3856 55.5744V52.5961H27.3348C27.6358 52.5961 27.9059 52.658 28.1451 52.7817C28.3767 52.9132 28.5619 53.0834 28.6931 53.3078C28.8243 53.5321 28.886 53.7874 28.886 54.0814C28.886 54.3753 28.8243 54.6306 28.6931 54.8549C28.5619 55.0793 28.3767 55.2495 28.1451 55.381C27.9059 55.5125 27.6358 55.5744 27.3348 55.5744H26.3856ZM26.9644 55.0251H27.3348C27.4737 55.0251 27.5972 55.0019 27.713 54.9555C27.8287 54.9014 27.9368 54.8395 28.0217 54.7544C28.1066 54.6693 28.1683 54.5687 28.2223 54.4527C28.2686 54.3366 28.2918 54.2129 28.2918 54.0814C28.2918 53.9498 28.2686 53.8261 28.2223 53.71C28.1683 53.594 28.1066 53.4934 28.0217 53.4083C27.9368 53.3232 27.8287 53.2614 27.713 53.2072C27.5972 53.1608 27.4737 53.1376 27.3348 53.1376H26.9644V55.0251ZM29.6809 54.5455V54.0659H30.9543V54.5455H29.6809ZM31.9344 55.5744V52.5961H32.5595L33.4316 53.8802L34.2959 52.5961H34.921V55.5744H34.3422V53.5012L33.4316 54.8549L32.5132 53.5089V55.5744H31.9344ZM38.0543 55.5744L36.9121 52.5961H37.4986L38.6639 55.5744H38.0543ZM35.7005 55.5744L36.8735 52.5961H37.46L36.3179 55.5744H35.7005ZM36.2638 54.9168V54.3985H38.1237V54.9168H36.2638ZM39.4511 55.5744V52.5961H40.5547C40.7631 52.5961 40.9483 52.6347 41.1104 52.7121C41.2724 52.7972 41.3959 52.9055 41.4885 53.0525C41.5734 53.1995 41.6197 53.3619 41.6197 53.5553C41.6197 53.7487 41.5734 53.9034 41.4808 54.0504C41.3805 54.1974 41.2493 54.3134 41.0872 54.3908C40.9251 54.4759 40.7399 54.5146 40.5316 54.5146H40.0299V55.5744H39.4511ZM41.0872 55.5744L40.4004 54.3753L40.848 54.0581L41.7509 55.5744H41.0872ZM40.0299 53.9808H40.5547C40.6396 53.9808 40.7245 53.9653 40.7939 53.9266C40.8634 53.888 40.9174 53.8415 40.956 53.7719C40.9946 53.71 41.0178 53.6404 41.0178 53.5553C41.0178 53.4238 40.9714 53.3232 40.8788 53.2459C40.7862 53.1608 40.6705 53.1221 40.5238 53.1221H40.0299V53.9808ZM42.9625 54.8163L42.9008 54.0891L44.2899 52.5961H45.0385L42.9625 54.8163ZM42.6075 55.5744V52.5961H43.1863V55.5744H42.6075ZM44.3671 55.5744L43.1863 54.0581L43.6031 53.71L45.0848 55.5744H44.3671ZM45.872 55.5744V52.5961H47.7473V53.1221H46.4508V53.8029H47.5698V54.3212H46.4508V55.0406H47.7628V55.5744H45.872ZM49.4143 55.5744V53.1221H48.5191V52.5961H50.8806V53.1221H49.9931V55.5744H49.4143Z" fill="black"/>
<path d="M54.7935 0H71V16.2453H54.7935V0Z" fill="#FF492C"/>
<mask id="mask0_760_9537" style="mask-type:luminance" maskUnits="userSpaceOnUse" x="54" y="0" width="17" height="17">
<path d="M71 0H54.7935V16.2453H71V0Z" fill="white"/>
</mask>
<g mask="url(#mask0_760_9537)">
<path fill-rule="evenodd" clip-rule="evenodd" d="M66.408 6.21961H65.0266C65.0652 6.00301 65.1964 5.87924 65.4665 5.73999L65.7212 5.60848C66.1765 5.37641 66.4235 5.11339 66.4235 4.68018C66.4312 4.4249 66.3154 4.18509 66.1071 4.03811C65.8987 3.88339 65.6517 3.80603 65.3662 3.80603C65.1424 3.80603 64.9263 3.86792 64.7334 3.98395C64.5559 4.09226 64.4092 4.24697 64.3166 4.44037L64.7179 4.84263C64.8723 4.52546 65.0961 4.37075 65.3971 4.37075C65.644 4.37075 65.8061 4.50226 65.8061 4.68018C65.8061 4.8349 65.7289 4.95867 65.4434 5.10565L65.2813 5.18301C64.9263 5.36094 64.6793 5.5698 64.5404 5.80188C64.4015 6.03395 64.3243 6.32792 64.3243 6.68377V6.7766H66.4235V6.20414L66.408 6.21961ZM66.2228 7.45735H63.9307L62.7886 9.44546H65.0806L66.2228 11.4336L67.365 9.44546L66.2228 7.45735Z" fill="white"/>
<path fill-rule="evenodd" clip-rule="evenodd" d="M62.9814 10.776C61.5228 10.776 60.3344 9.58469 60.3344 8.12261C60.3344 6.66053 61.5228 5.46921 62.9814 5.46921L63.8843 3.5662C61.3762 3.06336 58.9375 4.69563 58.4359 7.20978C58.3741 7.51148 58.3433 7.81318 58.3433 8.12261C58.3433 10.6832 60.4192 12.7641 62.9737 12.7641C63.9538 12.7641 64.9108 12.4547 65.7057 11.8745L64.7024 10.1339C64.2239 10.5517 63.6142 10.776 62.9737 10.776H62.9814Z" fill="white"/>
<path d="M55.1714 0.518311V15.8894" stroke="black" stroke-width="1.09"/>
</g>
<path d="M0 64.6098V59.5815L35.5 77.4049L71 59.5815V64.6098L35.5 82L0 64.6098Z" fill="#5746B2"/>
<path d="M0 60.0069V54.9786L35.5 72.802L71 54.9786V60.0069L35.5 77.3971L0 60.0069Z" fill="white"/>
<path d="M0 55.4118V50.3835L35.5 68.2069L71 50.3835V55.4118L35.5 72.802L0 55.4118Z" fill="white"/>
<path d="M70.6679 15.8817H0.48596M70.583 64.2075L35.4998 81.5358L0.416504 64.2075V0.417725H70.5753V64.1998L70.583 64.2075Z" stroke="black" stroke-width="1.09"/>
</g>
<defs>
<clipPath id="clip0_760_9537">
<rect width="71" height="82" fill="white"/>
</clipPath>
</defs>
</svg>
