<svg width="71" height="82" viewBox="0 0 71 82" fill="none" xmlns="http://www.w3.org/2000/svg">
<g clip-path="url(#clip0_753_9698)">
<path d="M0 64.4628L35.5 82L71 64.4628V0H0V64.4628Z" fill="white"/>
<path d="M0 64.4628L35.5 82L71 64.4628V0H0V64.4628Z" fill="white"/>
<path d="M12.7026 9.83223V6.04167H15.1259V6.71469H13.4435V7.62752H14.8481V8.30827H13.4435V9.83223H12.7026ZM18.8534 9.83223L17.4025 6.04167H18.1434L19.6406 9.83223H18.8534ZM15.8668 9.83223L17.3562 6.04167H18.0971L16.6462 9.83223H15.8668ZM16.569 8.99676V8.34695H18.9383V8.99676H16.569ZM20.6284 9.83223V6.04167H21.3693V9.15922H23.0362V9.83223H20.6284ZM24.0704 9.83223V6.04167H24.8112V9.15922H26.4782V9.83223H24.0704ZM29.2101 9.83223V9.28299C29.2101 9.18242 29.241 9.06639 29.3105 8.94261C29.3722 8.8111 29.4648 8.68733 29.5806 8.56356C29.6963 8.43205 29.8275 8.31601 29.9819 8.20771L30.5607 7.79771C30.6379 7.74356 30.715 7.68167 30.7845 7.61205C30.8539 7.54242 30.908 7.4728 30.9543 7.38771C31.0006 7.30261 31.0237 7.22525 31.0237 7.15563C31.0237 7.05506 31.0006 6.96997 30.9543 6.90035C30.908 6.82299 30.8385 6.7611 30.7536 6.72242C30.6687 6.67601 30.5684 6.6528 30.4372 6.6528C30.3292 6.6528 30.2365 6.67601 30.1517 6.72242C30.0668 6.7611 29.9973 6.82299 29.9433 6.89261C29.8893 6.96223 29.8507 7.03959 29.8275 7.12469L29.0635 6.99318C29.1021 6.81525 29.1793 6.64507 29.295 6.49035C29.4185 6.33563 29.5729 6.21186 29.7658 6.11129C29.9587 6.01846 30.1748 5.97205 30.4218 5.97205C30.7073 5.97205 30.9466 6.0262 31.1472 6.12676C31.3479 6.22733 31.5022 6.35884 31.6102 6.53676C31.726 6.71469 31.78 6.91582 31.78 7.14789C31.78 7.37997 31.7183 7.58884 31.5871 7.7745C31.4559 7.95242 31.2861 8.12261 31.0623 8.28506L30.5452 8.65639C30.4449 8.72601 30.3523 8.8111 30.2751 8.8962C30.198 8.98129 30.1439 9.08186 30.1054 9.18242H31.8263V9.83223H29.2101ZM34.3576 9.89412C34.0489 9.89412 33.7788 9.80903 33.5473 9.64657C33.3081 9.47639 33.1229 9.24431 32.9917 8.95035C32.8605 8.65639 32.791 8.31601 32.791 7.93695C32.791 7.5579 32.8605 7.21752 32.9917 6.92356C33.1229 6.62959 33.3081 6.39752 33.5396 6.22733C33.7711 6.06488 34.0412 5.97978 34.3499 5.97978C34.6586 5.97978 34.921 6.06488 35.1602 6.22733C35.3995 6.39752 35.5847 6.62959 35.7159 6.92356C35.8471 7.21752 35.9166 7.5579 35.9166 7.93695C35.9166 8.31601 35.8471 8.65639 35.7159 8.95035C35.5847 9.24431 35.3995 9.47639 35.168 9.64657C34.9287 9.80903 34.6586 9.89412 34.3576 9.89412ZM34.3576 9.22884C34.5197 9.22884 34.6586 9.17469 34.7898 9.05865C34.921 8.95035 35.0213 8.79563 35.0908 8.60223C35.1602 8.40884 35.1988 8.19223 35.1988 7.93695C35.1988 7.68167 35.1602 7.45733 35.0908 7.26393C35.0213 7.07054 34.921 6.91582 34.7898 6.80752C34.6586 6.69922 34.512 6.64507 34.3499 6.64507C34.1879 6.64507 34.0412 6.69922 33.9177 6.80752C33.7866 6.91582 33.6939 7.07054 33.6245 7.26393C33.555 7.45733 33.5164 7.68167 33.5164 7.93695C33.5164 8.19223 33.555 8.40884 33.6245 8.60223C33.6939 8.79563 33.7866 8.95035 33.9177 9.05865C34.0489 9.17469 34.1956 9.22884 34.3576 9.22884ZM36.9198 9.83223V9.28299C36.9198 9.18242 36.9507 9.06639 37.0201 8.94261C37.0819 8.8111 37.1745 8.68733 37.2902 8.56356C37.406 8.43205 37.5372 8.31601 37.6916 8.20771L38.2626 7.79771C38.3475 7.74356 38.4247 7.68167 38.4942 7.61205C38.5636 7.54242 38.6176 7.4728 38.6639 7.38771C38.7102 7.30261 38.7334 7.22525 38.7334 7.15563C38.7334 7.05506 38.7102 6.96997 38.6639 6.90035C38.6176 6.82299 38.5482 6.7611 38.4633 6.72242C38.3784 6.67601 38.2781 6.6528 38.1469 6.6528C38.0388 6.6528 37.9462 6.67601 37.8613 6.72242C37.7764 6.7611 37.707 6.82299 37.653 6.89261C37.5989 6.96223 37.5604 7.03959 37.5372 7.12469L36.7732 6.99318C36.8118 6.81525 36.8889 6.64507 37.0047 6.49035C37.1205 6.33563 37.2825 6.21186 37.4755 6.11129C37.6684 6.01846 37.8845 5.97205 38.1314 5.97205C38.417 5.97205 38.6562 6.0262 38.8569 6.12676C39.0575 6.22733 39.2119 6.35884 39.3199 6.53676C39.4357 6.71469 39.4897 6.91582 39.4897 7.14789C39.4897 7.37997 39.428 7.58884 39.2968 7.7745C39.1656 7.95242 38.9958 8.12261 38.772 8.28506L38.2549 8.65639C38.1546 8.72601 38.062 8.8111 37.9848 8.8962C37.9076 8.98129 37.8536 9.08186 37.815 9.18242H39.536V9.83223H36.9198ZM41.8975 9.89412C41.72 9.89412 41.5425 9.86318 41.365 9.80903C41.1875 9.75488 41.0177 9.66978 40.8711 9.55374C40.7245 9.43771 40.6242 9.29073 40.5547 9.12054L41.2261 8.9194C41.3033 9.03544 41.3959 9.12054 41.5117 9.17469C41.6197 9.22884 41.7355 9.25978 41.8512 9.25978C42.0442 9.25978 42.1908 9.20563 42.3066 9.08959C42.4223 8.97356 42.484 8.82657 42.484 8.63318C42.484 8.45525 42.43 8.30054 42.3143 8.1845C42.1985 8.06846 42.0519 8.00657 41.8667 8.00657C41.7509 8.00657 41.6506 8.02978 41.558 8.08393C41.4654 8.13808 41.3959 8.19223 41.3419 8.26186L40.6782 8.11488L40.902 6.04167H43.0397V6.71469H41.5348L41.4268 7.61978C41.5271 7.56563 41.6351 7.52695 41.7509 7.48827C41.8667 7.45733 41.9979 7.44186 42.1368 7.44186C42.3451 7.44186 42.5304 7.49601 42.6924 7.59657C42.8622 7.69714 43.0011 7.82865 43.1014 7.99884C43.2018 8.16903 43.2481 8.37016 43.2481 8.5945C43.2481 8.84978 43.1863 9.08186 43.0706 9.27525C42.9548 9.46865 42.8005 9.62337 42.5998 9.73167C42.3992 9.83997 42.1676 9.89412 41.8975 9.89412Z" fill="black"/>
<path d="M29.1023 35.3606V27.238H30.9622V35.3606H29.1023ZM23.8699 35.3606V27.2302H25.7375V35.3606H23.8699ZM25.1896 32.0806V30.3555H30.0979V32.0806H25.1896ZM32.4517 35.3606V29.5587H34.2575V35.3606H32.4517ZM33.3469 28.8161C33.0768 28.8161 32.8375 28.7155 32.6292 28.5066C32.4208 28.2978 32.3282 28.0657 32.3282 27.7949C32.3282 27.5242 32.4285 27.2689 32.6292 27.0678C32.8375 26.8744 33.0768 26.7738 33.3469 26.7738C33.617 26.7738 33.864 26.8744 34.0646 27.0678C34.2653 27.2689 34.3656 27.5087 34.3656 27.7949C34.3656 28.0657 34.2653 28.3055 34.0646 28.5066C33.864 28.7155 33.6247 28.8161 33.3469 28.8161ZM38.2629 37.8438C37.7921 37.8438 37.3831 37.8129 37.0281 37.751C36.6808 37.6891 36.3798 37.6117 36.1329 37.5112C35.8859 37.4106 35.6853 37.2946 35.5232 37.1708L36.2255 35.7319L36.6654 35.9331C36.8352 36.0181 37.0435 36.0878 37.2905 36.1497C37.5374 36.2115 37.8384 36.2425 38.1857 36.2425C38.4558 36.2425 38.695 36.1883 38.9034 36.0878C39.1118 35.9872 39.2816 35.8247 39.405 35.6004C39.5208 35.3761 39.5825 35.1053 39.5825 34.7727V29.5587H41.3884V34.703C41.3884 35.3529 41.2649 35.9098 41.018 36.3817C40.771 36.8536 40.416 37.2172 39.953 37.4647C39.4899 37.72 38.9266 37.8438 38.2629 37.8438ZM37.8461 35.144C37.3059 35.144 36.8429 35.0357 36.4493 34.8114C36.0634 34.587 35.7624 34.2776 35.5464 33.8676C35.338 33.4576 35.2299 32.9702 35.2299 32.4055C35.2299 31.7866 35.338 31.2529 35.5464 30.8119C35.7547 30.371 36.0557 30.0306 36.4493 29.783C36.8429 29.5432 37.3059 29.4195 37.8461 29.4195C38.2937 29.4195 38.6796 29.5432 39.0115 29.783C39.3356 30.0306 39.5903 30.3787 39.7678 30.8274C39.9453 31.2761 40.0379 31.8098 40.0379 32.4364C40.0379 32.9934 39.9453 33.473 39.7678 33.8753C39.5903 34.2776 39.3356 34.587 39.0115 34.8114C38.6796 35.0357 38.2937 35.144 37.8461 35.144ZM38.3786 33.6355C38.6102 33.6355 38.8108 33.5813 38.9729 33.4653C39.1349 33.3493 39.2661 33.2023 39.3587 33.0089C39.4436 32.8155 39.4899 32.5912 39.4899 32.3436C39.4899 32.0806 39.4436 31.8563 39.351 31.6629C39.2584 31.4695 39.1272 31.3147 38.9652 31.2064C38.8031 31.0981 38.6024 31.044 38.3709 31.044C38.1394 31.044 37.9465 31.0981 37.769 31.2064C37.5992 31.3147 37.468 31.4695 37.3677 31.6629C37.2673 31.8563 37.221 32.0806 37.2133 32.3436C37.2133 32.5912 37.2673 32.8155 37.3677 33.0089C37.468 33.2023 37.5992 33.3493 37.7767 33.4653C37.9542 33.5813 38.1548 33.6355 38.3786 33.6355ZM42.5923 35.3606V27.238H44.3982V35.3606H42.5923ZM46.3198 35.3606V32.39H48.1257V35.3606H46.3198ZM46.3198 32.39C46.3198 32.0806 46.289 31.833 46.2195 31.6551C46.15 31.4772 46.0497 31.338 45.9185 31.2529C45.7873 31.1678 45.633 31.1214 45.4555 31.1136C45.1082 31.1059 44.8458 31.1987 44.6683 31.3998C44.4908 31.5932 44.3982 31.8949 44.3982 32.2972H43.858C43.858 31.6861 43.9506 31.1678 44.1358 30.7346C44.321 30.3091 44.5757 29.9764 44.8921 29.7521C45.2085 29.5278 45.579 29.4195 45.9957 29.4195C46.4665 29.4195 46.86 29.5123 47.1765 29.7057C47.4929 29.8991 47.7321 30.1853 47.8865 30.5721C48.0485 30.9589 48.1257 31.454 48.1257 32.0574V32.39H46.3198ZM9.03711 46.9644V38.8417H12.2244C12.8109 38.8417 13.328 38.9578 13.7833 39.1976C14.2386 39.4374 14.6013 39.7623 14.856 40.1723C15.1107 40.5823 15.2419 41.0697 15.2419 41.6189C15.2419 42.1681 15.1184 42.6246 14.8637 43.05C14.6168 43.4755 14.2695 43.8004 13.8219 44.0402C13.3743 44.28 12.8572 44.4038 12.2784 44.4038H10.9047V46.9644H9.03711ZM10.9124 42.6864H12.2398C12.5717 42.6864 12.8418 42.5859 13.0424 42.3847C13.2431 42.1914 13.3434 41.9361 13.3434 41.6189C13.3434 41.3017 13.2354 41.0387 13.0193 40.8453C12.8109 40.6519 12.5331 40.5513 12.1858 40.5513H10.9124V42.6864ZM18.6144 47.1036C18.0124 47.1036 17.4799 46.9721 17.0169 46.7168C16.5538 46.4615 16.1911 46.098 15.9287 45.6415C15.6663 45.1851 15.5352 44.6591 15.5352 44.0634C15.5352 43.4678 15.6663 42.934 15.9287 42.4776C16.1988 42.0212 16.5616 41.6653 17.0246 41.41C17.4877 41.1547 18.0279 41.0232 18.6375 41.0232C19.1855 41.0232 19.6794 41.1547 20.1193 41.4178C20.5592 41.6808 20.9065 42.0753 21.1611 42.5936C21.4235 43.1119 21.5547 43.754 21.5547 44.5276H17.2021L17.395 44.311C17.395 44.574 17.4491 44.8061 17.5571 45.0072C17.6652 45.2083 17.8195 45.3631 18.0124 45.4636C18.2054 45.5642 18.4215 45.6183 18.6607 45.6183C18.9462 45.6183 19.1855 45.5564 19.3784 45.4249C19.5791 45.3012 19.718 45.1387 19.7952 44.9453L21.3927 45.4946C21.2383 45.8581 21.0222 46.1598 20.7367 46.3997C20.4511 46.6395 20.1347 46.8174 19.772 46.9334C19.4093 47.0495 19.0234 47.1036 18.6144 47.1036ZM17.4413 43.5529L17.2561 43.3208H19.8492L19.6871 43.5529C19.6871 43.2666 19.6331 43.0423 19.5173 42.8721C19.4016 42.7019 19.2549 42.5781 19.0852 42.5008C18.9154 42.4312 18.7456 42.3925 18.5758 42.3925C18.406 42.3925 18.2362 42.4312 18.0587 42.5008C17.889 42.5781 17.7423 42.7019 17.6188 42.8721C17.5031 43.0423 17.4413 43.2666 17.4413 43.5529ZM23.6538 43.9629C23.6538 43.3363 23.7773 42.8102 24.032 42.3925C24.2867 41.9747 24.6031 41.6653 24.9812 41.4564C25.3594 41.2476 25.7607 41.1393 26.1774 41.1393V42.903C25.8224 42.903 25.4906 42.9417 25.1742 43.0191C24.8655 43.0964 24.6108 43.2125 24.4179 43.3749C24.2249 43.5374 24.1323 43.7385 24.1323 43.9861L23.6538 43.9629ZM22.3265 46.9644V41.1625H24.1323V46.9644H22.3265ZM27.5125 46.9644V40.6287C27.5125 39.9944 27.6746 39.4993 28.0065 39.1357C28.3383 38.7721 28.8477 38.5864 29.5345 38.5864C29.7892 38.5864 30.0593 38.6329 30.3371 38.718C30.6149 38.8108 30.8542 38.9114 31.0548 39.0274L30.3834 40.3038C30.2908 40.2419 30.1982 40.1955 30.1056 40.1723C30.013 40.1491 29.9281 40.1336 29.8509 40.1336C29.6657 40.1336 29.5268 40.1955 29.4419 40.3193C29.357 40.4508 29.3184 40.6597 29.3184 40.9536V46.9644H27.5125ZM26.5942 42.5936V41.1625H30.6227V42.5936H26.5942ZM34.2267 47.1036C33.617 47.1036 33.0768 46.9721 32.6137 46.7168C32.1507 46.4615 31.788 46.098 31.5179 45.6415C31.2555 45.1851 31.1243 44.6591 31.1243 44.0634C31.1243 43.4678 31.2555 42.9417 31.5102 42.4853C31.7648 42.0289 32.1275 41.673 32.5983 41.41C33.0691 41.1547 33.5938 41.0232 34.1881 41.0232C34.7978 41.0232 35.338 41.1547 35.8087 41.41C36.2718 41.673 36.6345 42.0289 36.8892 42.4853C37.1516 42.9417 37.2828 43.4678 37.2828 44.0634C37.2828 44.6591 37.1516 45.1851 36.8892 45.6415C36.6345 46.098 36.2718 46.4615 35.8087 46.7168C35.3457 46.9721 34.8209 47.1036 34.2267 47.1036ZM34.2267 45.4327C34.4582 45.4327 34.6666 45.3785 34.8441 45.2625C35.0216 45.1464 35.1682 44.984 35.2685 44.7751C35.3766 44.574 35.4306 44.3342 35.4306 44.0634C35.4306 43.7927 35.3766 43.5606 35.2685 43.3517C35.1682 43.1429 35.0216 42.9881 34.8363 42.8721C34.6511 42.7561 34.4428 42.6942 34.2035 42.6942C33.9643 42.6942 33.7482 42.7561 33.563 42.8721C33.3778 42.9881 33.2311 43.1429 33.1308 43.3517C33.0305 43.5606 32.9765 43.7927 32.9765 44.0634C32.9765 44.3342 33.0305 44.574 33.1308 44.7751C33.2311 44.984 33.3778 45.1464 33.5707 45.2625C33.7636 45.3785 33.9797 45.4327 34.2267 45.4327ZM39.4899 43.9629C39.4899 43.3363 39.6134 42.8102 39.8681 42.3925C40.1228 41.9747 40.4392 41.6653 40.8173 41.4564C41.1955 41.2476 41.5968 41.1393 42.0135 41.1393V42.903C41.6585 42.903 41.3267 42.9417 41.018 43.0191C40.7016 43.0964 40.4469 43.2125 40.254 43.3749C40.061 43.5374 39.9684 43.7385 39.9684 43.9861L39.4899 43.9629ZM38.1548 46.9644V41.1625H39.9607V46.9644H38.1548ZM42.7698 46.9644V41.1625H44.4677L44.5371 41.8974C44.7223 41.6112 44.9538 41.3946 45.2317 41.2476C45.5018 41.1006 45.8028 41.0232 46.1346 41.0232C46.6131 41.0232 47.0067 41.1238 47.3231 41.3172C47.6395 41.5183 47.8633 41.82 48.0099 42.2223C48.1874 41.8355 48.4344 41.5415 48.7431 41.3327C49.0518 41.1238 49.3991 41.0232 49.7849 41.0232C50.4795 41.0232 51.0043 41.2398 51.3516 41.6653C51.6988 42.0908 51.8763 42.7483 51.8686 43.6457V46.9644H50.0628V43.9938C50.0628 43.6844 50.0319 43.4368 49.9624 43.2589C49.893 43.081 49.8004 42.9417 49.6769 42.8566C49.5534 42.7715 49.4068 42.7251 49.237 42.7174C48.9052 42.7174 48.6582 42.8102 48.4807 43.0036C48.3032 43.197 48.2183 43.4987 48.2183 43.901V46.9644H46.4124V43.9938C46.4124 43.6844 46.3816 43.4368 46.3121 43.2589C46.2504 43.081 46.1578 42.9417 46.0343 42.8566C45.9108 42.7715 45.7642 42.7251 45.5944 42.7174C45.2625 42.7174 45.0079 42.8102 44.8381 43.0036C44.6606 43.197 44.5757 43.4987 44.5757 43.901V46.9644H42.7698ZM55.7428 47.1036C55.1408 47.1036 54.6083 46.9721 54.1453 46.7168C53.6822 46.4615 53.3195 46.098 53.0571 45.6415C52.7947 45.1851 52.6635 44.6591 52.6635 44.0634C52.6635 43.4678 52.7947 42.934 53.0648 42.4776C53.3349 42.0212 53.6977 41.6653 54.1607 41.41C54.6237 41.1547 55.1562 41.0232 55.7659 41.0232C56.3139 41.0232 56.8078 41.1547 57.2477 41.4178C57.6875 41.6808 58.0425 42.0753 58.2972 42.5936C58.5519 43.1119 58.6831 43.754 58.6831 44.5276H54.3305L54.5311 44.311C54.5311 44.574 54.5852 44.8061 54.6932 45.0072C54.8012 45.2083 54.9479 45.3631 55.1408 45.4636C55.3337 45.5642 55.5498 45.6183 55.7891 45.6183C56.0746 45.6183 56.3216 45.5564 56.5145 45.4249C56.7074 45.3012 56.8464 45.1387 56.9235 44.9453L58.521 45.4946C58.3667 45.8581 58.1506 46.1598 57.8728 46.3997C57.5872 46.6395 57.2631 46.8174 56.9004 46.9334C56.5377 47.0495 56.1518 47.1036 55.7428 47.1036ZM54.5697 43.5529L54.3845 43.3208H56.9775L56.8155 43.5529C56.8155 43.2666 56.7537 43.0423 56.638 42.8721C56.5222 42.7019 56.3833 42.5781 56.2135 42.5008C56.0437 42.4312 55.874 42.3925 55.7042 42.3925C55.5344 42.3925 55.3646 42.4312 55.1871 42.5008C55.0096 42.5781 54.863 42.7019 54.7472 42.8721C54.6315 43.0423 54.5697 43.2666 54.5697 43.5529ZM60.7822 43.9629C60.7822 43.3363 60.9057 42.8102 61.1604 42.3925C61.4073 41.9747 61.7237 41.6653 62.1096 41.4564C62.4878 41.2476 62.8891 41.1393 63.3058 41.1393V42.903C62.9508 42.903 62.619 42.9417 62.3025 43.0191C61.9861 43.0964 61.7392 43.2125 61.5462 43.3749C61.3533 43.5374 61.253 43.7385 61.253 43.9861L60.7822 43.9629ZM59.4394 46.9644V41.1625H61.2453V46.9644H59.4394Z" fill="black"/>
<path d="M20.667 55.5744V52.5961H21.2998L22.1642 53.8802L23.0285 52.5961H23.6613V55.5744H23.0825V53.5012L22.1642 54.8549L21.2458 53.5089V55.5744H20.667ZM24.7341 55.5744V52.5961H25.3206V55.5744H24.7341ZM26.3856 55.5744V52.5961H27.3348C27.6358 52.5961 27.9059 52.658 28.1451 52.7817C28.3767 52.9132 28.5619 53.0834 28.6931 53.3078C28.8243 53.5321 28.886 53.7874 28.886 54.0814C28.886 54.3753 28.8243 54.6306 28.6931 54.8549C28.5619 55.0793 28.3767 55.2495 28.1451 55.381C27.9059 55.5125 27.6358 55.5744 27.3348 55.5744H26.3856ZM26.9644 55.0251H27.3348C27.4737 55.0251 27.5972 55.0019 27.713 54.9555C27.8287 54.9014 27.9368 54.8395 28.0217 54.7544C28.1066 54.6693 28.1683 54.5687 28.2223 54.4527C28.2686 54.3366 28.2918 54.2129 28.2918 54.0814C28.2918 53.9498 28.2686 53.8261 28.2223 53.71C28.1683 53.594 28.1066 53.4934 28.0217 53.4083C27.9368 53.3232 27.8287 53.2614 27.713 53.2072C27.5972 53.1608 27.4737 53.1376 27.3348 53.1376H26.9644V55.0251ZM29.6809 54.5455V54.0659H30.9543V54.5455H29.6809ZM31.9344 55.5744V52.5961H32.5595L33.4316 53.8802L34.2959 52.5961H34.921V55.5744H34.3422V53.5012L33.4316 54.8549L32.5132 53.5089V55.5744H31.9344ZM38.0543 55.5744L36.9121 52.5961H37.4986L38.6639 55.5744H38.0543ZM35.7005 55.5744L36.8735 52.5961H37.46L36.3179 55.5744H35.7005ZM36.2638 54.9168V54.3985H38.1237V54.9168H36.2638ZM39.4511 55.5744V52.5961H40.5547C40.7631 52.5961 40.9483 52.6347 41.1104 52.7121C41.2724 52.7972 41.3959 52.9055 41.4885 53.0525C41.5734 53.1995 41.6197 53.3619 41.6197 53.5553C41.6197 53.7487 41.5734 53.9034 41.4808 54.0504C41.3805 54.1974 41.2493 54.3134 41.0872 54.3908C40.9251 54.4759 40.7399 54.5146 40.5316 54.5146H40.0299V55.5744H39.4511ZM41.0872 55.5744L40.4004 54.3753L40.848 54.0581L41.7509 55.5744H41.0872ZM40.0299 53.9808H40.5547C40.6396 53.9808 40.7245 53.9653 40.7939 53.9266C40.8634 53.888 40.9174 53.8415 40.956 53.7719C40.9946 53.71 41.0178 53.6404 41.0178 53.5553C41.0178 53.4238 40.9714 53.3232 40.8788 53.2459C40.7862 53.1608 40.6705 53.1221 40.5238 53.1221H40.0299V53.9808ZM42.9625 54.8163L42.9008 54.0891L44.2899 52.5961H45.0385L42.9625 54.8163ZM42.6075 55.5744V52.5961H43.1863V55.5744H42.6075ZM44.3671 55.5744L43.1863 54.0581L43.6031 53.71L45.0848 55.5744H44.3671ZM45.872 55.5744V52.5961H47.7473V53.1221H46.4508V53.8029H47.5698V54.3212H46.4508V55.0406H47.7628V55.5744H45.872ZM49.4143 55.5744V53.1221H48.5191V52.5961H50.8806V53.1221H49.9931V55.5744H49.4143Z" fill="black"/>
<path d="M54.7935 0H71V16.2453H54.7935V0Z" fill="#FF492C"/>
<mask id="mask0_753_9698" style="mask-type:luminance" maskUnits="userSpaceOnUse" x="54" y="0" width="17" height="17">
<path d="M71 0H54.7935V16.2453H71V0Z" fill="white"/>
</mask>
<g mask="url(#mask0_753_9698)">
<path fill-rule="evenodd" clip-rule="evenodd" d="M66.408 6.21961H65.0266C65.0652 6.00301 65.1964 5.87924 65.4665 5.73999L65.7212 5.60848C66.1765 5.37641 66.4235 5.11339 66.4235 4.68018C66.4312 4.4249 66.3154 4.18509 66.1071 4.03811C65.8987 3.88339 65.6517 3.80603 65.3662 3.80603C65.1424 3.80603 64.9263 3.86792 64.7334 3.98395C64.5559 4.09226 64.4092 4.24697 64.3166 4.44037L64.7179 4.84263C64.8723 4.52546 65.0961 4.37075 65.3971 4.37075C65.644 4.37075 65.8061 4.50226 65.8061 4.68018C65.8061 4.8349 65.7289 4.95867 65.4434 5.10565L65.2813 5.18301C64.9263 5.36094 64.6793 5.5698 64.5404 5.80188C64.4015 6.03395 64.3243 6.32792 64.3243 6.68377V6.7766H66.4235V6.20414L66.408 6.21961ZM66.2228 7.45735H63.9307L62.7886 9.44546H65.0806L66.2228 11.4336L67.365 9.44546L66.2228 7.45735Z" fill="white"/>
<path fill-rule="evenodd" clip-rule="evenodd" d="M62.9814 10.776C61.5228 10.776 60.3344 9.58469 60.3344 8.12261C60.3344 6.66053 61.5228 5.46921 62.9814 5.46921L63.8843 3.5662C61.3762 3.06336 58.9375 4.69563 58.4359 7.20978C58.3741 7.51148 58.3433 7.81318 58.3433 8.12261C58.3433 10.6832 60.4192 12.7641 62.9737 12.7641C63.9538 12.7641 64.9108 12.4547 65.7057 11.8745L64.7024 10.1339C64.2239 10.5517 63.6142 10.776 62.9737 10.776H62.9814Z" fill="white"/>
<path d="M55.1714 0.518311V15.8894" stroke="black" stroke-width="1.09"/>
</g>
<path d="M0 64.6098V59.5815L35.5 77.4049L71 59.5815V64.6098L35.5 82L0 64.6098Z" fill="#FF492C"/>
<path d="M0 60.0069V54.9786L35.5 72.802L71 54.9786V60.0069L35.5 77.3971L0 60.0069Z" fill="#FFC800"/>
<path d="M0 55.4118V50.3835L35.5 68.2069L71 50.3835V55.4118L35.5 72.802L0 55.4118Z" fill="white"/>
<path d="M70.6679 15.8817H0.48596M70.583 64.2075L35.4998 81.5358L0.416504 64.2075V0.417725H70.5753V64.1998L70.583 64.2075Z" stroke="black" stroke-width="1.09"/>
</g>
<defs>
<clipPath id="clip0_753_9698">
<rect width="71" height="82" fill="white"/>
</clipPath>
</defs>
</svg>
