<svg fill="none" height="37" viewBox="0 0 48 37" width="48" xmlns="http://www.w3.org/2000/svg"><g clip-rule="evenodd" fill="#000" fill-rule="evenodd"><path d="m4.37773 34.2334c-.16.37.00001.84-.25999 1.17-.43.43-1.13001.43-1.56001 0-.04-.04-.07-.07-.1-.12-.3-.48-.44-1.05-.4-1.62-.04-.58.13001-1.16.48001-1.63.33-.32.82-.41 1.25-.24.32.14.37999.52.44999.83.06.24.11.56.39.63.3.11.63.05.87-.15.21-.34.09-.74.1-1.12.02-.39.02-.79-.02-1.18-.05-.29-.39-.32-.62-.28-.25.03-.31999.3-.41999.5-.5-.64-1.41001-.64-2.13001-.46-.93.25-1.659998.98-1.889998 1.91-.23.83-.229995 1.7.020005 2.53.19.7.669993 1.3 1.309993 1.64.67.3 1.43.38 2.15.21.63-.08 1.2-.43 1.56-.97.24-.43.31-.94.18-1.42-.15-.41-.59-.62-1-.47-.13.05-.24999.13-.33999.24zm23.51997-11.78c-.2-.03-.41 0-.6.09-.65.21-1.36-.02-1.76-.57-.33-.47-.56-1-.69-1.57-.28-1.08-.14-2.23.39-3.21.47-.94 1.32-1.62 2.33-1.89 1.21-.22 2.46.07 3.45.8.72.54 1.2 1.35 1.33 2.24.13.87.18 1.75.15 2.63-.07.75-.23 1.49-.47 2.2-.16.48-.36.96-.59 1.41-.23.42-.4.87-.51 1.34.04.07.07.14.1.22.33-.04.53-.34.76-.56 3.3-3.36 6.59-6.72 9.89-10.07.48-.41.84-.93 1.05-1.52-.04-.59-.31-1.13-.77-1.51-3.5-3.61003-7-7.21003-10.5-10.82003-.09-.12-.24-.07999-.36-.07999-.03.06-.09.14999-.11.20999.29.66.79 1.21 1.02 1.9.49 1.26.74 2.59.76 3.93.04 1.2-.41 2.36-1.23 3.23003-.97.84-2.24 1.23-3.51 1.1-.95-.06-1.83-.49-2.47-1.19-.49-.62-.75-1.38003-.75-2.17003-.06-.87.09-1.75.44-2.55.33-.67 1-1.12 1.75-1.16.38-.03.75.12 1.13.06.07-.42-.05-.85-.32-1.18-.5-.71-1.12-1.32999-1.83-1.80999-1.22-.86-2.74-1.17001-4.21-.88001-1 .26-1.9.84001-2.54 1.65001-.8 1-1.41 2.14999-1.8 3.36999-.66 2-1.06 4.07003-1.18 6.16003-.13 2.19-.03 4.39.32 6.56.35 1.98.89 4.01 2.11 5.63.83 1.17 2.1 1.95 3.52 2.16 1.29.19 2.61-.07 3.73-.73.87-.53 1.56-1.3 1.99-2.22.13-.37.33-.88-.01-1.19zm3.34 8.37c-.33-.26-.75-.39-1.17-.37-.51-.07-1.03.08-1.43.41-.3.38-.45.87-.4 1.36-.33 0-.72-.13-1 .09-.21.25-.22.77.12.91.26.03.52.03.78 0 .09.31.12.63.08.94.02.54 0 1.07-.03 1.61-.27.03-.54-.06-.81-.02-.31.14-.45.51-.3.82.02.04.04.07.06.1.23.17.53.23.81.16.74-.05 1.49-.04 2.23.02.23.04.46-.04.61-.22.18-.28.1-.65-.18-.83-.03-.02-.06-.03-.09-.05-.28-.05-.55.06-.82.02-.05-.84-.03-1.68 0-2.52.28-.03.56.03.83-.02.33-.23.32-.9-.1-1.02-.26-.01-.52 0-.78.02 0-.26-.05-.58.14-.8.09-.1.25-.07.36-.07.05.19.03.43.21.56.34.26.83.19 1.09-.15.15-.32.08-.69-.17-.93zm-15.39 1.34c-.44-.15-.91-.11-1.32.1-.27.2-.49.47-.62.78.02-.3 0-.59-.06-.89-.55 0-1.1 0-1.65-.02-.52.02-.62.91-.14 1.09.24-.03.48-.04.72-.04.03.46.04.92.03 1.39.01.41 0 .82-.03 1.22-.24-.03-.48-.05-.73-.05-.25.06-.31.36-.29.58-.02.21.1.42.3.5.47.01.94 0 1.42-.04.53-.02 1.05.09 1.58.05s.56-.99.05-1.1c-.26-.02-.52.06-.78.06-.05-.38-.07-.77-.05-1.15-.04-.4.06-.8.28-1.14.15-.15.33-.26.54-.3-.05.22-.04.45.05.66.27.37.79.45 1.16.18.02-.02.05-.04.07-.06.38-.55.25-1.3-.3-1.68-.07-.05-.14-.09-.21-.12zm5.22.07c-.43-.21-.94-.22-1.38-.02-.32.19-.57.48-.72.82.02-.3 0-.59-.04-.89-.4-.02-.79.03-1.19 0-.27 0-.62-.08-.8.18-.21.26-.16.64.1.85.02.02.05.03.07.05.24 0 .48-.05.72-.03.04.43.05.87.04 1.3.01.43 0 .87-.04 1.3-.28 0-.59-.13-.85 0-.28.3-.24 1.05.28 1.04.47 0 .95-.08 1.42-.06.47 0 .95.09 1.42.05.55-.05.57-.99.05-1.1-.27-.02-.54.1-.81.02-.03-.49-.03-.99 0-1.48-.03-.5.3-.95.79-1.07-.06.23-.03.48.09.7.28.34.79.39 1.13.11.09-.07.16-.17.22-.28.2-.56-.01-1.18-.51-1.49zm20.79 3.51c-.06-1.09 0-2.17-.03-3.26-.01-.12-.04-.24-.08-.36-.54-.03-1.08.05-1.62 0-.2 0-.43-.05-.58.1-.23.23-.26.59-.07.86.24.19.58.1.88.13.03.45.04.91.02 1.37.01.3-.05.59-.19.86-.21.25-.55.33-.85.2-.24-.12-.39-.38-.36-.66-.02-.56 0-1.12 0-1.68.03-.39 0-.78-.07-1.16-.46-.04-.92.05-1.38 0-.25-.03-.5-.03-.74 0-.3.17-.4.55-.22.85.04.06.08.12.14.16.26.03.53.05.8.04.07.88-.02 1.76.08 2.63.05.39.29.74.63.93.86.45 1.93.16 2.44-.66-.02.25-.01.5 0 .75.45.03.9-.07 1.34-.02.25 0 .55.11.77-.09.23-.25.25-.62.06-.9-.27-.21-.64-.05-.95-.09zm5.55-3.5c-.47-.25-1.03-.23-1.49.03-.25.19-.45.43-.59.71.02-.29-.01-.58-.09-.86-.52.03-1.03.03-1.55 0-.47-.02-.66.6-.41.93.21.34.62.02.93.15.03.85.03 1.69 0 2.54-.27.06-.55-.06-.82.02-.27.24-.3.66-.06.94.03.04.07.07.11.1.29.04.59.04.88 0 .61-.03 1.21-.02 1.82.04.22 0 .5 0 .64-.19.2-.29.13-.68-.16-.87-.02-.01-.04-.03-.06-.04-.28 0-.55.01-.82.05-.06-.38-.07-.77-.05-1.15-.04-.42.07-.83.31-1.18.14-.13.31-.23.5-.26 0 .23-.07.5.08.7.28.34.79.39 1.13.11.12-.1.21-.23.25-.37.14-.53-.08-1.1-.55-1.39zm-20.88 2.41c.21-.21.14-.54.13-.8-.05-.61-.38-1.15-.89-1.49-.6-.32-1.29-.42-1.96-.29-.84.15-1.52.77-1.72 1.6-.21.75-.12 1.55.25 2.23.35.57.95.94 1.61 1.01.7.11 1.41 0 2.04-.34.31-.17.54-.47.61-.82.04-.2-.01-.41-.15-.57-.26-.21-.62-.26-.93-.13-.37.14-.35.7-.75.78-.35.09-.73 0-.99-.27-.17-.26-.25-.56-.24-.86h2.59c.13 0 .27-.02.4-.06zm-2.94-.79c.02-.21.1-.42.24-.58.27-.25.67-.3 1-.13.22.16.35.43.34.7-.52.02-1.05.02-1.58 0zm11.68-1.43c-.57-.36-1.25-.49-1.91-.37-.94.12-1.69.83-1.87 1.76-.2.84-.01 1.72.51 2.4.46.5 1.12.77 1.8.74.66.05 1.31-.19 1.79-.66.54-.6.77-1.42.63-2.22-.06-.66-.41-1.27-.95-1.65zm-.64 2.89c-.21.44-.74.63-1.18.43-.11-.05-.21-.13-.29-.22-.25-.38-.35-.84-.28-1.29 0-.39.19-.75.5-.98.44-.24 1-.08 1.24.36l.01.03c.22.53.22 1.14 0 1.67zm-24.02.39c-.06-.86.03-1.71-.06-2.57-.02-.31-.18-.6-.43-.78-.43996-.25-.94997-.37-1.44997-.34-.57-.05-1.13.06-1.64.32-.38.22-.52001.69-.33001 1.09.31.4.89002.5 1.31002.22.26-.14.15999-.49.20999-.74.21-.07.44001-.07.65001 0 .19.1.30999.3.29999.52-.08.22-.26999.37-.48999.42-.48.16-1.00001.18-1.49001.34-.31.06-.58.24-.77.5-.2.34-.26.75-.18 1.14.12.56.57001.98 1.13001 1.08.75.16 1.52999-.01 2.15999-.46.35.5 1.00997.66 1.53997.38.3-.19.39-.59.21-.89-.21-.1-.43-.17-.66-.22zm-1.68997 0c-.26.24-.65001.29-.97001.14-.21-.13-.28998-.41-.15998-.62.04-.07.09999-.12.16999-.16.38-.15.78001-.2 1.16001-.34.05.34-.02001.69-.21001.98z"/><path d="m13.0673 2.16325c.19-.21.41-.40999.64-.56999.1.02.19.03999.28.06999.04.33-.2.58002-.36.84002-.35.58-.68 1.16999-1.04 1.73999-.92 1.65-1.52 3.45-1.79 5.32-.17 1.05004-.28 2.11004-.32 3.17004-.13 2.04.03 4.09.48 6.08.39 1.74 1.04 3.41 1.92 4.97.34.66.74 1.28 1.11 1.92.07.13.1.28.06.42-.32.08-.53-.18-.73-.38-3.53002-3.52-7.09003-7-10.62003-10.52-.44-.36-.71-.88-.75-1.44.14-.76.79-1.26 1.3-1.77 3.27-3.29004 6.54-6.57004 9.81003-9.84004z"/></g></svg>