<svg fill="none" height="52" viewBox="0 0 96 52" width="96" xmlns="http://www.w3.org/2000/svg"><path d="m9.24821 46.34c.68001-.76 1.39999-1.48 2.15999-2.15-.15-.01-.38-.04-.64-.08-.55.5-1.24999 1.23-1.87999 1.91-.8.86-1.45001 1.61-1.45001 1.61-.01 0-.00999.02-.01999.03-.52.14-1.4.39-1.99.55-.87.24-1.65.18-1.65.75 0 0-.9.48-.69 1.2 0 0 1.81-1.45 3.36-1.69 0 0-.95.62-.86 1.45 0 0 1.27-1.91 2.76-.75 0 0-.66-.9-.39-1.4.24-.27.73-.82 1.3-1.43zm-2.87001-22.52c-.08.03-.15999.05-.23999.05-.27 0-.52001-.17-.62001-.42-.01-.02-.01999-.05-.03-.07l-.19999.06c.14.47.64.73 1.11.59.11-.04.20999-.1.28999-.18.26-.25.35-.63.22-.97l-.44999.15c.03.07.05.14.05.21 0 .06-.00999.13-.03999.18l.19999.13c-.04.06-.08.11-.13.15-.05.05-.11.08-.17.11zm18.23-1.46-8.9 2.17 17.38-7.52-14.33 1.75 7.67-5.6-8.22 3.21 1.24-2.49-5.88 4.23-.05-.09 8.33-18.02-13.55 16.04-.07998-8.75001-4.97001 11.69001-.26001-3.45-2.449992 8.97c.24-.16.500002-.29.770002-.38 0 0 .07-.02.11-.03h.01c.04 0 .07-.02.11-.02h.02c.04 0 .07-.01.11-.01l.11-.01h.01999.12001.01.1.01999c.04 0 .07.01.11.02h.02001c.04 0 .07999.02.11999.03.5.18 1.05001.18 1.55001 0 0 0 .79.51.79.93 0 0-1.04.06-1.04-.4-1.06-.28-2.18001-.2-3.190007.22l3.920017 1.69s-.21001-.75.01999-1c.07-.09.19999-.12.38999-.05.05001.03.11001.02.16001-.01.3-.31-1.17-3.04-1.17-3.04-.94-.02-1.84.37-2.48 1.07-.08.08-.16001.17-.23001.26.29-.5.67-.94 1.11-1.31.41-.35.88-.6 1.39-.75.15-.36-.03999-.13.27001-.32.32-2.06 1.21001-3.98 2.57001-5.56.13-.14.25999-.28.38999-.42-.26.48-.42001 1-.48001 1.54.34-.49.73001-.95 1.15001-1.38 0 0-.01.01-.02.02-.12.26-1.01999 2.17-.92999 2.73v.01l1.80999-1.66c-.05.08-1.7 2.31-1.86 3.07l2.73999-1.95s-.34999.49-.48999.75c-.05.08-.09.17-.11.27l1.47999-.62s-.05999.08-.16999.19l-.55.56-.13001.14-1 1.01-.01999.02-.76001.77-.48999.5c-.18.18-.33999.4-.44999.63-.05.21.17999.34.17999.34.2.11.37001.29.46001.5.06.13.07998.27.07998.41 0 .28-.10999.55-.31999.74-.41.39-1.05.42-1.48.05.39.46 1.07.54 1.56.2l1.22-.89.05001-.04 1.26998-.93c.32.39.6.81.84 1.26-.74998.71-2.03999 1.95-3.31999 3.31-.76.81-1.52999 1.66-2.17999 2.46l.45999-2.15.04001-.18s-.00001 0-.01001 0h-.01s-.01 0-.02 0 0 0-.01 0c0 0-.01 0-.02.01 0 0-.00001.01-.02001.01 0 0-.00998.01-.01998.01 0 0-.01001.01-.02001.02 0 0-.01.01-.02.02 0 0-.01001.02-.02001.02s-.02.02-.03.02c0 0-.00998.01-.01998.02-.01 0-.02.02-.03.03-.01 0-.02002.01-.03002.02 0 .01-.02.02-.03.03 0 0-.01999.02-.01999.03-.01 0-.03.02-.04.03 0 0-.02.02-.03.02-.01.02-.02.03-.04.04 0 0-.02.01-.02.02 0 0-.02.02-.03.02 0 0-.03001.03-.04001.05-.01 0-.02.02-.03.03-.02.01-.02999.03-.03999.04s-.02001.03-.04001.04c0 .01-.02.02-.03.03l-.01999.02s-.01999.03-.02999.04-.02001.03-.04001.04h-.01s-.01.03-.02.04c-.01.02-.03001.04-.05001.05-.01.02-.02999.03-.03999.05s-.03.04-.05.05-.02999.03-.03999.05-.03001.04-.05001.06-.03001.03-.04001.05-.02998.04-.04998.07c-.01.01-.03001.03-.04001.05-.02.03-.04.05-.06.08-.01.02-.02999.03-.03999.05-.02.03-.05001.06-.07001.09 0 .01-.02.03-.03.04-.03.05-.07001.09-.10001.14s-.06999.1-.09999.15c0 .02-.02.03-.03.04-.02.04-.05.07-.07.11-.01.02-.02.04-.04.05-.02.04-.04.07-.07.1-.01.02-.02.04-.04.06-.02.04-.04.07-.07.11-.01.02-.02.04-.04.07-.02.04-.04.07-.07.11-.01.02-.03.04-.04.07-.02.04-.04001.08-.07001.12-.01.02-.01999.05-.02999.07-.1.19-.20001.38-.30001.58l-.5.09c.1-.26.20002-.5.31002-.72l-.82001 1.16.82001-.08c-.87 2.14-1.29001 4.43-1.22001 6.74l.67-.42c.38 2.02 1.6 3.78 3.36 4.84v-.02c1.64 1.05 3.49 1.73 5.42999 1.98.28.04.51.06.57.06 0 0 .07 0 .11.01 1.07.09 2.15.06 3.22-.09v.12c-.07.57.29 1.1.84 1.26-.69 1.23-1.27 2.52-1.75 3.84-.04.13-.1.24-.19.34-.18.04-.35.09-.52.15-.53-.18-1.11-.16-1.63.06-.51.23-.92.63-1.17 1.13.38-.36.87-.58 1.39-.61-.57.32-1.55.94-1.66 1.84 0 0 3.41-2.4 5.1-1.95 0 0-.25.28.33 1.31l.26-.96c.3-.94-.87-1.07-1.36-1.09 0 0 0 0 0-.01 0 0 .05-.15.15-.4.47-1.24 1.04-2.44 1.7-3.58.01-.02.02-.05.03-.08l-.14-.19c.06-.06.11-.12.16-.19.15-.23.23-.49.24-.77-.01-.36-.1-.72-.26-1.04l.44-.2c.02.06.05.11.07.16 0 .02.01.04.02.05.01.04.03.07.04.11 0 .02.01.04.02.05.01.04.02.07.04.11 0 .01 0 .03.01.04l2.5-.76-.55-.46-.02-.02h-.01l-9.45-8.62c2.63 1.27 5.69 2.76 10.89 5.17 5.12 2.36 8.37 3.74 10.04 4.42.01 0 .03.01.04.02.24.1.45.18.63.25.36.14.69.27.71.28.03-.02.06-.02.09-.04l-19.12-13.11 11.81-8.16zm-13.23 4.04-2.84999 2.17 2.03999-4.5c.35.75.62 1.53.81 2.33zm10.17 15.51.07.34 3.33 1.96.84.49-.46-1.19c2.75.81 4.99.86 6.47.16-2.59.76-9.01-1.4-10.25-1.77z" fill="#697b88"/><path d="m3.63802 24.6599c0 .46 1.03999.4 1.03999.4 0-.42-.78999-.93-.78999-.93-.5.18-1.05001.18-1.55001 0-.32-.1-.67-.1-.99 0-.31.23-.610002.47-.890002.74 1.010002-.42 2.130012-.5 3.180012-.22zm6.94998-.59-2.04 4.5 2.85-2.17c-.19-.8-.46-1.58-.8-2.33zm21.25 19.6s-6.4-2.4-22.32999-10.15l9.48999 8.64c.85-.35 1.45-.6 2.63.09l-.07-.34c1.24.37 7.68 2.54 10.27 1.76zm-15.41-.61c.16.33.25.68.26 1.04 0 .27-.09.54-.24.77-.05.07-.1.13-.16.19l.28.39c.39-.33.61-.83.59-1.34 0-.43-.11-.86-.31-1.25l-.43.2zm-5.71 1.04c.45.07.86.11.86.11l.02-.24s-.4-.04-.84-.11zm-.32-20.44c-.23-.45-.50999-.87-.83999-1.26l-2.54 1.86c-.5.35-1.18.26-1.57-.2.2.17.45.26.72.26.59 0 1.08-.46 1.09-1.06 0-.14-.03-.28-.09-.41-.1-.21-.26-.39-.46-.5 0 0-.21999-.13-.17999-.34.11-.23.25999-.45.44999-.63l1.25-1.27.02001-.02 1.12999-1.15.55-.56c.09999-.11.15999-.19.15999-.19l-1.47998.63s-.03-.02.11-.28.48999-.75.48999-.75l-2.75 1.96c.16-.77 1.87001-3.07 1.87001-3.07l-1.81001 1.66c-.12-.58.94-2.77.94-2.77-.42.43-.81.89-1.15 1.39.06-.54.22-1.06.48-1.54-1.58 1.64-2.61999 3.73-2.95999 5.98-.32.2-.12002-.04-.28002.32-1.06.36-1.94999 1.09-2.50999 2.06.64-.85 1.64001-1.35 2.71001-1.33 0 0 1.79999 3.33 1.01999 3.06s-.40999 1.05-.40999 1.05l-1.47-.64c.46.85.61999 1.84.44999 2.79-.35.54-.63999 1.11-.86999 1.72l.5-.08c.1-.21.19999-.4.28999-.59.01-.02.02999-.05.03999-.07.02-.04.04001-.08.07001-.12l.03999-.07s.04002-.07.06002-.11c.01-.02.02999-.05.03999-.07.02-.04.04001-.07.07001-.1.01-.02.01999-.04.03999-.06.02-.04.04999-.07.06999-.11.01-.02.02001-.04.04001-.06.02-.04.04999-.07.06999-.11 0-.02.02002-.03.03002-.05.03-.05.05999-.09.09999-.14.03-.05.07001-.09.10001-.14.01-.01.01999-.03.02999-.04.02-.03.05-.06.07-.09.01-.02.02-.03.04-.05.02-.03.04001-.05.05001-.08.01-.01.02999-.03.03999-.05.02-.02.04-.05.05-.07.02-.02.03-.03.04-.05.02-.02.03-.04.05-.06s.02999-.03.03999-.05.03001-.04.05001-.06.03-.03.04001-.05c.02-.02.02999-.03.03999-.05.02-.01.03001-.03.04001-.04l.04998-.05s.02001-.03.04001-.04c.02-.02.03-.03.04-.05.01-.01.03-.02.04001-.04.01-.02.02999-.03.03999-.04 0-.01.02-.02.03-.03.01-.02.03001-.03.04001-.04.01 0 .01999-.02.02999-.03.02-.02.04-.04.06-.07.01 0 .02-.01.03-.02s.01999-.02.03999-.03c0 0 .02001-.02.02001-.03.01 0 .02-.02.03-.03.01 0 .02-.01.03-.02 0-.01.01999-.02.02999-.03 0 0 .01001-.01.02001-.02.01 0 .02-.01.03-.02 0 0 .02-.01.02-.02 0 0 .02001-.01.02001-.02 0 0 .00999-.01.01999-.02 0 0 .01 0 .02-.01 0 0 .01 0 .02-.01 0 0 .01001 0 .02001-.01h.00999.02001.00999.01l-.04.18-.46 2.15c1.72-2.03 3.55-3.96 5.49999-5.78zm-5.08999-.22.2-.06s.01.05.03.07c.1.25.34999.42.61999.42.08 0 .17001-.01.24001-.05.13-.05.23-.14.31-.26l-.2-.12c.03-.06.03999-.12.03999-.19s-.01998-.15-.04998-.21l.44999-.15c.18.44-.03.94-.46 1.13-.44.18-.93999-.03-1.12999-.46-.01-.03-.03001-.07-.04001-.11z" fill="#43535f"/><g fill="#697b88"><path d="m46.9685 27.04c-.44-.1-.9-.14-1.35-.13h-1.28v7.25l.14-.1 1.06-.74.04-.03v-2.05h.4c.65.03 1.29-.18 1.79-.58.45-.4.7-.98.68-1.59.01-.58-.21-1.14-.63-1.55-.23-.23-.52-.4-.84-.48zm-1.07 3.16h-.34v-2.22h.38c.97 0 1.46.36 1.46 1.07 0 .76-.5 1.15-1.5 1.15zm7.89.87c.41-.11.78-.35 1.04-.69.3-.38.46-.85.44-1.33.02-.61-.24-1.2-.71-1.6-.6-.41-1.33-.6-2.06-.54h-1.32v7.25l.13-.1 1.06-.74.04-.03v-2.08h.06l1.97 2.83.05.07.07-.05.85-.61.07-.05-.05-.07zm-1.37-.87v-.07-2.05-.1h.38c.97 0 1.46.36 1.46 1.07 0 .76-.5 1.15-1.5 1.15zm-17.04-3.07c-.55-.16-1.12-.23-1.69-.21h-1.55v7.17h1.54c.56.02 1.13-.05 1.67-.2 1.89-.7 2.85-2.81 2.15-4.69-.19-.51-.49-.97-.88-1.35-.35-.32-.77-.57-1.22-.71zm.34 5.16c-.24.22-.52.38-.82.48-.37.11-.76.16-1.15.15h-.39v-4.84h.39c.71-.05 1.42.17 1.98.61.5.47.77 1.12.74 1.8.03.68-.25 1.33-.75 1.79zm-8.06-4.34c.47 0 .93.14 1.34.39l.08.04.04-.07.51-.88.04-.07-.08-.04c-.56-.33-1.21-.51-1.86-.52-1.11-.03-2.17.45-2.88 1.31-.59.68-.91 1.54-.9 2.44 0 2.03 1.64 3.67 3.66 3.68h.04c.68 0 1.35-.18 1.94-.53l.04-.03v-.09l-.53-.89-.04-.08-.08.05c-.13.09-.27.16-.41.22-.29.12-.6.18-.92.17-.66.01-1.3-.25-1.76-.73-.47-.48-.73-1.12-.72-1.8-.01-.68.24-1.33.72-1.82.45-.49 1.09-.76 1.75-.75zm59.74.13h1.61v6.08l.14-.1 1.06-.74.04-.03v-5.21h1.6v-1.17h-4.44v1.17zm-25.98-1.3c-.99-.01-1.95.38-2.65 1.09-1.46 1.43-1.49 3.77-.06 5.22l.16.16c1.48 1.32 3.74 1.27 5.16-.12.72-.68 1.12-1.63 1.11-2.62-.01-2.05-1.67-3.71-3.72-3.72zm1.75 5.53c-.47.48-1.12.75-1.8.73-.65 0-1.27-.26-1.72-.72-1.01-.97-1.04-2.58-.07-3.59.48-.5 1.13-.78 1.82-.78.67-.01 1.31.25 1.78.74.48.48.74 1.13.72 1.81.01.68-.25 1.33-.73 1.82zm20.87-5.37-2.57 2.64v-2.74l-.14.1-1.06.74-.04.03v6.46l.14-.1 1.05-.74.04-.03v-2.16l.12-.12 2.46 3.04.05.06.07-.04.9-.61.08-.05-.06-.08-2.62-3.15 3.1-3.11.15-.15h-1.65l-.03.03zm-15.11.74-.04.03v3.82c.03.41-.03.82-.18 1.21-.11.21-.34.34-.57.31-.24-.01-.47-.09-.67-.24l-.08-.05-.05.08-.52.9-.04.07.07.04c.39.23.83.36 1.28.36.56.02 1.1-.22 1.47-.65.19-.23.33-.51.4-.8.09-.4.13-.82.12-1.23v-4.69l-.14.1zm7.55.4.03-.02.97-.99.14-.15h-4.15v7.17h3.03l.03-.02.95-.99.14-.15h-2.92v-2.23h.9l.02-.03.98-.99.15-.15h-2.05v-1.44h1.78z"/><path d="m94.1787 29.29c-.69 0-1.25-.56-1.25-1.25s.56-1.25 1.25-1.25 1.25.56 1.25 1.25-.56 1.25-1.25 1.25zm0-2.32c-.59 0-1.06.48-1.06 1.06s.48 1.06 1.06 1.06 1.06-.48 1.06-1.06-.47-1.06-1.05-1.06c0 0 0 0-.01 0zm.34 1.79-.37-.57h-.25v.57h-.2v-1.43h.58c.25-.01.46.18.47.42v.01c0 .21-.15.4-.36.42l.38.57h-.25zm-.24-1.26h-.38v.51h.38c.14 0 .26-.0999.26-.2399s-.1-.2601-.24-.2601h-.02z"/></g></svg>