<svg fill="none" height="28" viewBox="0 0 105 28" width="105" xmlns="http://www.w3.org/2000/svg" xmlns:xlink="http://www.w3.org/1999/xlink"><clipPath id="a"><path d="m.162109.895386h104.724v26.1492h-104.724z"/></clipPath><g clip-path="url(#a)"><path clip-rule="evenodd" d="m.428124.899791c5.541946-.001251 11.083876 0 16.626476-.001251.0012.4136.0006.82719 0 1.24142-4.5227-.00126-9.04533-.00251-13.56736 0 .01939 2.09739.02315 4.19478.04818 6.29154 4.22481.00063 8.45028.00188 12.67568 0-.0012.3698.0075.74022-.005 1.11065-4.2236-.00626-8.44774.00125-12.67131-.00376-.00188 2.45281-.00125 4.90561 0 7.35841 4.58022-.02 9.16111-.0288 13.74191-.0451-.0019.4124-.0012.8253 0 1.2383-5.6158.0025-11.23155.0044-16.847325 0-.001251-5.7303 0-11.46055-.000625-17.190209zm18.398476 0c.8716-.001251 1.7439 0 2.6155-.000625 2.0767 3.597224 4.1447 7.199454 6.2202 10.797334.0219-.0082.0651-.0257.0864-.0338 2.0479-3.58723 4.1046-7.16944 6.1476-10.75978.4605-.008134.921-.001877 1.3822-.001877-2.4453 4.296777-4.8743 8.602937-7.3246 12.897157-.5869-.0056-1.1745-.0037-1.762 0-2.4597-4.29735-4.9069-8.60163-7.3653-12.898409zm19.6424-.000625c3.148.000625 6.2959-.000626 9.4439.000625.0012.325369.0037.650119-.0025.975489-2.4084-.0025-4.8167-.00376-7.2251 0 0 1.56366.0037 3.12731-.0019 4.69097 2.2469.00939 4.4945.00313 6.7421.00313.0012.26593 0 .53248-.0007.79904-2.2469-.00125-4.4932-.00125-6.7395 0 0 1.83146.0019 3.66288 0 5.49438 2.4102.0025 4.8198-.0019 7.2301.0019-.0019.3097-.0006.6194-.0006.9298-3.1474.0019-6.2947-.0019-9.442.0019-.0069-4.29931 0-8.59858-.0032-12.89786zm13.7006.000625c.7384-.001251 1.4773 0 2.2157-.000625.0012 3.987674-.0013 7.975974.0012 11.964234 2.5123.0163 5.0251.0257 7.538.0457v.886c-3.2493.0031-6.4993-.0044-9.7486.0038-.015-4.2993-.0013-8.59983-.0069-12.899109zm13.8327 0c.7389-.001877 1.4779.001252 2.2169-.001877 0 4.299276.0012 8.598556 0 12.897186-.7384 0-1.4761-.0012-2.2138.0013-.005-4.29868.0006-8.59733-.0025-12.896609zm7.8483-.001251c.2446.01752.5024-.031911.7396.025029 4.3656 3.238691 8.7281 6.481761 13.0918 9.724231.0037-3.24935-.0019-6.49868.0025-9.748009.4424-.000625.8848-.000625 1.3284-.000625.0025 4.299274.0006 8.597934.0006 12.896534-.1902-.0225-.413.0601-.5756-.0657-4.4176-3.2862-8.8345-6.57307-13.2539-9.85744.0044 3.30939.0369 6.61814.0338 9.92694-.4699-.01-.9405-.0006-1.4098-.0044.0138-4.29863.027-8.59791.0426-12.89656zm20.6642-.001251c3.1461.00438 6.2932.001877 9.4392.001251 0 .32537.003.65137-.002.97674-2.407-.00376-4.8157-.0025-7.2228-.00063-.0006 1.56491-.0006 3.12982 0 4.69536 2.2475-.01502 4.4938-.02128 6.7408-.04818-.003.28157-.004.56377.002.84534-2.248.00312-4.4953-.00188-6.7428.00313-.0006 1.83146-.0019 3.6629.0006 5.4944 2.4077-.0013 4.8162-.0013 7.2242 0 .001.3229-.003.6463.003.9692-3.148-.0044-6.2955-.0275-9.4428-.0382-.0025-4.29923-.0038-8.59913 0-12.898411zm-72.8925 16.000711c17.3297-.0169 34.6601-.0181 51.9899-.0294 10.4238-.0087 20.8481-.0044 31.2708-.0212.007.4148.002.8296.002 1.2445-14.2634.0012-28.5265 0-42.7891 0-13.4922-.0025-26.9839.0056-40.4761-.0044.0044-.3967.0012-.7934.0025-1.1901zm-21.240479 4.9282c.264051-.2641.669509-.2647 1.018039-.2747.98112.0012 1.96161-.0082 2.9421.005.35791.0106.83157.0888.95046.4868.15643.4987.08385 1.0305.09886 1.5442-.36854.0007-.73709.0019-1.10563-.0012-.00438-.3554.00938-.7108-.00876-1.0662-1.0024.0081-2.00479.0025-3.00718.0031.00313 1.167-.00376 2.3339.00375 3.5009 1.00114.0012 2.00291-.0044 3.00405.0031.01752-.3998.00251-.7997.00876-1.1995.36855 0 .73772.0025 1.10626-.0006-.0075.4661.02065.9342-.0219 1.3997-.03316.2096-.06507.4574-.25028.5925-.27093.2084-.6326.2147-.95859.2228-.9417.0013-1.88278.0031-2.82385 0-.345392-.01-.748978-.0319-.994257-.3097-.1752-.2753-.170194-.6182-.180206-.933-.001251-1.0005-.002503-2.0016.000626-3.0021.011263-.3298.009386-.6952.217748-.9705zm13.499779-.2516c1.177-.0538 2.3583-.0094 3.5365-.0244.4161.0119.8773-.0482 1.2458.1896.2972.2853.3316.7302.341 1.1188.0013.9805.0025 1.9603 0 2.9402-.0144.3554-.04.7621-.3084 1.0268-.2503.2034-.5945.2077-.9011.2165-1.1469.0025-2.2932.0013-3.4401.0013-.3173-.0076-.6621-.0026-.9386-.1815-.2903-.2384-.3329-.6464-.3473-.9974-.01-.9623 0-1.9241-.0044-2.8858.0038-.3804.0113-.7928.2347-1.1181.1214-.199.3698-.2497.5825-.286zm.2947.9473c-.0063 1.167-.0013 2.3346-.0025 3.5015 1.2408 0 2.4816.0025 3.7224-.0012 0-1.1663.0031-2.3327-.0019-3.499-1.2395.0012-2.4791.0031-3.718-.0013zm12.9047-.7045c.2584-.2447.642-.2578.9774-.2659.9385.0006 1.8771-.0063 2.8151.0031.3341.0094.7333.0632.9348.3642.2277.3654.1789.8146.1871 1.2251-.3398-.0012-.6796.0013-1.0187 0-.0012-.2071 0-.4142-.0031-.6207-1.0481.0019-2.0955.0031-3.143 0-.0037.3992-.0019.7984-.0012 1.1976 1.0343.0025 2.0692-.005 3.1035.0038.3341.0144.7515.0563.9317.3848.2371.4611.1608.9992.1758 1.4992-.0069.4048.0057.8722-.2853 1.1907-.2515.229-.6201.2322-.9405.2441-1.0036 0-2.0066.0043-3.0096-.0026-.341-.01-.7428-.0469-.9693-.3366-.2459-.4029-.1952-.8973-.2033-1.3484.3404.01.6814.0025 1.0218.0088-.0038.2196-.0032.4392-.0044.6595 1.1375.0012 2.2745 0 3.4114 0 .01-.4143 0-.8279.0056-1.2415-1.0036 0-2.0079.0019-3.0115-.0012-.2754-.0069-.5701-.0144-.8116-.1621-.2077-.1163-.2941-.3579-.3398-.5775-.0707-.4123-.0506-.8328-.0481-1.2483.0137-.3329.0406-.6889.2252-.9761zm12.7183-.2666c.2947-.0018.5894.0013.8847-.0025.774 1.1057 1.5343 2.2201 2.312 3.3219.7321-1.1093 1.4755-2.2119 2.2113-3.3187.2966-.0032.5932-.0013.8904-.0007-.0031 1.8309-.0013 3.6617-.0013 5.4932-.341-.0032-.6814.0037-1.0224-.0032v-3.0578c.0025-.2953-.015-.5919.0288-.8848-.254.5431-.6301 1.0156-.9473 1.5224-.3836.5863-.7778 1.1663-1.1576 1.7557-.0776 0-.1545.0019-.2309.0032-.4617-.7096-.9335-1.4123-1.3991-2.1193-.2252-.3729-.5187-.7077-.6857-1.1132.0075 1.2984.0031 2.5974.0025 3.8964-.2954 0-.5907.0006-.8854 0-.0013-1.8309 0-3.6617 0-5.4919zm14.0979.0019c1.6419-.0037 3.2831-.0037 4.925 0-.0025.3079-.0025.6163-.0019.9248-1.2708.0138-2.5416 0-3.8124.0069-.0013.4117-.0025.8234 0 1.2352.7389 0 1.4779.0025 2.2169-.0013-.0063.3116.0081.6238-.0088.9355-.7358-.0088-1.4723-.0013-2.2081-.0044-.0038.4574 0 .9148-.0019 1.3722 1.2852.0043 2.571.0018 3.8569.0018.0037.3392 0 .6789.0012 1.0187-1.6544.0025-3.3087.0031-4.9625 0-.0119-1.8296-.0019-3.6592-.005-5.4888zm11.3974-.0019c1.8471.0013 3.6942-.0031 5.5413.0019 0 .3223-.0019.6451.0019.968-.7384.0063-1.4767.0044-2.215.0012-.0094 1.5068-.0038 3.0141-.0026 4.5215-.3704 0-.7408.0012-1.1106-.0013.0013-1.5055-.0025-3.0109.0019-4.5158-.739-.0062-1.478 0-2.2163-.0025-.0025-.3247 0-.6488 0-.973zm12.3685.0013c.3691-.0038.7396-.0019 1.1094-.0013 0 1.8302-.0007 3.6611 0 5.4913-.3711.0019-.7409.0025-1.1113.0006.0056-1.8302.0019-3.6604.0019-5.4906zm9.2386.199c.3041-.2009.6846-.1965 1.0362-.2009.9405.0031 1.8809-.0056 2.8213.0044.3273.015.7528.0482.9092.3904.2609.5044.1608 1.0944.1852 1.6407-.371.0037-.7421.0037-1.1119 0 .0025-.3548.0019-.7096-.0006-1.0638-1.018.0038-2.0373.0007-3.0566.0013.0025 1.167-.0106 2.3345.0069 3.5015 1.0161-.0038 2.0335-.0013 3.0503-.0006.0038-.3986.0007-.7972.0019-1.1951.3686-.0038.7377 0 1.1075-.0019-.0256.5906.0857 1.2151-.1464 1.777-.1527.3654-.5957.4261-.9442.4342-.9411.0107-1.8828.0007-2.8238.0051-.3373-.0026-.6965-.0032-.9968-.1765-.3066-.2315-.3423-.6514-.3585-1.0049-.0082-1.003-.0038-2.0054-.0026-3.0084.0063-.383.0432-.8141.3236-1.1032zm12.9298-.0207c.2755-.1758.6165-.1739.9335-.1796.917.0019 1.835-.0056 2.753.0032.335.0125.736.0713.927.3842.213.3629.17.8015.176 1.2057-.341 0-.68-.0012-1.02 0 .001-.2071.001-.4136 0-.6201-1.048-.0012-2.095.0013-3.142-.0012-.012.3986-.011.7978-.002 1.197 1.02.0018 2.04-.0032 3.061.0018.319.0144.686.0338.927.2747.243.3842.213.8635.221 1.3009-.01.483.044 1.008-.202 1.4454-.23.2678-.619.2828-.946.2978-1.022.0044-2.043.0038-3.064 0-.357-.0119-.794-.0394-1.0111-.3673-.1833-.4123-.1333-.8772-.1433-1.3165.3254.0025.652-.0044.9784.0069-.003.219-.002.4386-.002.6583 1.138.0037 2.276 0 3.414.0012-.003-.4136 0-.8272-.002-1.2408-1.038-.0019-2.074.005-3.111-.0031-.288-.015-.6323-.0338-.8212-.2841-.3379-.3998-.2647-.9605-.2791-1.446.0081-.4511-.0081-.988.3541-1.319z" fill="#000" fill-rule="evenodd"/></g></svg>