<?xml version="1.0" encoding="utf-8"?>
<!-- Generator: Adobe Illustrator 26.5.0, SVG Export Plug-In . SVG Version: 6.00 Build 0)  -->
<svg version="1.1" id="Camada_1" xmlns="http://www.w3.org/2000/svg" xmlns:xlink="http://www.w3.org/1999/xlink" x="0px" y="0px"
	 viewBox="0 0 300 104" style="enable-background:new 0 0 300 104;" xml:space="preserve">
<g>
	<g>
		<path d="M32.42,69.57c-1.36,0-2.46,1.1-2.46,2.46v14.41c0,6.63-5.39,12.02-12.02,12.02S5.92,93.07,5.92,86.44V53.58
			c0-1.36-1.1-2.46-2.46-2.46S1,52.22,1,53.58v32.87c0,9.34,7.6,16.94,16.94,16.94s16.94-7.6,16.94-16.94V72.03
			C34.88,70.67,33.78,69.57,32.42,69.57z"/>
		<path d="M67.1,40.61H52.09c-1.36,0-2.46,1.1-2.46,2.46c0,1.36,1.1,2.46,2.46,2.46H67.1c6.63,0,12.02,5.39,12.02,12.02
			c0,6.63-5.39,12.02-12.02,12.02H52.09c-1.36,0-2.46,1.1-2.46,2.46c0,1.36,1.1,2.46,2.46,2.46H67.1c9.34,0,16.94-7.6,16.94-16.94
			C84.04,48.21,76.44,40.61,67.1,40.61z"/>
		<path d="M42.26,11.53c-1.36,0-2.46,1.1-2.46,2.46v86.94c0,1.36,1.1,2.46,2.46,2.46c1.36,0,2.46-1.1,2.46-2.46V13.99
			C44.72,12.63,43.62,11.53,42.26,11.53z"/>
		<path d="M30.78,15.82c0.47,0.42,1.06,0.63,1.64,0.63c0.67,0,1.34-0.28,1.83-0.82l8.01-8.92l8.02,8.92
			c0.91,1.01,2.46,1.09,3.47,0.19c1.01-0.91,1.09-2.46,0.19-3.47L44.15,1.46L44.09,1.4c-0.48-0.5-1.14-0.78-1.83-0.78c0,0,0,0,0,0
			c-0.69,0-1.36,0.29-1.83,0.78l-9.83,10.95C29.68,13.36,29.77,14.91,30.78,15.82z"/>
		<path d="M32.42,31.21c-1.36,0-2.46,1.1-2.46,2.46v6.95H16.8c-4.51,0-7.58-1.76-9.38-5.38c-1.44-2.9-1.48-5.93-1.48-5.96V13.99
			c0-1.36-1.1-2.46-2.46-2.46s-2.46,1.1-2.46,2.46v15.28c0,0.3,0.04,7.34,4.79,12.1c2.76,2.76,6.45,4.16,10.98,4.16h13.16v16.67
			c0,1.36,1.1,2.46,2.46,2.46c1.36,0,2.46-1.1,2.46-2.46V33.66C34.88,32.31,33.78,31.21,32.42,31.21z"/>
	</g>
	<g>
		<path d="M130.05,59.22h-27.02c0.12,2.47,0.72,4.57,1.79,6.32c1.07,1.75,2.48,3.07,4.23,3.97c1.75,0.89,3.66,1.34,5.73,1.34
			c2.7,0,4.98-0.66,6.83-1.97c1.85-1.31,3.07-3.08,3.67-5.31h4.41c-0.8,3.18-2.5,5.78-5.1,7.78c-2.6,2.01-5.87,3.01-9.81,3.01
			c-3.06,0-5.81-0.69-8.23-2.06c-2.43-1.37-4.32-3.32-5.7-5.84c-1.37-2.52-2.06-5.48-2.06-8.86c0-3.38,0.68-6.34,2.03-8.89
			c1.35-2.54,3.24-4.49,5.67-5.84c2.42-1.35,5.19-2.03,8.29-2.03c3.1,0,5.81,0.68,8.14,2.03c2.33,1.35,4.12,3.17,5.37,5.46
			c1.25,2.29,1.88,4.82,1.88,7.6C130.17,57.37,130.13,58.46,130.05,59.22z M124.47,49.62c-1.01-1.71-2.4-3-4.14-3.88
			c-1.75-0.87-3.66-1.31-5.73-1.31c-3.1,0-5.75,0.99-7.93,2.98c-2.19,1.99-3.4,4.79-3.64,8.41h22.9
			C125.97,53.39,125.48,51.33,124.47,49.62z"/>
		<path d="M153.36,73.89l-8.41-13.12l-8.11,13.12h-4.41l10.5-16.28l-10.38-16.28h4.71l8.29,12.94l8.05-12.94h4.35l-10.38,16.1
			l10.5,16.46H153.36z"/>
		<path d="M171.29,43.03c2.25-1.45,4.92-2.18,8.02-2.18c2.94,0,5.6,0.69,7.96,2.06c2.37,1.37,4.21,3.32,5.55,5.84
			c1.33,2.53,2,5.46,2,8.8c0,3.34-0.67,6.28-2,8.83c-1.33,2.54-3.18,4.51-5.55,5.9c-2.37,1.39-5.02,2.09-7.96,2.09
			c-3.06,0-5.73-0.72-7.99-2.18c-2.27-1.45-3.92-3.27-4.95-5.46v22.54h-4.12V41.33h4.12v7.16C167.4,46.3,169.04,44.48,171.29,43.03z
			 M189,50.54c-1.05-1.97-2.5-3.47-4.32-4.5c-1.83-1.03-3.9-1.55-6.2-1.55c-2.23,0-4.26,0.54-6.11,1.61s-3.31,2.6-4.38,4.59
			c-1.07,1.99-1.61,4.29-1.61,6.92c0,2.62,0.54,4.93,1.61,6.92c1.07,1.99,2.53,3.52,4.38,4.59s3.89,1.61,6.11,1.61
			c2.31,0,4.37-0.53,6.2-1.58c1.83-1.05,3.27-2.58,4.32-4.59c1.05-2.01,1.58-4.34,1.58-7.01C190.58,54.85,190.05,52.51,189,50.54z"
			/>
		<path d="M230.36,59.22h-27.02c0.12,2.47,0.72,4.57,1.79,6.32c1.07,1.75,2.48,3.07,4.23,3.97c1.75,0.89,3.66,1.34,5.73,1.34
			c2.7,0,4.98-0.66,6.83-1.97c1.85-1.31,3.07-3.08,3.67-5.31H230c-0.8,3.18-2.5,5.78-5.1,7.78c-2.6,2.01-5.87,3.01-9.81,3.01
			c-3.06,0-5.81-0.69-8.23-2.06c-2.43-1.37-4.32-3.32-5.7-5.84c-1.37-2.52-2.06-5.48-2.06-8.86c0-3.38,0.68-6.34,2.03-8.89
			c1.35-2.54,3.24-4.49,5.67-5.84c2.42-1.35,5.19-2.03,8.29-2.03c3.1,0,5.81,0.68,8.14,2.03c2.33,1.35,4.12,3.17,5.37,5.46
			c1.25,2.29,1.88,4.82,1.88,7.6C230.48,57.37,230.44,58.46,230.36,59.22z M224.78,49.62c-1.01-1.71-2.4-3-4.14-3.88
			c-1.75-0.87-3.66-1.31-5.73-1.31c-3.1,0-5.75,0.99-7.93,2.98c-2.19,1.99-3.4,4.79-3.64,8.41h22.9
			C226.28,53.39,225.79,51.33,224.78,49.62z"/>
		<path d="M245,42.4c1.89-1.11,4.2-1.67,6.95-1.67v4.35h-1.13c-3.02,0-5.45,0.82-7.28,2.45c-1.83,1.63-2.74,4.35-2.74,8.17v18.19
			h-4.17V41.33h4.17v5.78C241.71,45.08,243.11,43.51,245,42.4z"/>
		<path d="M262.14,44.85v20.22c0,1.99,0.38,3.36,1.13,4.12c0.75,0.76,2.09,1.13,4,1.13h3.82v3.58h-4.47c-2.94,0-5.13-0.69-6.56-2.06
			c-1.43-1.37-2.15-3.63-2.15-6.77V44.85h-4.53v-3.52h4.53v-8.17h4.23v8.17h8.95v3.52H262.14z"/>
		<path d="M278.51,71.77c-2.37-1.73-3.69-4.09-3.97-7.07h4.29c0.2,1.83,1.06,3.31,2.59,4.44c1.53,1.13,3.59,1.7,6.17,1.7
			c2.27,0,4.05-0.54,5.34-1.61c1.29-1.07,1.94-2.41,1.94-4c0-1.11-0.36-2.03-1.07-2.74c-0.72-0.72-1.62-1.28-2.71-1.7
			c-1.09-0.42-2.57-0.86-4.44-1.34c-2.43-0.64-4.39-1.27-5.9-1.91c-1.51-0.64-2.79-1.58-3.85-2.83c-1.05-1.25-1.58-2.93-1.58-5.04
			c0-1.59,0.48-3.06,1.43-4.41c0.95-1.35,2.31-2.42,4.06-3.22c1.75-0.79,3.74-1.19,5.96-1.19c3.5,0,6.32,0.89,8.47,2.65
			c2.15,1.77,3.3,4.2,3.46,7.31h-4.17c-0.12-1.91-0.86-3.45-2.24-4.62c-1.37-1.17-3.25-1.76-5.64-1.76c-2.11,0-3.82,0.5-5.13,1.49
			c-1.31,0.99-1.97,2.23-1.97,3.7c0,1.27,0.39,2.32,1.16,3.13c0.78,0.82,1.74,1.45,2.89,1.91c1.15,0.46,2.7,0.96,4.65,1.52
			c2.35,0.64,4.21,1.25,5.61,1.85c1.39,0.6,2.58,1.47,3.58,2.62c0.99,1.15,1.51,2.68,1.55,4.59c0,1.75-0.48,3.31-1.43,4.68
			c-0.95,1.37-2.29,2.46-4,3.25c-1.71,0.79-3.68,1.19-5.9,1.19C283.93,74.37,280.88,73.5,278.51,71.77z"/>
	</g>
</g>
</svg>
