<svg width="83" height="25" viewBox="0 0 83 25" fill="none" xmlns="http://www.w3.org/2000/svg">
<g clip-path="url(#clip0_959_1016)">
<path d="M75.4002 6.56995C75.2902 6.56995 75.1902 6.60995 75.1102 6.68995L74.7802 7.01995H74.7702L74.4402 6.68995C74.3602 6.60995 74.2602 6.56995 74.1502 6.56995C73.9202 6.56995 73.7402 6.74995 73.7402 6.97995C73.7402 7.08995 73.7802 7.18995 73.8602 7.26995L74.7802 8.18995L75.7002 7.26995C75.7802 7.18995 75.8202 7.08995 75.8202 6.97995C75.8202 6.74995 75.6402 6.56995 75.4102 6.56995H75.4002Z" fill="currentColor"/>
<path d="M65.9001 7.93994C63.7601 7.93994 62.1001 9.59994 62.1001 11.7799C62.1001 13.9599 63.7601 15.6199 65.9001 15.6199C68.0401 15.6199 69.7201 13.9599 69.7201 11.7799C69.7201 9.59994 68.0601 7.93994 65.9001 7.93994Z" fill="currentColor"/>
<path d="M28 7.87C25.97 7.87 24.57 9.11999 24.27 11H31.47C31.15 8.85999 29.62 7.87 28 7.87Z" fill="currentColor"/>
<path d="M41.2599 7.90997C39.0799 7.90997 37.4199 9.56997 37.4199 11.77C37.4199 13.97 39.0799 15.63 41.2599 15.63C43.4399 15.63 45.0799 13.97 45.0799 11.77C45.0799 9.56997 43.4199 7.90997 41.2599 7.90997Z" fill="currentColor"/>
<path d="M0 0.0899658V24.09H82.07V0.0899658H0ZM15.25 17.45C13.42 17.45 12.04 16.63 11.17 15.31V20.44H9.29V6.37997H11.17V8.23997C12.03 6.91997 13.41 6.09997 15.25 6.09997C18.25 6.09997 20.71 8.57997 20.71 11.77C20.71 14.96 18.25 17.44 15.25 17.44V17.45ZM33.31 12.64H24.27C24.64 14.58 26.17 15.68 28.17 15.68C29.66 15.68 30.74 14.99 31.28 14.1L32.88 15.01C31.93 16.48 30.29 17.45 28.13 17.45C24.66 17.45 22.35 15.01 22.35 11.78C22.35 8.54996 24.64 6.10997 28 6.10997C31.36 6.10997 33.37 8.77997 33.37 11.8C33.37 12.08 33.35 12.36 33.31 12.64ZM41.49 17.45C39.66 17.45 38.28 16.63 37.41 15.31V20.44H35.53V6.37997H37.41V8.23997C38.27 6.91997 39.65 6.09997 41.49 6.09997C44.49 6.09997 46.95 8.57997 46.95 11.77C46.95 14.96 44.49 17.44 41.49 17.44V17.45ZM54.27 17.45C51.01 17.45 48.6 14.97 48.6 11.78C48.6 8.58997 51.02 6.10997 54.27 6.10997C56.41 6.10997 58.22 7.22997 59.04 8.93997L57.47 9.83997C56.93 8.69997 55.72 7.93997 54.28 7.93997C52.12 7.93997 50.48 9.59997 50.48 11.78C50.48 13.96 52.12 15.6 54.28 15.6C55.75 15.6 56.93 14.85 57.54 13.72L59.14 14.65C58.23 16.33 56.4 17.46 54.29 17.46L54.27 17.45ZM65.9 17.45C62.75 17.45 60.23 14.97 60.23 11.78C60.23 8.58997 62.75 6.10997 65.9 6.10997C69.05 6.10997 71.6 8.58997 71.6 11.78C71.6 14.97 69.05 17.45 65.9 17.45ZM76.65 9.15997C76.15 9.65997 75.48 9.93997 74.77 9.93997C74.06 9.93997 73.39 9.65997 72.89 9.15997C72.39 8.65997 72.11 7.98997 72.11 7.27997C72.11 6.56997 72.39 5.89997 72.89 5.39997C73.39 4.89997 74.06 4.61997 74.77 4.61997C75.48 4.61997 76.15 4.89997 76.65 5.39997C77.15 5.89997 77.43 6.56997 77.43 7.27997C77.43 7.98997 77.15 8.65997 76.65 9.15997Z" fill="currentColor"/>
<path d="M15.0099 7.90997C12.8299 7.90997 11.1699 9.56997 11.1699 11.77C11.1699 13.97 12.8299 15.63 15.0099 15.63C17.1899 15.63 18.8299 13.97 18.8299 11.77C18.8299 9.56997 17.1699 7.90997 15.0099 7.90997Z" fill="currentColor"/>
<path d="M74.7698 5.10999C74.1898 5.10999 73.6399 5.33999 73.2299 5.74999C72.8199 6.15999 72.5898 6.70999 72.5898 7.28999C72.5898 7.86999 72.8199 8.41999 73.2299 8.82999C73.6399 9.23998 74.1898 9.46999 74.7698 9.46999C75.3498 9.46999 75.8998 9.23998 76.3098 8.82999C76.7198 8.41999 76.9498 7.86999 76.9498 7.28999C76.9498 6.70999 76.7198 6.15999 76.3098 5.74999C75.8998 5.33999 75.3498 5.10999 74.7698 5.10999ZM76.0198 7.59999L74.7698 8.84999L73.5198 7.59999C73.3598 7.43999 73.2698 7.21999 73.2698 6.97999C73.2698 6.49999 73.6598 6.10999 74.1398 6.10999C74.3698 6.10999 74.5898 6.19999 74.7598 6.35999L74.7798 6.37999L74.7999 6.35999C74.9599 6.19999 75.1798 6.10999 75.4198 6.10999C75.8998 6.10999 76.2898 6.49999 76.2898 6.97999C76.2898 7.20999 76.1998 7.42999 76.0398 7.59999H76.0198Z" fill="currentColor"/>
</g>
<defs>
<clipPath id="clip0_959_1016">
<rect width="82.07" height="24" fill="white" transform="translate(0 0.0899658)"/>
</clipPath>
</defs>
</svg>
