<svg fill="none" height="47" viewBox="0 0 77 47" width="77" xmlns="http://www.w3.org/2000/svg"><g fill="#000"><path clip-rule="evenodd" d="m58.2399 42.1769v-6.1h-3.36v6.75c0 2.28 2.36 4.13 5.28 4.13s5.28-1.85 5.28-4.13v-6.75h-3.33v6.1c-.05 1.07-.96 1.89-2.03 1.83-.99-.05-1.78-.84-1.83-1.83" fill-rule="evenodd"/><path d="m76.3898 28.8269h-3.38v17.75h3.38z"/><path d="m70.67 28.8269h-3.38v17.75h3.38z"/><path clip-rule="evenodd" d="m5.44 32.5469h-1.84v14.02h-3.6v-16.93h6.18c2.76-.06 5.04 2.13 5.09 4.89.05 2.37-1.57 4.44-3.88 4.97l4.97 7.07h-4.24l-3.59-5.55v-4.05h.83c1.28.05 2.35-.94 2.41-2.22-.02-1.25-1.05-2.24-2.29-2.22-.01 0-.03 0-.04 0" fill-rule="evenodd"/><path d="m22.9902 42.017c.02-.24.03-.47.03-.71.05-3.66-2.37-5.67-5.46-5.67-3.13.03-5.63 2.59-5.6 5.71.03 3.08 2.52 5.58 5.6 5.6 2.36 0 4.19-1.07 5.14-2.74l-2.75-1.27c-.4.8-1.22 1.3-2.12 1.29-1.22.05-2.25-.89-2.3-2.11v-.11h7.45zm-7.46-1.94c-.02-1.14.89-2.08 2.03-2.1s2.08.89 2.1 2.03v.06h-4.13z"/><path d="m36.4501 46.5769v-17.75h-3.37v8.4c-.9-.91-2.12-1.42-3.4-1.43-2.79 0-5.06 2.48-5.06 5.53s2.26 5.53 5.06 5.53c1.29-.01 2.52-.54 3.41-1.47v1.18h3.36zm-5.81-2.59c-1.5.14-2.83-.97-2.96-2.47-.14-1.5.97-2.83 2.47-2.96 1.5-.14 2.83.97 2.96 2.47 0 .08.01.16.01.25.06 1.43-1.05 2.65-2.48 2.72"/><path d="m50.7501 37.357c.94-.84 1.48-2.03 1.49-3.29 0-1.13-.44-2.22-1.22-3.04-.81-.89-2.23-1.39-4.16-1.39h-5.78v16.93h7.46c2.86-.05 5.16-2.21 5.16-4.86 0-1.93-.68-3.3-2.96-4.36m-2.83 6.27h-3.23v-11.08h2.26c1.01.05 1.8.89 1.79 1.9 0 .99-.8 1.79-1.79 1.79h-1.18v3.05h2.15c1.2.04 2.14 1.04 2.11 2.24-.04 1.15-.96 2.07-2.11 2.11"/><path d="m52.3697 18.577c-.12.02-.25.02-.38.02-.07 0-.13 0-.19 0s-.1 0-.15 0c-.07 0-.14 0-.2.02h-.01v.01c-.13.21-.2.46-.22.71.03.29.33.35.55.39.09.02.18.03.27.03.13.02.25-.05.32-.16.12-.29.2-.58.25-.89 0-.03 0-.06-.02-.08-.04-.04-.1-.06-.16-.05-.02 0-.03 0-.05 0"/><path d="m68.5496 19.5769c-.16-.2-.36-.36-.57-.49-.08-.05-.15-.1-.22-.16l-.04-.03s-.1-.06-.16-.06c-.21.03-.38.16-.46.35 0 .13.18.37.43.66l.05.06c.09.13.24.22.4.24.14 0 .28-.06.38-.16.09-.08.29-.29.2-.42"/><path d="m69.5697 21.2869c-.03-.07-.06-.14-.08-.21-.02-.1-.03-.2-.05-.3-.01-.15-.04-.29-.09-.43-.07-.15-.22-.24-.38-.25-.06 0-.11.01-.16.04-.24.12-.38.25-.34.52.11.35.21.71.28 1.07.01.06.05.26.14.26h.02l.69-.23s.06-.03.07-.06c.04-.09-.03-.25-.1-.4"/><path d="m68.0104 20.6069v-.02h-.03c-.4.02-.65-.3-.89-.61-.08-.1-.15-.2-.23-.28-.12-.13-.25-.26-.38-.37-.12-.09-.22-.2-.31-.33-.07-.18-.13-.37-.18-.56-.04-.16-.08-.3-.12-.4 0-.02-.02-.04-.02-.06-.07-.19-.16-.43-.41-.47-.13-.02-.26-.03-.39-.03-.34.03-.67-.09-.91-.34-.14-.21-.14-.48 0-.69.04-.09.07-.19.1-.29.14-.44.16-.9.08-1.35-.02-.06-.04-.12-.06-.18-.06-.15-.09-.31-.07-.47.03-.06.09-.1.15-.09.07 0 .14.02.2.04.05.01.09.02.13.03.23.06.46.09.69.09.41 0 .82-.08 1.2-.24.8-.36 1.33-1.16 1.34-2.04-.09-.95-.68-1.87-1.8-2.81-.03-.02-.06-.04999-.08-.06999-.15-.12-.32-.27-.33-.41s.35-.22001.57-.27001c.05-.01.1-.01999.13-.03h.06c.28-.07.56-.17999.8-.32999.61-.47.88-1.26001.68-2.01001 0-.01 0-.03-.01-.05-.01-.07-.03-.14999-.1-.14999-.02 0-.04.00999-.06.02999s-.05.04001-.07.07001c-.09.1-.2.18-.31.25-.27.14-.56.22999-.85.28-.19.04-.38.08-.56.14-.65.15-1.19.59-1.47 1.2-.09.32-.04.65999.13.93999.29.41.62.79 1 1.12.57.55 1.17 1.12 1.3 1.89.07.46-.15.92-.56 1.16-.26.15-.56.22-.87.22-.42 0-.84-.11-1.21-.31-.47-.25-.92-.52-1.35-.82-.64-.47-1.34-.85-2.08-1.13-.33-.14-.68-.23-1.04-.29-.51-.06-.99-.24-1.42-.53-.14-.08999-.28-.18999-.42-.28999-.35-.29-.76-.52-1.2-.66-.16-.05-.32-.08-.48-.1-.24-.01001-.47-.09001-.67-.21-.09-.07001-.19-.14-.28-.2-.34-.26-.69-.49-1.07-.7-.64-.29-1.32-.5-2.01-.63-.22-.08-.41-.22-.54-.42-.1-.13-.22-.25001-.35-.35001-.47-.44999-1.09-.71-1.74-.75-.06 0-.12 0-.19 0-.35.07001-.67.24-.92.49-.03.02-.05.04001-.08.07001-.52-.72-1.1-1.39-1.75-2-4.76-4.400005-12.11-4.410005-16.88 0-.6.56-1.14 1.18-1.63 1.84l-.14-.05c-.26-.09-.53-.13-.8-.13-.35 0-.7.06-1.02.19999-.2.11001-.4.23-.59.36-.32.22-.67.41-1.03.55-.29.12-.59.23001-.89.32001-.61.14-1.17.40999-1.66.79999-.14.13-.25.23001-.35.32001-.44.41-.48.46-.84.46-.74-.03-1.47.22-2.04.71-.43.44999-.95.79999-1.53 1.04999-.27.08-.55.13-.83.15-.3.02-.6.06-.89.14-.66.23-1.27.59-1.79 1.06-.18.14-.42.32-.53.4-.06.04-.13.08-.19.12-.63.45-1.36.71-2.13.77h-.06c-.61-.05-1.14001-.45-1.35001-1.02-.17-.64.03-1.32.51001-1.77.24-.24.5-.46.76-.68.4-.31.76-.66999 1.09-1.05999.32-.47.29-1.1-.07-1.54-.42-.34-.92-.57-1.46-.66h-.05s-.08-.03001-.11-.03001c-.19-.04-.37001-.05999-.56001-.10999-.45-.19-.87-.44-1.26-.72001-.16.24-.22.53001-.19.82001.13.68.57 1.25999 1.2 1.55999.02.01001.05.02.07.03.18.07.37.10001.57001.09h.24c.13 0 .25.00001.37.03001.13.04.23.15.25.29 0 .08-.03.15-.14.23-.1.07999-.2.17-.3.25-.53001.40999-1.01001.86999-1.45001 1.36999-.52.68-.64 1.58-.33 2.37.36.84 1.15 1.42 2.05001 1.52.14.02.28.03.42.03.45-.02.89-.09 1.32-.22h.04c.02 0 .06 0 .06.1.01.19.02.4.03.61.01.34.03.65.05.79.07.31.17.61.3.9.04.1.07.18.09.22.04.13 0 .27-.09.37-.32.25-.69.44-1.09.54-.19.02-.4.04-.55.04-.08 0-.14 0-.17.01-.07 0-.13.04-.18.08-.13.2-.24.41-.31.64-.07.18-.14.36-.21.52-.23.31-.53001.56-.88001.73-.08.05-.17.1-.24.15-.12.22-.27.42-.45.59-.14.11-.3.17-.48.18h-.02c-.23.32-.37.69-.42 1.08-.01.06-.02.12-.04.17v.05h.02c.14.02.28.04.41.08.19.05.38.08.58.08.17 0 .33-.04.48-.12.22-.13.4-.32.51-.56.08-.15.18001-.29.29001-.41.07-.07.16-.12.26-.11.1 0 .21.02.31.06.09.03.19.05.28.06.4-.01.79-.16 1.1-.43.09-.07.18-.16.27-.24.13-.13.28-.25.43-.36.22-.09.45-.14.69-.13.34.01.67.05 1 .12.15.04.31.06.47.06.26 0 .52-.06.75-.18.26-.14.51-.28.72-.39.12-.06.23-.12.31-.16.34-.26.61-.59.79-.98.11-.21.29-.68.29-.68v-.02l-.42-.33-.02.03c-.14.23-.29.46-.46.68-.75 1.02-1.97 1.15-2.95 1.15-.07 0-.13 0-.2 0-1.1-.05-2.17.4-2.91 1.21-.03.03-.08.04-.11.02-.02-.03-.02-.06-.01-.09.01-.07.04-.14.08-.2.76-1.08 2.06-1.24 3.1-1.26.63-.02 1.25-.16 1.82-.43.6-.35 1.06-.92 1.27-1.58.11-.37.19-.75.23-1.14.04-.3.1-.6.17-.9.01-.05.06-.07.11-.06.04 0 .11.04.12.09-.18.68-.17 1.4.02 2.08.16.29.49.45.82.4.27 0 .55-.04.81-.09.19-.03.39-.06.58-.07h.22c.33.01.66.05.99.13.28.06.57.11.86.13.05 0 .11 0 .17.01.1 0 .21.02.31.02.2.02.39-.04.55-.15.09-.07.06-.18.02-.32v-.03s-.02-.05-.03-.08c-.06-.18-.14-.46 0-.59.02-.02.05-.03.08-.03s.06.02.07.04c.02.05.03.11.05.16.05.23.14.45.27.65.37.44.82.79 1.33 1.04.46.27.78.74.85 1.28 0 .27-.26.46-.46.58-.34.17-.71.28-1.08.33-.03 0-.07 0-.1-.02-.32-.2-.57-.49-.74-.83-.1-.18-.22-.35-.35-.51-.19-.21-.46-.3-.74-.26-.31.03-.62.08-.92.15-.07.01-.12.06-.15.12-.03.07-.02.15.02.22.17.31.34.59.52.89l.08.13c.05.06.13.09.21.08h.13.15c.12-.01.24.03.32.12.05.08.1.17.15.26.1.22.25.42.44.58.2.17.46.26.73.26.12 0 .24-.02.35-.05.8-.23 1.58-.53 2.32-.91h.24c.05 0 .11 0 .16-.01.26.02.51-.07.71-.24.07-.11.14-.21.21-.32 3.77 5.74 11.48 7.35 17.22 3.58 1.38-.91 2.57-2.08 3.49-3.44.03.08.07.16.12.23.07.08.17.13.28.12.06 0 .12 0 .19-.02.1-.02.2-.02.29 0 .12.04.22.12.3.22.08.11.19.19.32.24.25.08.51.15.77.22.35.08.69.19 1.02.31.19.07.39.11.59.12.2 0 .39-.07.54-.21.23-.18.38-.44.42-.73.05-.28.14-.3.35-.31.07 0 .14 0 .21-.03.23-.19.42-.42.55-.69.04-.07.08-.15.13-.22.04-.05.06-.12.06-.19 0-.11-.09-.19-.19-.19h-.05s-.87 0-1.1 0c-.36.02-.51.36-.64.66-.04.11-.09.22-.15.32-.1.18-.3.28-.5.27-.1-.01-.19-.03-.29-.06-.47-.11-.95-.23-1.15-.7-.04-.13-.02-.27.07-.38.28-.33.58-.64.92-.92.5-.12.93-.44 1.2-.88.05-.08.09-.16.11-.25.03-.13.1-.25.2-.33.08-.04.14-.03.15.04.02.24-.03.49-.14.71-.02.05-.04.1-.06.15v.04h.03c.13.01.26.02.4.02.47-.01.93-.07 1.39-.16.45-.09.91-.15 1.37-.16h.15c.21 0 .41.02.61.04s.39.04.59.04h.2c.51.03.98-.26 1.17-.73.13-.63.11-1.27-.04-1.89 0-.04-.01-.07-.01-.08s0-.01 0-.02c0-.04.01-.07.04-.09.06-.03.12 0 .14.07.2.61.35 1.24.43 1.88.1.55.31 1.07.63 1.52.44.64 1.17 1.03 1.95 1.01.19 0 .38-.03.56-.06.09-.01.18-.01.27 0 1.02 0 1.97.47 2.58 1.28 0 .01.01.03.01.04 0 .04-.05.06-.09.05l-.09-.07c-.54-.5-1.2-.85-1.93-1-.14-.02-.28-.04-.42-.04-.21 0-.42.02-.64.05-.2.03-.4.04-.6.05-.23 0-.46-.04-.68-.12-.83-.37-1.47-1.05-1.79-1.89-.02-.03-.05-.06-.09-.06-.03 0-.05 0-.07.02-.1.06-.12.1-.13.16.02.23.06.46.11.68.11.47.28 1.18.9 1.44.08.05.15.09.23.14.28.23.63.37.99.4.09 0 .17-.01.26-.03.22-.05.44-.07.67-.07.73 0 1.45.25 2.04.68.1.06.2.14.29.22.12.12.27.21.43.28.1.04.21.06.32.06.19 0 .38-.06.54-.18.07-.04.15-.06.23-.06.22 0 .34.17.5.39.1.15.21.29.34.41.19.16.44.24.7.22.12 0 .24 0 .36-.02s.25-.01.32-.02c.04 0 .07 0 .11-.02v-.03c-.06-.42-.17-.84-.35-1.23m-18.39-12.13c.07.13001.04.30001-.08.39001-.1.09-.2.18999-.31.28-.38.31-.71.67-.99 1.06999-.11.16-.21.34-.29.52 0 .02-.03.06-.07.06-.02 0-.04-.01-.06-.03-.05-.27-.02-.55.08-.81.27-.63.7-1.17 1.26-1.57.07-.04.14-.05999.22-.05999.1 0 .19.04999.24.13999m-22.1.86001c.05-.06001.13-.10001.2-.09.04 0 .08 0 .12.02999.18.12.32.29.39.49.19.53.21 1.1.07 1.64-.01.05-.04.08-.08.08-.02 0-.05 0-.06-.07-.06-.46-.19-.91-.37-1.34-.05-.09-.1-.18-.17-.26-.11-.15999-.21-.29-.1-.47999zm22.87 7.70999-.66.97c-.16.21-.29.45-.36.7-.04.24-.04.48 0 .71v.06s-.03-.03-.04-.05c-.24-.35-.31-.79-.18-1.2.09-.2.62-.96.78-1.21.05-.08.09-.16.05-.21-.17-.12-.36-.2-.56-.24 0 0-.01 0-.02 0-.09.04-.16.1-.21.19-.01.02-.02.03-.04.05l-.81 1.47-.02.06c-.06.14-.08.3-.05.45.02.11.05.23.08.34-2.15 3.51-5.96 5.65-10.08 5.65-4.09 0-7.89-2.12-10.01-5.61.01-.03.03-.05.04-.07.16-.28.16-.62 0-.9-.31-.46-.57-.95-.75-1.47v-.02h-.02c-.06-.02-.11-.04-.17-.06-.12-.06-.25-.09-.38-.09h-.02c-.12-.01-.25.04-.32.15l.86 1.71c.08.14.11.3.09.46-.13.35-.33.67-.58.94-.02.02-.05.03-.07.03-.01 0-.05 0-.03-.11.1-.37.15-.75.15-1.13-.22-.51-.48-1.01-.78-1.48v-.02c-.14-.17-.22-.37-.23-.59.01-.09.07-.17.16-.2.12-.04.25-.07.37-.09.31-.07.62-.14.73-.31.36-.55.59-1.17.68-1.82 0-.03.03-.1.08-.1.03 0 .06 0 .07.07.12.72-.04 1.46-.47 2.06-.03.05-.04.11-.03.16.01.04.04.08.08.11.41.09.84.03 1.2-.18.32 0 .64-.04.95-.11.1-.02.19-.04.29-.05.03.01.05.04.06.07-.25.29-.43.64-.49 1.02-.07.07-.15.15-.23.21-.31.21-.52.54-.6.91 0 .07.05.14.13.14.05 0 .1-.02.14-.04.05-.02.1-.04.15-.04s.08.04.08.09l-.32.47c-.09.19-.1.41-.02.6.04.11.02.2.05.3.11.22.34.36.59.34.4-.04.79-.13 1.16-.29l.2-.07c.5-.18 1.05-.22 1.57-.11.49-.08.94-.33 1.27-.7.2.02.37.12.49.28.53.58 1.29.91 2.08.88h.18c.09-.03.11-.07.12-.13 0-.07-.05-.13-.14-.18l-.47-.25c-.39-.19-.71-.51-.9-.91-.13-.39-.3-.75-.52-1.1-.03-.05-.07-.11-.11-.16-.07-.09-.13-.19-.18-.3.53.23.94.66 1.15 1.19.33.56.92.93 1.57.98.08 0 .16 0 .24-.03.06 0 .11-.06.12-.12.02-.05 0-.11-.06-.13l-.39-.19c-.42-.29-.76-.68-.98-1.14-.1-.17-.2-.34-.32-.5-.09-.12-.2-.22-.31-.32-.08-.06-.15-.13-.2-.21-.51-1.27-.84-2.61-.98-3.98-.06-.37-.18-.73-.37-1.05-.64-.94-1.34-1.85-2.1-2.71-.05-.05-.1-.11-.15-.15l-.04-.03999-2.56-2.13001c-.11-.08-.2-.13999-.29-.18999.45-.6.95-1.16 1.5-1.68 4.5-4.140005 11.42-4.130005 15.92 0 .64.59 1.21 1.25 1.71 1.96-.48.38-.98.74-1.46 1.09-1.08.73-2.08 1.56-2.99 2.49999-.89.92-1.21 2.07-1.53 3.18-.05.16-.09.33-.14.49-.08.3-.16.61-.24.92-.41 1.64-.83 3.27-2.47 4.34-.06.04-.08.12-.04.19.02.03.04.05.08.06.52.14 1.07-.03 1.41-.44.41-.51.64-.98 1.14-1.51.03-.03.07-.05.12-.06.03.02.04.03.03.09-.08.21-.18.4-.32.58s-.25.38-.33.6c-.22.47-.56.88-.98 1.19-.04.02-.07.05-.1.08-.04.04-.03.06-.03.06-.01.1.07.17.24.17.92 0 1.57-.65 2.2-1.28.03-.03.07-.04.11-.04.03 0 .07 0 .1.02.08.06.15.12.21.18.19.2.43.35.7.43h.01c.31-.05.63-.08.95-.08h.25c.33.1.67.23.99.35.23.09.46.17.7.26h.01c.31-.01.53-.3.68-.55.06-.17.06-.35 0-.52-.02-.1-.04-.2-.04-.3.07-.02.15-.03.22-.01h.22c.1-.02.16-.12.14-.22-.07-.27-.19-.51-.37-.73-.14-.18-.25-.39-.33-.6-.12-.28-.3-.53-.52-.74-.25-.22-.43-.5-.53-.82 0 0-.02-.07 0-.09s.09 0 .09 0c.11.08.22.17.33.26.32.31.71.53 1.14.64.43.06.86.08 1.29.06.09 0 .16-.09.15-.19 0-.01 0-.02 0-.03-.19-.38-.35-.78-.46-1.19-.19-.59-.22-1.22-.09-1.82.01-.05.05-.08.1-.08h.02c.07.03.12.09.13.17v.08c.07.88.13 1.71.66 2.41.14.2.33.36.55.47.15.07.28.16.39.28.11.16.13.36.05.54m-18.11.74c.08-.03.18-.02.26.01.12.06.07.37.06.41 0 .1-.05.2-.11.28-.18.09-.38.13-.59.12-.17 0-.23-.03-.27-.08s.03-.17.03-.17c.12-.27.35-.47.63-.57m-.38-3.36c.04-.14.09-.28.16-.41 0 0 .13-.29.18-.37.06-.11.18-.18.31-.19.14 0 .28.07.36.19.08.09.15.19.2.3.08.12.16.24.26.34.17.21.3.44.37.7.04.18.05.36.02.54-.01.09-.04.19-.08.27-.03.07-.1.12-.17.12-.13 0-.12-.15-.12-.17 0-.2-.04-.4-.1-.6-.09-.19-.51-.74-.75-.71-.14.05-.26.14-.34.26-.14.19-.14.21-.19.24s-.1.01-.12-.1c-.03-.14-.03-.28.01-.41zm13.08.61c-.09-.05-.16-.12-.2-.21-.06-.1-.1-.19-.24-.18 0 0-.01 0-.02 0-.11.02-.22.06-.3.14-.05.04-.24.18-.28.22-.27.18-.47.44-.58.74-.01.05-.03.11-.04.16 0 .1-.05.2-.13.27 0 0-.03 0-.04 0-.04 0-.08-.02-.11-.04s-.05-.06-.05-.1c-.06-.5.13-.99.5-1.33.23-.2.43-.43.61-.68.09-.12.18-.24.28-.35.07-.07.19-.01.39.2.18.25.34.53.46.82.03.07.02.15-.01.22-.05.08-.15.12-.23.09m0 3.53c-.06.08-.16.13-.26.11-.11 0-.21-.03-.3-.08-.17-.14-.28-.35-.27-.57-.02-.09.03-.18.12-.2h.06c.21.01.4.11.54.26 0 .01.22.29.11.48z"/><path d="m23.6496 18.9468c.07.12.14.24.19.37.1.21.18.4.28.43.04.01.09.02.14.02.28-.02.54-.12.75-.29.13-.11.09-.18.03-.27-.02-.03-.04-.06-.06-.11-.05-.11-.1-.23-.13-.34-.06-.22-.11-.4-.34-.37-.33.05-.67.07-1.01.07 0 0-.12 0-.15.08-.04.09.05.17.15.26.06.05.11.1.15.16"/><path d="m8.02957 20.0269c.06.06.15.09.23.09.07 0 .14-.02.2-.05.31-.23.56-.53.74-.88.04-.11-.08-.2-.24-.33h-.02c-.08-.07-.19-.06-.27 0-.06.04-.12.08-.17.11-.2.13-.39.27-.57.42-.07.07-.11.17-.12.27 0 .06 0 .11.04.16.02.02.16.18.19.21"/><path d="m7.34042 20.0369s-.02 0-.03 0c-.2.09-.35.26-.42.47-.05.64-.07.71-.24.9-.05.05-.08.18-.03.24.24.11.49.19.74.25h.01c.06-.02.1-.16.23-.6.07-.24.15-.5.23-.75 0-.02 0-.04-.05-.12-.07-.1-.32-.39-.45-.39"/></g></svg>