<svg width="113" height="24" viewBox="0 0 113 24" fill="none" xmlns="http://www.w3.org/2000/svg">
<g clip-path="url(#clip0_959_974)">
<g clip-path="url(#clip1_959_974)">
<mask id="mask0_959_974" style="mask-type:luminance" maskUnits="userSpaceOnUse" x="0" y="0" width="113" height="24">
<path d="M113 0H0V24H113V0Z" fill="white"/>
</mask>
<g mask="url(#mask0_959_974)">
<mask id="mask1_959_974" style="mask-type:luminance" maskUnits="userSpaceOnUse" x="0" y="0" width="113" height="24">
<path d="M113 0H0V24H113V0Z" fill="white"/>
</mask>
<g mask="url(#mask1_959_974)">
<path d="M93.7999 13.89C93.3099 14.39 92.6399 14.66 91.9499 14.66C90.4999 14.66 89.3199 13.48 89.3199 12.03C89.3199 10.58 90.4999 9.39997 91.9499 9.39997C92.6399 9.39997 93.2999 9.66997 93.7899 10.16L93.8599 10.22L95.0599 7.66997L95.0099 7.63997C94.1099 6.99997 93.0399 6.65997 91.9399 6.65997C88.9999 6.65997 86.6099 9.04997 86.6099 12C86.6099 14.95 88.9999 17.34 91.9399 17.34C93.0499 17.34 94.1099 17 95.0099 16.36L95.0599 16.33L93.8799 13.82L93.8099 13.89H93.7999Z" fill="currentColor"/>
<path d="M101.36 6.67999C98.43 6.67999 96.04 9.06999 96.04 12.01C96.04 14.95 98.43 17.34 101.36 17.34C104.29 17.34 106.68 14.95 106.68 12.01C106.68 9.06999 104.29 6.67999 101.36 6.67999ZM101.37 14.66C99.92 14.66 98.75 13.48 98.75 12.03C98.75 10.58 99.93 9.39999 101.37 9.39999C102.81 9.39999 103.99 10.58 103.99 12.03C103.99 13.48 102.82 14.66 101.37 14.66Z" fill="currentColor"/>
<path d="M43.1299 6.98999V12.51C43.1299 12.96 43.1799 13.65 43.6899 14.13C43.9099 14.33 44.3199 14.6 45.0299 14.6C45.6299 14.6 46.0999 14.4 46.3899 14.13C46.8599 13.68 46.9299 13.01 46.9299 12.51V6.98999H50.1499V12.82C50.1499 13.96 50.0399 15.04 49.0299 16.02C47.8899 17.14 46.2099 17.32 45.0199 17.32C43.8299 17.32 42.1299 17.14 40.9899 16.02C40.0699 15.12 39.8999 14.11 39.8999 13.02V6.98999H43.1199H43.1299Z" fill="currentColor"/>
<path d="M52.6602 6.98997H55.8802V8.17997C56.8702 6.91997 58.0302 6.71997 58.9702 6.71997C59.8402 6.71997 60.9802 6.87997 61.8402 7.72997C62.7802 8.66997 62.8502 9.85997 62.8502 10.67V16.99H59.6302V11.86C59.6302 11.21 59.6102 10.38 59.0902 9.86997C58.8402 9.61997 58.4402 9.41997 57.8602 9.41997C57.1902 9.41997 56.7702 9.68997 56.5202 9.95997C55.9802 10.5 55.8902 11.22 55.8902 11.87V17H52.6702V6.99997L52.6602 6.98997Z" fill="currentColor"/>
<path d="M75.5698 12.55H68.1199C68.1199 13.09 68.3198 13.81 68.7198 14.26C69.2098 14.8 69.8798 14.89 70.3798 14.89C70.8798 14.89 71.3398 14.8 71.6798 14.6C71.7298 14.58 72.1098 14.33 72.3699 13.77L75.4099 14.08C74.9599 15.49 74.0699 16.23 73.4799 16.59C72.5199 17.17 71.4498 17.33 70.3198 17.33C68.8198 17.33 67.4998 17.06 66.3398 15.9C65.4698 15.03 64.8398 13.7 64.8398 12.05C64.8398 10.62 65.3498 9.13998 66.3598 8.09998C67.5698 6.88998 69.0698 6.66998 70.1898 6.66998C71.3098 6.66998 72.9198 6.86998 74.1498 8.16998C75.3398 9.42998 75.5598 11 75.5598 12.23V12.57L75.5698 12.55ZM72.5998 10.63C72.5798 10.54 72.4198 9.90998 71.9498 9.45998C71.5898 9.11998 71.0798 8.89998 70.4298 8.89998C69.5998 8.89998 69.1099 9.23998 68.7999 9.54998C68.5499 9.81998 68.3298 10.18 68.2398 10.63H72.5998Z" fill="currentColor"/>
<path d="M83.69 9.55002C83.2 9.26002 82.55 8.99002 81.92 8.99002C81.58 8.99002 81.21 9.08002 81 9.28002C80.89 9.39002 80.8 9.57002 80.8 9.73002C80.8 9.95002 80.95 10.09 81.11 10.18C81.33 10.32 81.67 10.38 82.07 10.52L82.92 10.79C83.48 10.97 84.06 11.19 84.57 11.66C85.15 12.2 85.35 12.8 85.35 13.57C85.35 14.89 84.77 15.75 84.32 16.19C83.33 17.18 82.13 17.33 81.08 17.33C79.74 17.33 78.28 17.04 76.98 15.9L78.34 13.72C78.65 13.99 79.1 14.3 79.44 14.46C79.89 14.68 80.36 14.77 80.78 14.77C80.98 14.77 81.5 14.77 81.79 14.55C81.99 14.39 82.13 14.15 82.13 13.9C82.13 13.72 82.06 13.5 81.77 13.32C81.55 13.18 81.26 13.1 80.78 12.96L79.98 12.71C79.4 12.53 78.79 12.22 78.37 11.79C77.9 11.29 77.65 10.73 77.65 9.97002C77.65 9.01002 78.03 8.20002 78.61 7.66002C79.5 6.83002 80.71 6.65002 81.63 6.65002C83.11 6.65002 84.14 7.03002 84.94 7.50002L83.66 9.54002L83.69 9.55002Z" fill="currentColor"/>
<path d="M0 24H113V0H0V24ZM8.5 7L16.3 4.61L24.1 7V7.71L16.3 5.32L8.5 7.71V7ZM9.94 15.67C10.09 15.67 10.09 15.56 10.09 15.56V9.19H10.5V15.55C10.5 15.55 10.53 16.04 9.98 16.04C9.43 16.04 9.43 15.55 9.43 15.55V9.19H9.84V15.53C9.84 15.53 9.81 15.68 9.95 15.68M24.09 17.05H8.5V16.4H24.09V17.05ZM11.98 16.03V9.18H12.3L12.71 12.84V9.18H13.05V16.03H12.71L12.3 11.91V16.03H11.98ZM15.48 12.2V12.58H15.04V15.67H15.63V16.03H14.58V9.18H15.48V9.52H15.04V12.19H15.48V12.2ZM17.5 15.67C17.61 15.67 17.61 15.55 17.61 15.55V13.97C17.61 13.31 16.97 11.86 16.97 11V9.69C16.97 9.69 16.97 9.21 17.51 9.2C18.05 9.18 18.03 9.69 18.03 9.69V11.23H17.6V9.69C17.6 9.69 17.6 9.54 17.49 9.54C17.38 9.54 17.39 9.69 17.39 9.69V11.23C17.39 11.74 18.02 13.27 18.03 14.07V15.55C18.03 15.55 18.03 16.04 17.49 16.04C16.95 16.04 16.97 15.55 16.97 15.55V13.83H17.39V15.55C17.39 15.55 17.39 15.66 17.5 15.67ZM20.06 9.53C19.91 9.53 19.91 9.68 19.91 9.68V15.54C19.91 15.54 19.94 15.67 20.06 15.67C20.19 15.67 20.19 15.54 20.19 15.54V13.82H20.6V15.54C20.6 15.54 20.6 16.03 20.06 16.03C19.52 16.03 19.54 15.54 19.54 15.54V9.68C19.54 9.68 19.54 9.19 20.06 9.19C20.58 9.19 20.6 9.68 20.6 9.68V11.22H20.19V9.68C20.19 9.68 20.19 9.53 20.06 9.53ZM22.1 15.54V9.68C22.1 9.68 22.1 9.19 22.67 9.19C23.24 9.19 23.21 9.68 23.21 9.68V15.54C23.21 15.54 23.21 16.03 22.64 16.03C22.1 16.03 22.1 15.54 22.1 15.54ZM8.5 8.13H24.09V8.78H8.5V8.13ZM9.77 7.71L16.3 5.71L22.83 7.71H20.94L16.3 6.32L11.66 7.71H9.77ZM7.62 17.5H24.94V18.15H7.62V17.5ZM25.79 19.27H6.8V18.62H25.79V19.27ZM112.5 23.5H32.78V0.5H112.5V23.5Z" fill="currentColor"/>
<path d="M22.8198 15.54V9.68003C22.8198 9.68003 22.8198 9.53003 22.6598 9.53003C22.5098 9.53003 22.5098 9.68003 22.5098 9.68003V15.54C22.5098 15.54 22.5098 15.67 22.6698 15.67C22.8298 15.67 22.8198 15.54 22.8198 15.54Z" fill="currentColor"/>
</g>
</g>
</g>
</g>
<defs>
<clipPath id="clip0_959_974">
<rect width="113" height="24" fill="white"/>
</clipPath>
<clipPath id="clip1_959_974">
<rect width="113" height="24" fill="white"/>
</clipPath>
</defs>
</svg>
