<svg width="100" height="24" viewBox="0 0 100 24" fill="none" xmlns="http://www.w3.org/2000/svg">
<g clip-path="url(#clip0_959_936)">
<path d="M85.9901 0C80.7901 0 76.5601 4.23 76.5601 9.44C76.5601 14.65 80.7901 18.88 85.9901 18.88C91.1901 18.88 95.4301 14.65 95.4301 9.44C95.4301 4.23 91.1901 0 85.9901 0ZM93.3501 4.17C92.8701 4.5 92.3601 4.79 91.8301 5.05C91.5201 4.43 91.1401 3.83 90.7001 3.29C91.0901 3.05 91.4601 2.79 91.8001 2.5C92.3801 2.99 92.9001 3.55 93.3501 4.17ZM89.3801 1.04C90.1301 1.34 90.8401 1.75 91.4901 2.25C91.1701 2.52 90.8201 2.76 90.4501 2.98C89.9901 2.45 89.4701 1.97 88.9001 1.54C89.0701 1.38 89.2301 1.21 89.3801 1.03M90.1101 3.18C89.6001 3.45 89.0701 3.67 88.5201 3.84C88.2901 3.31 88.0301 2.8 87.7301 2.3C88.0301 2.17 88.3201 2 88.5901 1.8C89.1401 2.2 89.6501 2.67 90.1101 3.18ZM88.9901 0.9C88.8601 1.05 88.7201 1.19 88.5701 1.32C88.0701 0.98 87.5401 0.69 86.9901 0.45C87.6801 0.52 88.3501 0.67 88.9901 0.9ZM88.2501 1.57C88.0201 1.73 87.7801 1.87 87.5301 1.97C87.2601 1.54 86.9501 1.12 86.6201 0.7C87.1901 0.93 87.7401 1.22 88.2501 1.56M86.1801 0.78C86.5301 1.2 86.8501 1.64 87.1501 2.12C86.8301 2.22 86.5101 2.28 86.1801 2.29V0.78ZM86.1801 2.67C86.5801 2.65 86.9801 2.58 87.3701 2.45C87.6601 2.93 87.9201 3.43 88.1401 3.95C87.5001 4.11 86.8401 4.21 86.1801 4.22V2.67ZM85.7901 0.79V2.28C85.4701 2.26 85.1401 2.21 84.8301 2.11C85.1201 1.66 85.4401 1.22 85.7901 0.79ZM84.4601 1.98C84.2001 1.87 83.9601 1.73 83.7401 1.57C84.2501 1.23 84.7901 0.94 85.3701 0.71C85.0501 1.11 84.7401 1.54 84.4701 1.98M85.0001 0.44C84.4401 0.68 83.9101 0.98 83.4101 1.32C83.2601 1.18 83.1201 1.04 82.9901 0.89C83.6401 0.66 84.3101 0.51 85.0001 0.44ZM91.4601 16.64C90.2101 15.95 90.1801 15 90.2501 14.64C90.3201 14.28 90.5601 14.44 90.7201 14.44C91.5401 14.44 92.4101 14.2 93.4801 13.1C94.6901 11.87 95.0601 9.13 93.2101 7.35C91.2101 5.43 89.0901 5.76 87.7201 7.49C87.4401 7.84 86.7501 8.1 86.1601 8.08C85.2801 8.05 85.8401 8.74 85.8401 8.88C85.8401 9.02 85.7101 9.13 85.6301 9.1C85.3301 9.01 85.4501 9.46 85.4501 9.59C85.4501 9.72 85.3301 9.79 85.2601 9.79C84.8901 9.79 84.9901 10.12 85.0001 10.21C85.0101 10.3 84.9801 10.45 84.8501 10.52C84.7301 10.59 84.5901 10.88 84.5901 11.1C84.5901 11.5 84.9601 11.78 85.5701 12.24C86.1801 12.7 86.2601 13.13 86.2701 13.44C86.2801 13.75 86.3101 14.25 86.4501 14.59C86.6101 14.99 86.5901 15.73 85.7501 15.76C84.7201 15.8 82.8801 16.63 82.7201 16.68C82.1401 16.89 81.3601 16.96 80.7601 16.81C80.4401 16.58 80.1301 16.33 79.8301 16.06C79.7101 15.64 79.9201 15.2 80.1301 14.9C80.4701 15.24 80.9901 15.22 81.2801 15.23C81.5701 15.24 82.9801 15.02 83.1801 14.95C83.3801 14.88 83.4701 14.91 83.5901 14.95C84.1301 15.15 84.8701 15.21 85.1701 14.17C85.4701 13.13 84.7601 13.42 84.6701 13.47C84.5801 13.52 84.4601 13.51 84.5001 13.42C84.6301 13.16 84.4301 13.18 84.3201 13.17C84.0301 13.14 83.6501 13.45 83.5301 13.56C83.4101 13.67 83.2801 13.66 83.2401 13.64C82.8601 13.45 81.7101 13.72 81.3601 13.1C81.3901 12.94 81.0701 10.42 80.9001 9.98C80.8601 9.89 80.8301 9.74 80.9401 9.57C81.2301 9.13 82.0301 9.6 82.4701 9.59C82.9901 9.58 83.0701 9.36 83.2201 9.18C83.3601 9.01 83.4601 9.11 83.5301 9.06C83.6201 9 83.5301 8.88 83.5701 8.81C83.6001 8.74 83.6401 8.78 83.7301 8.7C83.8201 8.62 83.7201 8.46 83.7601 8.39C83.8901 8.2 84.2401 8.35 84.0301 7.84C83.9201 7.56 84.0801 7.26 84.2301 7.06C84.4801 6.73 85.4601 5.36 83.7401 3.94C82.1001 2.58 80.4401 2.69 79.3701 3.85C78.3001 5.01 78.8401 6.7 78.9501 7.15C79.0601 7.6 78.7401 8 78.3701 8.17C78.0801 8.31 77.4101 8.75 76.9001 9.19C76.9801 5.55 79.1901 2.36 82.5701 1C82.7101 1.18 82.8701 1.35 83.0501 1.51C82.6701 1.78 81.8501 2.52 81.8501 2.52C81.8501 2.52 81.9601 2.54 82.0701 2.56C82.1401 2.58 82.3001 2.62 82.3001 2.62C82.3001 2.62 83.0201 2 83.3601 1.76C83.6301 1.96 83.9101 2.13 84.2201 2.26C84.0501 2.54 83.6401 3.32 83.6401 3.32C83.6401 3.32 83.7401 3.38 83.8201 3.43C83.9001 3.49 83.9601 3.54 83.9601 3.54C83.9601 3.54 84.4101 2.69 84.5801 2.41C84.9601 2.54 85.3501 2.61 85.7501 2.63V4.19C85.5301 4.19 84.9601 4.16 84.7301 4.14H84.5901L84.6701 4.24C84.7301 4.33 84.7801 4.42 84.8201 4.5L84.8401 4.53H84.8801C85.0501 4.55 85.5701 4.57 85.7601 4.57V7.4H86.1501V6.75C86.7201 6.72 87.2001 6.68 87.7801 6.63H87.8101L88.3201 6.18L88.0401 6.2C87.4301 6.28 86.8901 6.32 86.4001 6.34C86.4001 6.34 86.2301 6.35 86.1501 6.36V4.56C86.8601 4.54 87.5701 4.45 88.2701 4.26C88.4601 4.73 88.8201 5.86 88.8201 5.86L89.1901 5.74C89.1901 5.74 88.8301 4.62 88.6401 4.15C89.2301 3.97 89.8001 3.73 90.3401 3.43C90.7701 3.96 91.1501 4.55 91.4601 5.16C91.1801 5.29 90.6701 5.47 90.6801 5.47C91.0901 5.51 91.3901 5.61 91.3901 5.61C91.3901 5.61 91.5301 5.55 91.6301 5.51C91.6701 5.59 91.7401 5.76 91.7401 5.76L92.2501 5.98L92.1901 5.84C92.1901 5.84 92.0201 5.44 91.9801 5.34C92.5201 5.07 93.0501 4.77 93.5501 4.43C94.5101 5.9 95.0201 7.61 95.0201 9.38C95.0201 12.32 93.6201 14.93 91.4401 16.59" fill="currentColor"/>
<path d="M75.6998 2.51L75.5499 2.64C74.9999 3.13 73.7298 4.42 73.9298 5.84L73.9498 5.94L74.0098 6.22L74.1898 6.06C74.9698 5.35 75.5498 4.15 75.7798 2.76L75.8498 2.37L75.6998 2.5V2.51Z" fill="currentColor"/>
<path d="M73.1301 4.95998L73.0701 5.12998C72.9801 5.36998 72.8201 5.85998 72.7401 6.52998C72.6201 7.46998 72.6501 8.78998 73.4601 9.77998L73.5501 9.89998L73.6401 10.02L73.7601 9.41998C73.9001 8.35998 73.7201 6.12998 73.3301 5.12998L73.2001 4.78998L73.1401 4.95998H73.1301Z" fill="currentColor"/>
<path d="M72.1899 8.79V8.97001C72.1099 9.92001 72.1599 12.28 74.0599 13.53L74.2899 13.68V13.41C74.2499 12.52 73.2099 9.85 72.4199 8.9L72.1999 8.63V8.8L72.1899 8.79Z" fill="currentColor"/>
<path d="M72.52 13.01L72.55 13.17C72.83 14.52 74.11 16.71 76.09 17.35L76.36 17.44L76.26 17.17C75.89 16.16 73.98 13.8 72.76 13.02L72.48 12.84L72.51 13L72.52 13.01Z" fill="currentColor"/>
<path d="M76.5001 4.55001L76.3401 4.64001C74.8701 5.54001 74.1801 6.63001 74.2301 7.98001V8.29001L74.4601 8.11001C75.2601 7.45001 76.2601 5.76001 76.5501 4.80001L76.6601 4.45001L76.5001 4.54001V4.55001Z" fill="currentColor"/>
<path d="M75.6299 7.49002L75.5199 7.60002C75.1399 7.96002 73.9199 9.26002 74.0299 10.87C74.0499 11.12 74.0999 11.38 74.1999 11.66L74.2899 11.92L74.4499 11.7C75.0299 10.88 75.8099 8.71002 75.7699 7.70002V7.40002L75.6499 7.51002L75.6299 7.49002Z" fill="currentColor"/>
<path d="M75.6901 10.28L75.6101 10.4C74.9901 11.31 74.6801 12.25 74.7001 13.12C74.7201 13.76 74.9201 14.37 75.3101 14.94L75.4401 15.13L75.5501 14.93C75.8201 14.43 76.0301 12.81 76.0001 11.52C75.9901 11.07 75.9401 10.69 75.8701 10.44L75.7901 10.16L75.7101 10.28H75.6901Z" fill="currentColor"/>
<path d="M76.4102 13.27L76.3702 13.4C76.1802 13.99 76.1002 14.57 76.1102 15.13C76.1502 16.38 76.7002 17.35 77.7502 18.03L77.9302 18.14L77.9702 17.9L77.9802 17.71C77.9502 16.7 77.1902 14.14 76.6002 13.36L76.4402 13.14L76.4002 13.27H76.4102Z" fill="currentColor"/>
<path d="M74.3298 17.23L74.4098 17.36C75.1998 18.69 76.5498 20.41 79.0698 19.97L79.2798 19.94L79.1598 19.76C78.6898 19.06 75.6298 17.33 74.5498 17.16L74.2598 17.11L74.3398 17.24L74.3298 17.23Z" fill="currentColor"/>
<path d="M78.0602 20.61L77.6602 20.72L78.0402 20.87C79.6402 21.53 81.6502 21.72 82.8202 21.33C83.2602 21.18 83.5202 20.94 83.8502 20.62C85.9002 20.83 87.8202 22.54 88.9402 23.93L89.0002 24L89.0901 23.97C89.2201 23.93 89.4102 23.78 89.4902 23.69L89.5702 23.61L89.5002 23.52C88.3302 21.99 86.5102 21.04 86.4202 21.01C84.7802 20.21 81.8702 19.58 78.0602 20.61Z" fill="currentColor"/>
<path d="M78.1399 16.34L78.1599 16.48C78.3999 17.99 79.0099 19.97 81.5599 19.75H81.7199L81.6799 19.58C81.5099 18.89 79.1699 16.9 78.3599 16.34L78.1099 16.21L78.1299 16.35L78.1399 16.34Z" fill="currentColor"/>
<path d="M96.1602 2.38L96.2302 2.77C96.4702 4.16 97.0502 5.36 97.8202 6.07L98.0002 6.23L98.0602 5.95C98.0602 5.95 98.0802 5.86 98.0802 5.85C98.2702 4.43 97.0102 3.14 96.4602 2.65L96.3102 2.52L96.1602 2.39V2.38Z" fill="currentColor"/>
<path d="M98.82 4.78998L98.6901 5.12998C98.3001 6.12998 98.12 8.34998 98.26 9.41998L98.38 10.02L98.47 9.89998L98.56 9.77998C99.37 8.78998 99.4 7.45998 99.28 6.52998C99.2 5.86998 99.04 5.36998 98.95 5.12998L98.89 4.95998L98.83 4.78998H98.82Z" fill="currentColor"/>
<path d="M99.81 8.61999L99.59 8.88999C98.81 9.83999 97.77 12.51 97.73 13.4V13.67L97.94 13.52C99.84 12.27 99.9 9.91999 99.83 8.95999V8.77999L99.81 8.60999V8.61999Z" fill="currentColor"/>
<path d="M99.5299 12.85L99.2499 13.03C98.0199 13.81 96.1099 16.16 95.7499 17.18L95.6499 17.45L95.9199 17.36C97.8999 16.73 99.1799 14.53 99.4599 13.18L99.4899 13.02L99.5199 12.86L99.5299 12.85Z" fill="currentColor"/>
<path d="M95.4302 4.41002L95.5302 4.76002C95.8002 5.72002 96.7702 7.43002 97.5502 8.11002L97.7602 8.29002L97.7802 7.98002C97.8602 6.64002 97.1902 5.53002 95.7402 4.60002L95.5802 4.50002L95.4302 4.40002V4.41002Z" fill="currentColor"/>
<path d="M96.2699 7.39V7.69C96.2199 8.7 96.9899 10.87 97.5699 11.69L97.7299 11.91L97.8199 11.65C97.9099 11.37 97.9699 11.11 97.9899 10.86C98.0999 9.24999 96.8699 7.95 96.4999 7.59L96.3899 7.48L96.2799 7.37L96.2699 7.39Z" fill="currentColor"/>
<path d="M96.2402 10.16L96.1602 10.44C96.0802 10.69 96.0402 11.07 96.0302 11.52C96.0002 12.8 96.2102 14.43 96.4702 14.93L96.5802 15.13L96.7102 14.94C97.1002 14.37 97.3002 13.76 97.3102 13.12C97.3302 12.26 97.0202 11.32 96.4002 10.4L96.3202 10.28L96.2402 10.16Z" fill="currentColor"/>
<path d="M95.56 13.14L95.4 13.36C94.81 14.14 94.05 16.69 94.02 17.71C94.02 17.71 94.03 17.9 94.04 17.9L94.08 18.14L94.26 18.03C95.31 17.35 95.87 16.38 95.9 15.13C95.92 14.58 95.83 14 95.64 13.4L95.6 13.27L95.56 13.14Z" fill="currentColor"/>
<path d="M97.76 17.1C97.76 17.1 97.47 17.15 97.46 17.15C96.38 17.33 93.32 19.05 92.85 19.75L92.73 19.93L92.94 19.96C95.46 20.4 96.81 18.68 97.6 17.35L97.68 17.22L97.76 17.09V17.1Z" fill="currentColor"/>
<path d="M85.6 21C85.52 21.04 83.69 21.98 82.53 23.51L82.46 23.6L82.54 23.68C82.62 23.77 82.81 23.92 82.94 23.96L83.03 23.99L83.09 23.92C84.21 22.53 86.13 20.82 88.18 20.61C88.5 20.93 88.77 21.17 89.21 21.32C90.37 21.71 92.38 21.52 93.99 20.86L94.37 20.71L93.97 20.6C90.16 19.57 87.26 20.19 85.61 21" fill="currentColor"/>
<path d="M93.8898 16.21L93.6498 16.34C92.8298 16.9 90.4998 18.9 90.3198 19.58L90.2798 19.74H90.4398C92.9898 19.97 93.5998 17.99 93.8398 16.48L93.8598 16.34L93.8798 16.2L93.8898 16.21Z" fill="currentColor"/>
<path d="M29.4702 0.929993H32.6602V3.83999H29.4702V0.929993ZM29.7302 7.13999H32.4102V21.3H29.7302V7.13999Z" fill="currentColor"/>
<path d="M9.5 7.15002H12.18V21.31H9.56V19.22H9.5C8.43 21 6.62 21.73 4.65 21.73C1.69 21.73 0 19.47 0 16.63V7.15002H2.68V15.53C2.68 17.98 3.24 19.79 5.81 19.79C6.91 19.79 8.41 19.23 8.97 17.76C9.48 16.43 9.51 14.77 9.51 14.43V7.15002H9.5Z" fill="currentColor"/>
<path d="M17.5299 9.23998H17.5899C18.4899 7.45998 20.4699 6.72998 21.8799 6.72998C22.8699 6.72998 27.2399 6.97998 27.2399 11.52V21.31H24.5599V12.4C24.5599 10.06 23.5699 8.78998 21.3199 8.78998C21.3199 8.78998 19.8499 8.70998 18.7299 9.82998C18.3399 10.22 17.5999 10.84 17.5999 13.61V21.31H14.9199V7.14998H17.5399V9.23998H17.5299Z" fill="currentColor"/>
<path d="M43.6201 11.69C43.4801 9.92 42.6401 8.69 40.7301 8.69C38.1801 8.69 37.2001 10.9 37.2001 14.21C37.2001 17.52 38.1801 19.73 40.7301 19.73C42.4901 19.73 43.5901 18.58 43.7201 16.56H46.3801C46.1501 19.73 43.8001 21.66 40.6901 21.66C36.1801 21.66 34.3901 18.47 34.3901 14.32C34.3901 10.17 36.4601 6.75 40.9201 6.75C43.8901 6.75 46.1301 8.63 46.2701 11.68H43.6101L43.6201 11.69Z" fill="currentColor"/>
<path d="M50.4001 14.71C50.2001 17.18 51.2101 19.73 53.9301 19.73C56.0001 19.73 57.0401 18.92 57.3501 16.87H60.1601C59.7401 20.07 57.2701 21.66 53.9101 21.66C49.4001 21.66 47.6001 18.47 47.6001 14.32C47.6001 10.17 49.6801 6.75 54.1301 6.75C58.3301 6.84 60.3201 9.5 60.3201 13.4V14.71H50.4101H50.4001ZM57.5101 12.87C57.5701 10.52 56.5001 8.69 53.9201 8.69C51.7001 8.69 50.3901 10.56 50.3901 12.87H57.5101Z" fill="currentColor"/>
<path d="M63.3199 21.25V9.03001H60.8999V7.18001H63.3199V4.16001C63.4099 1.08001 65.7299 0.26001 67.7199 0.26001C68.3599 0.26001 68.9799 0.43001 69.6299 0.54001V2.75001C69.1799 2.73001 68.7299 2.66001 68.2799 2.66001C66.7699 2.66001 65.8999 3.06001 65.9799 4.59001V7.17001H69.2299V9.02001H65.9799V21.24H63.3199V21.25Z" fill="currentColor"/>
</g>
<defs>
<clipPath id="clip0_959_936">
<rect width="99.85" height="24" fill="white"/>
</clipPath>
</defs>
</svg>
