<svg fill="none" height="37" viewBox="0 0 51 37" width="51" xmlns="http://www.w3.org/2000/svg"><g fill="#000"><path d="m24.6283 6.58984v15.65716h-12.9701z"/><path d="m24.6283.969971c-.0152 1.709939-.7052 3.344669-1.9197 4.548429s-2.8553 1.87913-4.5653 1.87913c-1.7101 0-3.3509-.67537-4.5654-1.87913s-1.9045-2.83849-1.9197-4.548429z"/><path d="m26.7666 22.2471c.0152-1.7099.7052-3.3446 1.9197-4.5484 1.2145-1.2037 2.8553-1.8791 4.5653-1.8791 1.7101 0 3.3509.6754 4.5654 1.8791 1.2145 1.2038 1.9045 2.8385 1.9197 4.5484z"/><path d="m26.7666 16.6282v-15.658229h12.9701z"/><path d="m34.0195 35.6445c.6675.0139 1.3134-.237 1.7966-.6977l.891.961c-.3458.3547-.7629.6321-1.2238.8139-.4609.1817-.955.2638-1.4499.2407-2.1744 0-3.5786-1.4397-3.5786-3.3936-.0089-.4471.0725-.8913.2391-1.3063.1667-.4149.4153-.792.7309-1.1088.3157-.3167.6919-.5666 1.1063-.7347.4143-.1681.8583-.251 1.3054-.2438 2.1595 0 3.3823 1.6454 3.2763 3.9212h-5.1027c.0717.4662.3198.8871.693 1.1757.3732.2885.843.4226 1.3123.3745m1.5549-2.6346c-.0248-.4317-.22-.8359-.5427-1.1237s-.7465-.4357-1.1782-.4112c-.4445-.0257-.8821.1186-1.2241.4036s-.5629.6894-.6177 1.1313z"/><path d="m.510742 35.5736 3.927788-3.99h-3.836268v-1.2521h5.655948v1.2778l-3.9278 3.99h3.98025v1.2505h-5.799918z"/><path d="m10.7217 35.6445c.6675.0139 1.3133-.237 1.7965-.6977l.8906.961c-.3458.3548-.7629.6322-1.2238.814s-.9551.2638-1.4499.2406c-2.17398 0-3.5782-1.4397-3.5782-3.3936-.00883-.4471.07252-.8913.23919-1.3063.16667-.4149.41525-.792.73088-1.1088.31564-.3167.69187-.5666 1.10623-.7347.41435-.1681.8583-.251 1.3054-.2438 2.1596 0 3.3818 1.6454 3.2764 3.9212h-5.10271c.07166.4662.31974.8871.69296 1.1757.37322.2885.84305.4226 1.31235.3745m1.5548-2.6346c-.0247-.4317-.22-.8359-.5427-1.1237s-.7465-.4357-1.1782-.4112c-.4445-.0257-.88207.1186-1.22408.4036-.34202.285-.56285.6894-.6177 1.1313z"/><path d="m22.2968 33.5718c-.0184-.4404.0528-.88.2092-1.2921.1565-.4121.3949-.7881.701-1.1054.306-.3173.6732-.5691 1.0794-.7403.4061-.1712.8428-.2583 1.2836-.2558.4116-.0055.8194.0791 1.1949.2479.3754.1688.7094.4176.9785.7291v-3.8466h1.3883v9.5189h-1.3883v-.8998c-.264.3245-.5976.5855-.9761.7635-.3786.178-.7923.2685-1.2106.2649-.4383-.0033-.8714-.0942-1.2739-.2673-.4026-.1732-.7664-.4251-1.0702-.741-.3037-.3159-.5412-.6893-.6985-1.0983s-.2312-.8454-.2173-1.2834m5.5233-.0072c-.0111-.4068-.1418-.8013-.3758-1.1342-.2341-.3329-.5611-.5894-.9401-.7375-.3791-.148-.7934-.181-1.1911-.0949-.3977.0862-.7612.2877-1.045.5793-.2838.2917-.4754.6605-.5507 1.0604s-.031.8132.1273 1.1881.4237.6948.7628.9197c.3392.2249.7371.3448 1.144.3447.2767.0009.5508-.054.8059-.1613.2551-.1072.486-.2647.679-.463.1929-.1983.3441-.4334.4444-.6913.1002-.2579.1476-.5334.1393-.81z"/><path d="m38.0176 35.4494 1.2566-.6515c.1664.2961.4104.5412.7058.7088s.6309.2514.9704.2424c.7857 0 1.1919-.4036 1.1919-.8602 0-.5219-.7594-.6391-1.5842-.8083-1.1132-.235-2.2654-.6-2.2654-1.943 0-1.0284.9815-1.9822 2.5271-1.9688.5102-.0322 1.0201.0671 1.4809.2885s.857.5574 1.1507.9758l-1.1656.6392c-.161-.2384-.3801-.4317-.6366-.5617s-.542-.1924-.8294-.1813c-.7466 0-1.126.365-1.126.782 0 .4695.6021.6001 1.5451.8083 1.0736.235 2.2912.5872 2.2912 1.9436 0 .8993-.7857 2.1122-2.645 2.0989-.5716.0411-1.1433-.0788-1.6501-.3462-.5069-.2674-.9287-.6715-1.2174-1.1665z"/><path d="m47.2986 33.9369-1.0998 1.1996v1.6968h-1.3883v-9.521h1.3883v6.2328l2.9463-3.2337h1.689l-2.5534 2.7905 2.6192 3.7293h-1.5718z"/><path d="m18.102 30.1799c-1.6495 0-3.0336 1.0695-3.0336 2.8429v3.8085h1.4145v-3.6321c-.0247-.2264.0009-.4554.075-.6708.0741-.2153.1949-.4116.3536-.5749.1588-.1633.3516-.2895.5648-.3696s.4414-.1121.6684-.0938c1.0479 0 1.5718.6401 1.5718 1.7091v3.6321h1.4191v-3.8085c0-1.7734-1.3816-2.8429-3.0336-2.8429z"/></g></svg>